<?xml version="1.0" encoding="utf-8"?>
<svg xmlns="http://www.w3.org/2000/svg" style="margin: auto; background: none; display: block; shape-rendering: auto; animation-play-state: running; animation-delay: 0s;" width="1115" height="208" preserveAspectRatio="xMidYMid">
<style type="text/css" style="animation-play-state: running; animation-delay: 0s;">
  text {
    text-anchor: middle; font-size: 110px; opacity: 0;
  }
</style>
<g style="transform-origin: 557.5px 104px; transform: scale(1); animation-play-state: running; animation-delay: 0s;">
<g transform="translate(557.5,104)" style="animation-play-state: running; animation-delay: 0s;">
  <g transform="translate(-57,14)" style="animation-play-state: running; animation-delay: 0s;"><g class="path" style="transform: matrix(1, 0, 0, 1, 0, 0); opacity: 1; transform-origin: -359.865px -17.9058px; animation: 1s linear 0s 1 normal forwards running float-ttb-out-c16db9ff-15fe-44bc-9975-b576169597c5;"><path d="M43.67-31.57L43.67-31.57L21.01-31.57L21.01-9.90L19.91-9.90L19.91-69.30L43.67-69.30L43.67-69.30Q48.84-69.30 52.09-68.14L52.09-68.14L52.09-68.14Q55.33-66.99 57.09-65.01L57.09-65.01L57.09-65.01Q58.85-63.03 59.51-60.28L59.51-60.28L59.51-60.28Q60.17-57.53 60.17-54.34L60.17-54.34L60.17-46.20L60.17-46.20Q60.17-43.01 59.51-40.31L59.51-40.31L59.51-40.31Q58.85-37.62 57.09-35.70L57.09-35.70L57.09-35.70Q55.33-33.77 52.09-32.67L52.09-32.67L52.09-32.67Q48.84-31.57 43.67-31.57zM21.01-68.20L21.01-32.67L43.67-32.67L43.67-32.67Q48.51-32.67 51.54-33.66L51.54-33.66L51.54-33.66Q54.56-34.65 56.21-36.47L56.21-36.47L56.21-36.47Q57.86-38.28 58.47-40.76L58.47-40.76L58.47-40.76Q59.07-43.23 59.07-46.20L59.07-46.20L59.07-54.34L59.07-54.34Q59.07-57.31 58.47-59.84L58.47-59.84L58.47-59.84Q57.86-62.37 56.21-64.24L56.21-64.24L56.21-64.24Q54.56-66.11 51.54-67.16L51.54-67.16L51.54-67.16Q48.51-68.20 43.67-68.20L43.67-68.20L21.01-68.20" fill="#0055a5" stroke="none" stroke-width="none" transform="translate(-399.9049944281578,21.694209238688146)" style="fill: rgb(0, 85, 165); animation-play-state: running; animation-delay: 0s;"></path></g><g class="path" style="transform: matrix(1, 0, 0, 1, 0, 0); opacity: 1; transform-origin: -286.77px -17.9058px; animation: 1s linear 0.0575s 1 normal forwards running float-ttb-out-c16db9ff-15fe-44bc-9975-b576169597c5;"><path d="M95.70-11L131.67-11L131.67-9.90L94.60-9.90L94.60-69.30L131.67-69.30L131.67-68.20L95.70-68.20L95.70-40.59L122.76-40.59L122.76-39.49L95.70-39.49L95.70-11" fill="#0055a5" stroke="none" stroke-width="none" transform="translate(-399.9049944281578,21.694209238688146)" style="fill: rgb(69, 174, 231); animation-play-state: running; animation-delay: 0s;"></path></g><g class="path" style="transform: matrix(1, 0, 0, 1, 0, 0); opacity: 1; transform-origin: -216.865px -17.9058px; animation: 1s linear 0.115s 1 normal forwards running float-ttb-out-c16db9ff-15fe-44bc-9975-b576169597c5;"><path d="M183.59-9.90L182.49-9.90L182.49-68.20L159.94-68.20L159.94-69.30L206.14-69.30L206.14-68.20L183.59-68.20L183.59-9.90" fill="#0055a5" stroke="none" stroke-width="none" transform="translate(-399.9049944281578,21.694209238688146)" style="fill: rgb(189, 160, 178); animation-play-state: running; animation-delay: 0s;"></path></g><g class="path" style="transform: matrix(1, 0, 0, 1, 0, 0); opacity: 1; transform-origin: -119.955px -17.9058px; animation: 1s linear 0.1725s 1 normal forwards running float-ttb-out-c16db9ff-15fe-44bc-9975-b576169597c5;"><path d="M280.50-9.90L279.40-9.90L279.40-68.20L256.85-68.20L256.85-69.30L303.05-69.30L303.05-68.20L280.50-68.20L280.50-9.90" fill="#0055a5" stroke="none" stroke-width="none" transform="translate(-399.9049944281578,21.694209238688146)" style="fill: rgb(206, 100, 166); animation-play-state: running; animation-delay: 0s;"></path></g><g class="path" style="transform: matrix(1, 0, 0, 1, 0, 0); opacity: 1; transform-origin: -42.185px -17.9058px; animation: 1s linear 0.23s 1 normal forwards running float-ttb-out-c16db9ff-15fe-44bc-9975-b576169597c5;"><path d="M336.60-9.90L335.50-9.90L335.50-69.30L336.60-69.30L336.60-40.15L378.84-40.15L378.84-69.30L379.94-69.30L379.94-9.90L378.84-9.90L378.84-39.05L336.60-39.05L336.60-9.90" fill="#0055a5" stroke="none" stroke-width="none" transform="translate(-399.9049944281578,21.694209238688146)" style="fill: rgb(0, 85, 165); animation-play-state: running; animation-delay: 0s;"></path></g><g class="path" style="transform: matrix(1, 0, 0, 1, 0, 0); opacity: 1; transform-origin: 39.765px -17.9058px; animation: 1s linear 0.2875s 1 normal forwards running float-ttb-out-c16db9ff-15fe-44bc-9975-b576169597c5;"><path d="M418.22-33.33L418.22-33.33L418.22-29.92L461.12-29.92L461.12-33.33L461.12-33.33Q461.12-36.30 460.63-38.83L460.63-38.83L460.63-38.83Q460.13-41.36 459.36-43.56L459.36-43.56L451.77-61.49L451.77-61.49Q450.56-64.35 449.24-66.28L449.24-66.28L449.24-66.28Q447.92-68.20 444.84-68.20L444.84-68.20L434.06-68.20L434.06-68.20Q430.76-68.20 429.44-66.28L429.44-66.28L429.44-66.28Q428.12-64.35 427.02-61.60L427.02-61.60L419.98-43.56L419.98-43.56Q419.21-41.36 418.71-38.83L418.71-38.83L418.71-38.83Q418.22-36.30 418.22-33.33zM462.22-9.90L461.12-9.90L461.12-28.82L418.22-28.82L418.22-9.90L417.12-9.90L417.12-33.33L417.12-33.33Q417.12-36.41 417.62-38.99L417.62-38.99L417.62-38.99Q418.11-41.58 418.99-44L418.99-44L426.03-62.04L426.03-62.04Q427.24-65.12 428.78-67.21L428.78-67.21L428.78-67.21Q430.32-69.30 434.06-69.30L434.06-69.30L444.84-69.30L444.84-69.30Q448.47-69.30 449.95-67.21L449.95-67.21L449.95-67.21Q451.44-65.12 452.76-61.93L452.76-61.93L460.35-44L460.35-44Q461.23-41.58 461.72-38.99L461.72-38.99L461.72-38.99Q462.22-36.41 462.22-33.33L462.22-33.33L462.22-9.90" fill="#0055a5" stroke="none" stroke-width="none" transform="translate(-399.9049944281578,21.694209238688146)" style="fill: rgb(69, 174, 231); animation-play-state: running; animation-delay: 0s;"></path></g><g class="path" style="transform: matrix(1, 0, 0, 1, 0, 0); opacity: 1; transform-origin: 115.995px -17.9058px; animation: 1s linear 0.345s 1 normal forwards running float-ttb-out-c16db9ff-15fe-44bc-9975-b576169597c5;"><path d="M516.45-9.90L515.35-9.90L515.35-68.20L492.80-68.20L492.80-69.30L539-69.30L539-68.20L516.45-68.20L516.45-9.90" fill="#0055a5" stroke="none" stroke-width="none" transform="translate(-399.9049944281578,21.694209238688146)" style="fill: rgb(189, 160, 178); animation-play-state: running; animation-delay: 0s;"></path></g><g class="path" style="transform: matrix(1, 0, 0, 1, 0, 0); opacity: 1; transform-origin: 216.865px -17.9058px; animation: 1s linear 0.4025s 1 normal forwards running float-ttb-out-c16db9ff-15fe-44bc-9975-b576169597c5;"><path d="M620.40-31.57L620.40-31.57L597.74-31.57L597.74-9.90L596.64-9.90L596.64-69.30L620.40-69.30L620.40-69.30Q625.57-69.30 628.82-68.14L628.82-68.14L628.82-68.14Q632.06-66.99 633.82-65.01L633.82-65.01L633.82-65.01Q635.58-63.03 636.24-60.28L636.24-60.28L636.24-60.28Q636.90-57.53 636.90-54.34L636.90-54.34L636.90-46.20L636.90-46.20Q636.90-43.01 636.24-40.31L636.24-40.31L636.24-40.31Q635.58-37.62 633.82-35.70L633.82-35.70L633.82-35.70Q632.06-33.77 628.82-32.67L628.82-32.67L628.82-32.67Q625.57-31.57 620.40-31.57zM597.74-68.20L597.74-32.67L620.40-32.67L620.40-32.67Q625.24-32.67 628.26-33.66L628.26-33.66L628.26-33.66Q631.29-34.65 632.94-36.47L632.94-36.47L632.94-36.47Q634.59-38.28 635.20-40.76L635.20-40.76L635.20-40.76Q635.80-43.23 635.80-46.20L635.80-46.20L635.80-54.34L635.80-54.34Q635.80-57.31 635.20-59.84L635.20-59.84L635.20-59.84Q634.59-62.37 632.94-64.24L632.94-64.24L632.94-64.24Q631.29-66.11 628.26-67.16L628.26-67.16L628.26-67.16Q625.24-68.20 620.40-68.20L620.40-68.20L597.74-68.20" fill="#0055a5" stroke="none" stroke-width="none" transform="translate(-399.9049944281578,21.694209238688146)" style="fill: rgb(206, 100, 166); animation-play-state: running; animation-delay: 0s;"></path></g><g class="path" style="transform: matrix(1, 0, 0, 1, 0, 0); opacity: 1; transform-origin: 289.96px -17.9058px; animation: 1s linear 0.46s 1 normal forwards running float-ttb-out-c16db9ff-15fe-44bc-9975-b576169597c5;"><path d="M672.43-11L708.40-11L708.40-9.90L671.33-9.90L671.33-69.30L708.40-69.30L708.40-68.20L672.43-68.20L672.43-40.59L699.49-40.59L699.49-39.49L672.43-39.49L672.43-11" fill="#0055a5" stroke="none" stroke-width="none" transform="translate(-399.9049944281578,21.694209238688146)" style="fill: rgb(0, 85, 165); animation-play-state: running; animation-delay: 0s;"></path></g><g class="path" style="transform: matrix(1, 0, 0, 1, 0, 0); opacity: 1; transform-origin: 359.865px -17.9058px; animation: 1s linear 0.5175s 1 normal forwards running float-ttb-out-c16db9ff-15fe-44bc-9975-b576169597c5;"><path d="M760.32-9.90L759.22-9.90L759.22-68.20L736.67-68.20L736.67-69.30L782.87-69.30L782.87-68.20L760.32-68.20L760.32-9.90" fill="#0055a5" stroke="none" stroke-width="none" transform="translate(-399.9049944281578,21.694209238688146)" style="fill: rgb(69, 174, 231); animation-play-state: running; animation-delay: 0s;"></path></g><g class="path" style="transform: matrix(1, 0, 0, 1, 0, 0); opacity: 1; transform-origin: 419.265px -32.3158px; animation: 1s linear 0.575s 1 normal forwards running float-ttb-out-c16db9ff-15fe-44bc-9975-b576169597c5;"><path d="M818.62-38.72L818.62-69.30L819.72-69.30L819.72-38.72L818.62-38.72" fill="#0055a5" stroke="none" stroke-width="none" transform="translate(-399.9049944281578,21.694209238688146)" style="fill: rgb(189, 160, 178); animation-play-state: running; animation-delay: 0s;"></path></g><g class="path" style="transform: matrix(1, 0, 0, 1, 0, 0); opacity: 1; transform-origin: 419.265px 10.5292px; animation: 1s linear 0.6325s 1 normal forwards running float-ttb-out-c16db9ff-15fe-44bc-9975-b576169597c5;"><path d="M819.72-13.53L819.72-8.80L818.62-8.80L818.62-13.53L819.72-13.53" fill="#0055a5" stroke="none" stroke-width="none" transform="translate(-399.9049944281578,21.694209238688146)" style="fill: rgb(206, 100, 166); animation-play-state: running; animation-delay: 0s;"></path></g></g>
</g>
</g>
<style id="float-ttb-out-c16db9ff-15fe-44bc-9975-b576169597c5" data-anikit="">@keyframes float-ttb-out-c16db9ff-15fe-44bc-9975-b576169597c5
{
  0% {
    animation-timing-function: cubic-bezier(0.2242,0.7499,0.3142,0.8148);
    transform: translate(0px,0px) rotate(0deg) scale(1,1) skewX(0deg) skewY(0deg);
    opacity: 1;
  }
  100% {
    transform: translate(0px,-14.925px) rotate(0deg) scale(1,1) skewX(0deg) skewY(0deg);
    opacity: 0.05;
  }
}</style></svg>