<?xml version="1.0" encoding="utf-8"?>
<svg xmlns="http://www.w3.org/2000/svg" xmlns:xlink="http://www.w3.org/1999/xlink" style="background: rgb(238, 238, 238); display: block; position: relative; shape-rendering: auto;" width="156" height="156" preserveAspectRatio="xMidYMid" viewBox="0 0 156 156"><g transform="scale(0.61)">


<defs><g id="id-0.8458036583988966"><!--Generator: Adobe Illustrator 21.0.0, SVG Export Plug-In . SVG Version: 6.00 Build 0)--><style type="text/css">.st0{fill:#333}.st2,.st26{stroke:#333;fill:#f5e6c8;stroke-width:3.5;stroke-miterlimit:10}.st26{fill:none;stroke-linecap:round;stroke-linejoin:round}</style><path class="st2" d="M84.988,44.003L84.988,44.003c-0.626-18.481-16.447-33.108-35.369-31.761 C33.432,13.394,20.29,26.535,19.138,42.723c-1.347,18.922,13.28,34.771,31.761,35.398l0,0H83.16c6.099,0,10.139-6.349,7.537-11.866 C86.741,57.868,85.148,50.605,84.988,44.003z" data-fill="c1" data-stroke="c2" style="fill: rgb(200, 241, 245); stroke: rgb(51, 51, 51);"></path><path class="st0" d="M37.457,42.308L37.457,42.308c-2.075,0-3.758-1.682-3.758-3.758v-5.57c0-2.075,1.682-3.758,3.758-3.758h0 c2.075,0,3.758,1.682,3.758,3.758v5.57C41.215,40.625,39.533,42.308,37.457,42.308z" data-fill="c2" style="fill: rgb(51, 51, 51);"></path><line class="st26" x1="20.344" y1="55.278" x2="8.5" y2="48.277" data-stroke="c2" style="stroke: rgb(51, 51, 51);"></line><line class="st26" x1="20.344" y1="55.278" x2="8.5" y2="62.278" data-stroke="c2" style="stroke: rgb(51, 51, 51);"></line><line class="st26" x1="52.595" y1="78.121" x2="52.595" y2="87.845" data-stroke="c2" style="stroke: rgb(51, 51, 51);"></line><line class="st26" x1="63.218" y1="78.121" x2="63.218" y2="87.845" data-stroke="c2" style="stroke: rgb(51, 51, 51);"></line><metadata xmlns:d="https://loading.io/stock/"><d:name>bird</d:name><d:tags>bird,tweet,fly,chicken,duck,goose,animal</d:tags><d:license>by</d:license><d:slug>j2gkd6</d:slug></metadata></g></defs>

<!-- Generator: Adobe Illustrator 21.0.0, SVG Export Plug-In . SVG Version: 6.00 Build 0)  -->



















<g data-idx="0" data-dup="" dx="-128" dy="-128" style="transform-origin: -58.5046px 39.4938px; animation: 1s linear 0s infinite normal forwards running beat-c122f136-1314-4b74-a4e0-7c32ffaed374;"><g transform="translate(-128,-128)"><ellipse transform="matrix(0.7249 -0.6888 0.6888 0.7249 -96.2592 93.9447)" fill="#B3B4B4" cx="69.5" cy="167.5" rx="5.5" ry="5.5" data-fill="c3" style="fill: rgb(179, 180, 180);"></ellipse></g></g><g data-idx="0" data-dup="" dx="128" dy="-128" style="transform-origin: 197.495px 39.4938px; animation: 1s linear 0s infinite normal forwards running beat-c122f136-1314-4b74-a4e0-7c32ffaed374;"><g transform="translate(128,-128)"><ellipse transform="matrix(0.7249 -0.6888 0.6888 0.7249 -96.2592 93.9447)" fill="#B3B4B4" cx="69.5" cy="167.5" rx="5.5" ry="5.5" data-fill="c3" style="fill: rgb(179, 180, 180);"></ellipse></g></g><g data-idx="1" data-dup="" dx="-128" dy="-128" style="transform-origin: 111.489px -55.5005px; animation: 1s linear 0s infinite normal forwards running beat-c122f136-1314-4b74-a4e0-7c32ffaed374;"><g transform="translate(-128,-128)"><ellipse transform="matrix(0.7249 -0.6888 0.6888 0.7249 15.9378 184.9119)" fill="#B3B4B4" cx="239.5" cy="72.5" rx="5.5" ry="5.5" data-fill="c3" style="fill: rgb(179, 180, 180);"></ellipse></g></g><g data-idx="1" data-dup="" dx="128" dy="-128" style="transform-origin: 367.489px -55.5005px; animation: 1s linear 0s infinite normal forwards running beat-c122f136-1314-4b74-a4e0-7c32ffaed374;"><g transform="translate(128,-128)"><ellipse transform="matrix(0.7249 -0.6888 0.6888 0.7249 15.9378 184.9119)" fill="#B3B4B4" cx="239.5" cy="72.5" rx="5.5" ry="5.5" data-fill="c3" style="fill: rgb(179, 180, 180);"></ellipse></g></g><g data-idx="2" data-dup="" dx="-128" dy="-128" style="transform-origin: 73.5px -2.5px; animation: 1s linear 0s infinite normal forwards running beat-c122f136-1314-4b74-a4e0-7c32ffaed374;"><g transform="translate(-128,-128)"><g>
	
		<line fill="none" stroke="#B3B4B5" stroke-width="4" stroke-linecap="round" stroke-linejoin="round" stroke-miterlimit="10" x1="194" y1="125.5" x2="209" y2="125.5" data-stroke="c4" style="stroke: rgb(179, 180, 181);"></line>
	
		<line fill="none" stroke="#B3B4B5" stroke-width="4" stroke-linecap="round" stroke-linejoin="round" stroke-miterlimit="10" x1="201.5" y1="133" x2="201.5" y2="118" data-stroke="c4" style="stroke: rgb(179, 180, 181);"></line>
</g></g></g><g data-idx="2" data-dup="" dx="128" dy="-128" style="transform-origin: 329.5px -2.5px; animation: 1s linear 0s infinite normal forwards running beat-c122f136-1314-4b74-a4e0-7c32ffaed374;"><g transform="translate(128,-128)"><g>
	
		<line fill="none" stroke="#B3B4B5" stroke-width="4" stroke-linecap="round" stroke-linejoin="round" stroke-miterlimit="10" x1="194" y1="125.5" x2="209" y2="125.5" data-stroke="c4" style="stroke: rgb(179, 180, 181);"></line>
	
		<line fill="none" stroke="#B3B4B5" stroke-width="4" stroke-linecap="round" stroke-linejoin="round" stroke-miterlimit="10" x1="201.5" y1="133" x2="201.5" y2="118" data-stroke="c4" style="stroke: rgb(179, 180, 181);"></line>
</g></g></g><g data-idx="3" data-dup="" dx="-128" dy="-128" style="transform-origin: 64px 116px; animation: 1s linear 0s infinite normal forwards running beat-c122f136-1314-4b74-a4e0-7c32ffaed374;"><g transform="translate(-128,-128)"><g>
	
		<line fill="none" stroke="#B3B4B5" stroke-width="4" stroke-linecap="round" stroke-linejoin="round" stroke-miterlimit="10" x1="186" y1="244" x2="198" y2="244" data-stroke="c4" style="stroke: rgb(179, 180, 181);"></line>
	
		<line fill="none" stroke="#B3B4B5" stroke-width="4" stroke-linecap="round" stroke-linejoin="round" stroke-miterlimit="10" x1="192" y1="250" x2="192" y2="238" data-stroke="c4" style="stroke: rgb(179, 180, 181);"></line>
</g></g></g><g data-idx="3" data-dup="" dx="128" dy="-128" style="transform-origin: 320px 116px; animation: 1s linear 0s infinite normal forwards running beat-c122f136-1314-4b74-a4e0-7c32ffaed374;"><g transform="translate(128,-128)"><g>
	
		<line fill="none" stroke="#B3B4B5" stroke-width="4" stroke-linecap="round" stroke-linejoin="round" stroke-miterlimit="10" x1="186" y1="244" x2="198" y2="244" data-stroke="c4" style="stroke: rgb(179, 180, 181);"></line>
	
		<line fill="none" stroke="#B3B4B5" stroke-width="4" stroke-linecap="round" stroke-linejoin="round" stroke-miterlimit="10" x1="192" y1="250" x2="192" y2="238" data-stroke="c4" style="stroke: rgb(179, 180, 181);"></line>
</g></g></g><g data-idx="4" data-dup="" dx="-128" dy="-128" style="transform-origin: -107.5px -81.5px; animation: 1s linear 0s infinite normal forwards running beat-c122f136-1314-4b74-a4e0-7c32ffaed374;"><g transform="translate(-128,-128)"><g>
	
		<line fill="none" stroke="#B3B4B5" stroke-width="4" stroke-linecap="round" stroke-linejoin="round" stroke-miterlimit="10" x1="12" y1="46.5" x2="29" y2="46.5" data-stroke="c4" style="stroke: rgb(179, 180, 181);"></line>
	
		<line fill="none" stroke="#B3B4B5" stroke-width="4" stroke-linecap="round" stroke-linejoin="round" stroke-miterlimit="10" x1="20.5" y1="55" x2="20.5" y2="38" data-stroke="c4" style="stroke: rgb(179, 180, 181);"></line>
</g></g></g><g data-idx="4" data-dup="" dx="128" dy="-128" style="transform-origin: 148.5px -81.5px; animation: 1s linear 0s infinite normal forwards running beat-c122f136-1314-4b74-a4e0-7c32ffaed374;"><g transform="translate(128,-128)"><g>
	
		<line fill="none" stroke="#B3B4B5" stroke-width="4" stroke-linecap="round" stroke-linejoin="round" stroke-miterlimit="10" x1="12" y1="46.5" x2="29" y2="46.5" data-stroke="c4" style="stroke: rgb(179, 180, 181);"></line>
	
		<line fill="none" stroke="#B3B4B5" stroke-width="4" stroke-linecap="round" stroke-linejoin="round" stroke-miterlimit="10" x1="20.5" y1="55" x2="20.5" y2="38" data-stroke="c4" style="stroke: rgb(179, 180, 181);"></line>
</g></g></g><g data-idx="5" data-dup="" dx="-128" dy="-128" style="transform-origin: 9.52531px -55.8315px; animation: 1s linear 0s infinite normal forwards running beat-c122f136-1314-4b74-a4e0-7c32ffaed374;"><g transform="translate(-128,-128)"><ellipse transform="matrix(0.4903 -0.8715 0.8715 0.4903 7.2038 156.6452)" fill="#B3B4B4" cx="137.531" cy="72.163" rx="6.525" ry="6.525" data-fill="c3" style="fill: rgb(179, 180, 180);"></ellipse></g></g><g data-idx="5" data-dup="" dx="128" dy="-128" style="transform-origin: 265.525px -55.8315px; animation: 1s linear 0s infinite normal forwards running beat-c122f136-1314-4b74-a4e0-7c32ffaed374;"><g transform="translate(128,-128)"><ellipse transform="matrix(0.4903 -0.8715 0.8715 0.4903 7.2038 156.6452)" fill="#B3B4B4" cx="137.531" cy="72.163" rx="6.525" ry="6.525" data-fill="c3" style="fill: rgb(179, 180, 180);"></ellipse></g></g><g data-idx="6" data-dup="" dx="-128" dy="-128" style="transform-origin: 15.4917px 88.4925px; animation: 1s linear 0s infinite normal forwards running beat-c122f136-1314-4b74-a4e0-7c32ffaed374;"><g transform="translate(-128,-128)"><ellipse transform="matrix(0.7249 -0.6888 0.6888 0.7249 -109.6566 158.3945)" fill="#B3B4B4" cx="143.5" cy="216.5" rx="5.5" ry="5.5" data-fill="c3" style="fill: rgb(179, 180, 180);"></ellipse></g></g><g data-idx="6" data-dup="" dx="128" dy="-128" style="transform-origin: 271.492px 88.4925px; animation: 1s linear 0s infinite normal forwards running beat-c122f136-1314-4b74-a4e0-7c32ffaed374;"><g transform="translate(128,-128)"><ellipse transform="matrix(0.7249 -0.6888 0.6888 0.7249 -109.6566 158.3945)" fill="#B3B4B4" cx="143.5" cy="216.5" rx="5.5" ry="5.5" data-fill="c3" style="fill: rgb(179, 180, 180);"></ellipse></g></g><g data-idx="7" data-dup="" dx="-128" dy="-128" style="transform-origin: -37.0041px -92.0005px; animation: 1s linear 0s infinite normal forwards running beat-c122f136-1314-4b74-a4e0-7c32ffaed374;"><g transform="translate(-128,-128)"><ellipse transform="matrix(0.7249 -0.6888 0.6888 0.7249 0.2332 72.5839)" fill="#B3B4B4" cx="91" cy="36" rx="4" ry="4" data-fill="c3" style="fill: rgb(179, 180, 180);"></ellipse></g></g><g data-idx="7" data-dup="" dx="128" dy="-128" style="transform-origin: 218.996px -92.0005px; animation: 1s linear 0s infinite normal forwards running beat-c122f136-1314-4b74-a4e0-7c32ffaed374;"><g transform="translate(128,-128)"><ellipse transform="matrix(0.7249 -0.6888 0.6888 0.7249 0.2332 72.5839)" fill="#B3B4B4" cx="91" cy="36" rx="4" ry="4" data-fill="c3" style="fill: rgb(179, 180, 180);"></ellipse></g></g><g data-idx="8" data-dup="" dx="-128" dy="-128" style="transform-origin: 120.988px 20.9965px; animation: 1s linear 0s infinite normal forwards running beat-c122f136-1314-4b74-a4e0-7c32ffaed374;"><g transform="translate(-128,-128)"><ellipse transform="matrix(0.7249 -0.6888 0.6888 0.7249 -34.1432 212.4976)" fill="#B3B4B4" cx="249" cy="149" rx="4" ry="4" data-fill="c3" style="fill: rgb(179, 180, 180);"></ellipse></g></g><g data-idx="8" data-dup="" dx="128" dy="-128" style="transform-origin: 376.988px 20.9965px; animation: 1s linear 0s infinite normal forwards running beat-c122f136-1314-4b74-a4e0-7c32ffaed374;"><g transform="translate(128,-128)"><ellipse transform="matrix(0.7249 -0.6888 0.6888 0.7249 -34.1432 212.4976)" fill="#B3B4B4" cx="249" cy="149" rx="4" ry="4" data-fill="c3" style="fill: rgb(179, 180, 180);"></ellipse></g></g><g data-idx="9" data-dup="" dx="-128" dy="-128" style="transform-origin: -121.003px 111.99px; animation: 1s linear 0s infinite normal forwards running beat-c122f136-1314-4b74-a4e0-7c32ffaed374;"><g transform="translate(-128,-128)"><ellipse transform="matrix(0.7249 -0.6888 0.6888 0.7249 -163.3891 70.8358)" fill="#B3B4B4" cx="7" cy="240" rx="4" ry="4" data-fill="c3" style="fill: rgb(179, 180, 180);"></ellipse></g></g><g data-idx="9" data-dup="" dx="128" dy="-128" style="transform-origin: 134.997px 111.99px; animation: 1s linear 0s infinite normal forwards running beat-c122f136-1314-4b74-a4e0-7c32ffaed374;"><g transform="translate(128,-128)"><ellipse transform="matrix(0.7249 -0.6888 0.6888 0.7249 -163.3891 70.8358)" fill="#B3B4B4" cx="7" cy="240" rx="4" ry="4" data-fill="c3" style="fill: rgb(179, 180, 180);"></ellipse></g></g><g data-idx="10" data-dup="" dx="-128" dy="-128" style="transform-origin: 5.00674px 10.9988px; animation: 1s linear 0s infinite normal forwards running beat-c122f136-1314-4b74-a4e0-7c32ffaed374;"><g transform="translate(-128,-128)"><g transform="matrix(0.9912 0.1325 -0.1325 0.9912 19.5946 -16.4002) translate(133,138.9995) scale(0.6222222222222222)"><g data-icon="" transform="scale(0.9)">  <use xlink:href="#id-0.8458036583988966" x="-50" y="-50"></use>
</g></g></g></g><g data-idx="10" data-dup="" dx="128" dy="-128" style="transform-origin: 261.007px 10.9988px; animation: 1s linear 0s infinite normal forwards running beat-c122f136-1314-4b74-a4e0-7c32ffaed374;"><g transform="translate(128,-128)"><g transform="matrix(0.9912 0.1325 -0.1325 0.9912 19.5946 -16.4002) translate(133,138.9995) scale(0.6222222222222222)"><g data-icon="" transform="scale(0.9)">  <use xlink:href="#id-0.8458036583988966" x="-50" y="-50"></use>
</g></g></g></g><g data-idx="11" data-dup="" dx="-128" dy="-128" style="transform-origin: 57.0821px -85.7234px; animation: 1s linear 0s infinite normal forwards running beat-c122f136-1314-4b74-a4e0-7c32ffaed374;"><g transform="translate(-128,-128)"><g transform="matrix(0.8102 -0.5862 0.5862 0.8102 10.3558 116.5189) translate(185.074,42.271) scale(0.3916444444444444)"><g data-icon="" transform="scale(0.9)">  <use xlink:href="#id-0.8458036583988966" x="-50" y="-50"></use>
</g></g></g></g><g data-idx="11" data-dup="" dx="128" dy="-128" style="transform-origin: 313.082px -85.7234px; animation: 1s linear 0s infinite normal forwards running beat-c122f136-1314-4b74-a4e0-7c32ffaed374;"><g transform="translate(128,-128)"><g transform="matrix(0.8102 -0.5862 0.5862 0.8102 10.3558 116.5189) translate(185.074,42.271) scale(0.3916444444444444)"><g data-icon="" transform="scale(0.9)">  <use xlink:href="#id-0.8458036583988966" x="-50" y="-50"></use>
</g></g></g></g><g data-idx="12" data-dup="" dx="-128" dy="-128" style="transform-origin: 96.7126px 65.4147px; animation: 1s linear 0s infinite normal forwards running beat-c122f136-1314-4b74-a4e0-7c32ffaed374;"><g transform="translate(-128,-128)"><g transform="matrix(0.7153 0.6988 -0.6988 0.7153 199.1367 -101.9661) translate(224.712,193.41799999999998) scale(0.3647555555555556)"><g data-icon="" transform="scale(0.9)">  <use xlink:href="#id-0.8458036583988966" x="-50" y="-50"></use>
</g></g></g></g><g data-idx="12" data-dup="" dx="128" dy="-128" style="transform-origin: 352.713px 65.4147px; animation: 1s linear 0s infinite normal forwards running beat-c122f136-1314-4b74-a4e0-7c32ffaed374;"><g transform="translate(128,-128)"><g transform="matrix(0.7153 0.6988 -0.6988 0.7153 199.1367 -101.9661) translate(224.712,193.41799999999998) scale(0.3647555555555556)"><g data-icon="" transform="scale(0.9)">  <use xlink:href="#id-0.8458036583988966" x="-50" y="-50"></use>
</g></g></g></g><g data-idx="13" data-dup="" dx="-128" dy="-128" style="transform-origin: -81.3937px -21.2785px; animation: 1s linear 0s infinite normal forwards running beat-c122f136-1314-4b74-a4e0-7c32ffaed374;"><g transform="translate(-128,-128)"><g transform="matrix(0.7812 0.6242 -0.6242 0.7812 76.8196 -5.7423) translate(46.602000000000004,106.7265) scale(0.3879111111111111)"><g data-icon="" transform="scale(0.9)">  <use xlink:href="#id-0.8458036583988966" x="-50" y="-50"></use>
</g></g></g></g><g data-idx="13" data-dup="" dx="128" dy="-128" style="transform-origin: 174.606px -21.2785px; animation: 1s linear 0s infinite normal forwards running beat-c122f136-1314-4b74-a4e0-7c32ffaed374;"><g transform="translate(128,-128)"><g transform="matrix(0.7812 0.6242 -0.6242 0.7812 76.8196 -5.7423) translate(46.602000000000004,106.7265) scale(0.3879111111111111)"><g data-icon="" transform="scale(0.9)">  <use xlink:href="#id-0.8458036583988966" x="-50" y="-50"></use>
</g></g></g></g><g data-idx="14" data-dup="" dx="-128" dy="-128" style="transform-origin: -58.799px 101.633px; animation: 1s linear 0s infinite normal forwards running beat-c122f136-1314-4b74-a4e0-7c32ffaed374;"><g transform="translate(-128,-128)"><g transform="matrix(0.7381 -0.6747 0.6747 0.7381 -136.8065 106.8361) translate(69.2025,229.6265) scale(0.5011777777777778)"><g data-icon="" transform="scale(0.9)">  <use xlink:href="#id-0.8458036583988966" x="-50" y="-50"></use>
</g></g></g></g><g data-idx="14" data-dup="" dx="128" dy="-128" style="transform-origin: 197.201px 101.633px; animation: 1s linear 0s infinite normal forwards running beat-c122f136-1314-4b74-a4e0-7c32ffaed374;"><g transform="translate(128,-128)"><g transform="matrix(0.7381 -0.6747 0.6747 0.7381 -136.8065 106.8361) translate(69.2025,229.6265) scale(0.5011777777777778)"><g data-icon="" transform="scale(0.9)">  <use xlink:href="#id-0.8458036583988966" x="-50" y="-50"></use>
</g></g></g></g><g data-idx="0" data-dup="" dx="-128" dy="128" style="transform-origin: -58.5046px 295.494px; animation: 1s linear 0s infinite normal forwards running beat-c122f136-1314-4b74-a4e0-7c32ffaed374;"><g transform="translate(-128,128)"><ellipse transform="matrix(0.7249 -0.6888 0.6888 0.7249 -96.2592 93.9447)" fill="#B3B4B4" cx="69.5" cy="167.5" rx="5.5" ry="5.5" data-fill="c3" style="fill: rgb(179, 180, 180);"></ellipse></g></g><g data-idx="0" data-dup="" dx="128" dy="128" style="transform-origin: 197.495px 295.494px; animation: 1s linear 0s infinite normal forwards running beat-c122f136-1314-4b74-a4e0-7c32ffaed374;"><g transform="translate(128,128)"><ellipse transform="matrix(0.7249 -0.6888 0.6888 0.7249 -96.2592 93.9447)" fill="#B3B4B4" cx="69.5" cy="167.5" rx="5.5" ry="5.5" data-fill="c3" style="fill: rgb(179, 180, 180);"></ellipse></g></g><g data-idx="1" data-dup="" dx="-128" dy="128" style="transform-origin: 111.489px 200.5px; animation: 1s linear 0s infinite normal forwards running beat-c122f136-1314-4b74-a4e0-7c32ffaed374;"><g transform="translate(-128,128)"><ellipse transform="matrix(0.7249 -0.6888 0.6888 0.7249 15.9378 184.9119)" fill="#B3B4B4" cx="239.5" cy="72.5" rx="5.5" ry="5.5" data-fill="c3" style="fill: rgb(179, 180, 180);"></ellipse></g></g><g data-idx="1" data-dup="" dx="128" dy="128" style="transform-origin: 367.489px 200.5px; animation: 1s linear 0s infinite normal forwards running beat-c122f136-1314-4b74-a4e0-7c32ffaed374;"><g transform="translate(128,128)"><ellipse transform="matrix(0.7249 -0.6888 0.6888 0.7249 15.9378 184.9119)" fill="#B3B4B4" cx="239.5" cy="72.5" rx="5.5" ry="5.5" data-fill="c3" style="fill: rgb(179, 180, 180);"></ellipse></g></g><g data-idx="2" data-dup="" dx="-128" dy="128" style="transform-origin: 73.5px 253.5px; animation: 1s linear 0s infinite normal forwards running beat-c122f136-1314-4b74-a4e0-7c32ffaed374;"><g transform="translate(-128,128)"><g>
	
		<line fill="none" stroke="#B3B4B5" stroke-width="4" stroke-linecap="round" stroke-linejoin="round" stroke-miterlimit="10" x1="194" y1="125.5" x2="209" y2="125.5" data-stroke="c4" style="stroke: rgb(179, 180, 181);"></line>
	
		<line fill="none" stroke="#B3B4B5" stroke-width="4" stroke-linecap="round" stroke-linejoin="round" stroke-miterlimit="10" x1="201.5" y1="133" x2="201.5" y2="118" data-stroke="c4" style="stroke: rgb(179, 180, 181);"></line>
</g></g></g><g data-idx="2" data-dup="" dx="128" dy="128" style="transform-origin: 329.5px 253.5px; animation: 1s linear 0s infinite normal forwards running beat-c122f136-1314-4b74-a4e0-7c32ffaed374;"><g transform="translate(128,128)"><g>
	
		<line fill="none" stroke="#B3B4B5" stroke-width="4" stroke-linecap="round" stroke-linejoin="round" stroke-miterlimit="10" x1="194" y1="125.5" x2="209" y2="125.5" data-stroke="c4" style="stroke: rgb(179, 180, 181);"></line>
	
		<line fill="none" stroke="#B3B4B5" stroke-width="4" stroke-linecap="round" stroke-linejoin="round" stroke-miterlimit="10" x1="201.5" y1="133" x2="201.5" y2="118" data-stroke="c4" style="stroke: rgb(179, 180, 181);"></line>
</g></g></g><g data-idx="3" data-dup="" dx="-128" dy="128" style="transform-origin: 64px 372px; animation: 1s linear 0s infinite normal forwards running beat-c122f136-1314-4b74-a4e0-7c32ffaed374;"><g transform="translate(-128,128)"><g>
	
		<line fill="none" stroke="#B3B4B5" stroke-width="4" stroke-linecap="round" stroke-linejoin="round" stroke-miterlimit="10" x1="186" y1="244" x2="198" y2="244" data-stroke="c4" style="stroke: rgb(179, 180, 181);"></line>
	
		<line fill="none" stroke="#B3B4B5" stroke-width="4" stroke-linecap="round" stroke-linejoin="round" stroke-miterlimit="10" x1="192" y1="250" x2="192" y2="238" data-stroke="c4" style="stroke: rgb(179, 180, 181);"></line>
</g></g></g><g data-idx="3" data-dup="" dx="128" dy="128" style="transform-origin: 320px 372px; animation: 1s linear 0s infinite normal forwards running beat-c122f136-1314-4b74-a4e0-7c32ffaed374;"><g transform="translate(128,128)"><g>
	
		<line fill="none" stroke="#B3B4B5" stroke-width="4" stroke-linecap="round" stroke-linejoin="round" stroke-miterlimit="10" x1="186" y1="244" x2="198" y2="244" data-stroke="c4" style="stroke: rgb(179, 180, 181);"></line>
	
		<line fill="none" stroke="#B3B4B5" stroke-width="4" stroke-linecap="round" stroke-linejoin="round" stroke-miterlimit="10" x1="192" y1="250" x2="192" y2="238" data-stroke="c4" style="stroke: rgb(179, 180, 181);"></line>
</g></g></g><g data-idx="4" data-dup="" dx="-128" dy="128" style="transform-origin: -107.5px 174.5px; animation: 1s linear 0s infinite normal forwards running beat-c122f136-1314-4b74-a4e0-7c32ffaed374;"><g transform="translate(-128,128)"><g>
	
		<line fill="none" stroke="#B3B4B5" stroke-width="4" stroke-linecap="round" stroke-linejoin="round" stroke-miterlimit="10" x1="12" y1="46.5" x2="29" y2="46.5" data-stroke="c4" style="stroke: rgb(179, 180, 181);"></line>
	
		<line fill="none" stroke="#B3B4B5" stroke-width="4" stroke-linecap="round" stroke-linejoin="round" stroke-miterlimit="10" x1="20.5" y1="55" x2="20.5" y2="38" data-stroke="c4" style="stroke: rgb(179, 180, 181);"></line>
</g></g></g><g data-idx="4" data-dup="" dx="128" dy="128" style="transform-origin: 148.5px 174.5px; animation: 1s linear 0s infinite normal forwards running beat-c122f136-1314-4b74-a4e0-7c32ffaed374;"><g transform="translate(128,128)"><g>
	
		<line fill="none" stroke="#B3B4B5" stroke-width="4" stroke-linecap="round" stroke-linejoin="round" stroke-miterlimit="10" x1="12" y1="46.5" x2="29" y2="46.5" data-stroke="c4" style="stroke: rgb(179, 180, 181);"></line>
	
		<line fill="none" stroke="#B3B4B5" stroke-width="4" stroke-linecap="round" stroke-linejoin="round" stroke-miterlimit="10" x1="20.5" y1="55" x2="20.5" y2="38" data-stroke="c4" style="stroke: rgb(179, 180, 181);"></line>
</g></g></g><g data-idx="5" data-dup="" dx="-128" dy="128" style="transform-origin: 9.52531px 200.168px; animation: 1s linear 0s infinite normal forwards running beat-c122f136-1314-4b74-a4e0-7c32ffaed374;"><g transform="translate(-128,128)"><ellipse transform="matrix(0.4903 -0.8715 0.8715 0.4903 7.2038 156.6452)" fill="#B3B4B4" cx="137.531" cy="72.163" rx="6.525" ry="6.525" data-fill="c3" style="fill: rgb(179, 180, 180);"></ellipse></g></g><g data-idx="5" data-dup="" dx="128" dy="128" style="transform-origin: 265.525px 200.168px; animation: 1s linear 0s infinite normal forwards running beat-c122f136-1314-4b74-a4e0-7c32ffaed374;"><g transform="translate(128,128)"><ellipse transform="matrix(0.4903 -0.8715 0.8715 0.4903 7.2038 156.6452)" fill="#B3B4B4" cx="137.531" cy="72.163" rx="6.525" ry="6.525" data-fill="c3" style="fill: rgb(179, 180, 180);"></ellipse></g></g><g data-idx="6" data-dup="" dx="-128" dy="128" style="transform-origin: 15.4917px 344.493px; animation: 1s linear 0s infinite normal forwards running beat-c122f136-1314-4b74-a4e0-7c32ffaed374;"><g transform="translate(-128,128)"><ellipse transform="matrix(0.7249 -0.6888 0.6888 0.7249 -109.6566 158.3945)" fill="#B3B4B4" cx="143.5" cy="216.5" rx="5.5" ry="5.5" data-fill="c3" style="fill: rgb(179, 180, 180);"></ellipse></g></g><g data-idx="6" data-dup="" dx="128" dy="128" style="transform-origin: 271.492px 344.493px; animation: 1s linear 0s infinite normal forwards running beat-c122f136-1314-4b74-a4e0-7c32ffaed374;"><g transform="translate(128,128)"><ellipse transform="matrix(0.7249 -0.6888 0.6888 0.7249 -109.6566 158.3945)" fill="#B3B4B4" cx="143.5" cy="216.5" rx="5.5" ry="5.5" data-fill="c3" style="fill: rgb(179, 180, 180);"></ellipse></g></g><g data-idx="7" data-dup="" dx="-128" dy="128" style="transform-origin: -37.0041px 163.999px; animation: 1s linear 0s infinite normal forwards running beat-c122f136-1314-4b74-a4e0-7c32ffaed374;"><g transform="translate(-128,128)"><ellipse transform="matrix(0.7249 -0.6888 0.6888 0.7249 0.2332 72.5839)" fill="#B3B4B4" cx="91" cy="36" rx="4" ry="4" data-fill="c3" style="fill: rgb(179, 180, 180);"></ellipse></g></g><g data-idx="7" data-dup="" dx="128" dy="128" style="transform-origin: 218.996px 163.999px; animation: 1s linear 0s infinite normal forwards running beat-c122f136-1314-4b74-a4e0-7c32ffaed374;"><g transform="translate(128,128)"><ellipse transform="matrix(0.7249 -0.6888 0.6888 0.7249 0.2332 72.5839)" fill="#B3B4B4" cx="91" cy="36" rx="4" ry="4" data-fill="c3" style="fill: rgb(179, 180, 180);"></ellipse></g></g><g data-idx="8" data-dup="" dx="-128" dy="128" style="transform-origin: 120.988px 276.996px; animation: 1s linear 0s infinite normal forwards running beat-c122f136-1314-4b74-a4e0-7c32ffaed374;"><g transform="translate(-128,128)"><ellipse transform="matrix(0.7249 -0.6888 0.6888 0.7249 -34.1432 212.4976)" fill="#B3B4B4" cx="249" cy="149" rx="4" ry="4" data-fill="c3" style="fill: rgb(179, 180, 180);"></ellipse></g></g><g data-idx="8" data-dup="" dx="128" dy="128" style="transform-origin: 376.988px 276.996px; animation: 1s linear 0s infinite normal forwards running beat-c122f136-1314-4b74-a4e0-7c32ffaed374;"><g transform="translate(128,128)"><ellipse transform="matrix(0.7249 -0.6888 0.6888 0.7249 -34.1432 212.4976)" fill="#B3B4B4" cx="249" cy="149" rx="4" ry="4" data-fill="c3" style="fill: rgb(179, 180, 180);"></ellipse></g></g><g data-idx="9" data-dup="" dx="-128" dy="128" style="transform-origin: -121.003px 367.99px; animation: 1s linear 0s infinite normal forwards running beat-c122f136-1314-4b74-a4e0-7c32ffaed374;"><g transform="translate(-128,128)"><ellipse transform="matrix(0.7249 -0.6888 0.6888 0.7249 -163.3891 70.8358)" fill="#B3B4B4" cx="7" cy="240" rx="4" ry="4" data-fill="c3" style="fill: rgb(179, 180, 180);"></ellipse></g></g><g data-idx="9" data-dup="" dx="128" dy="128" style="transform-origin: 134.997px 367.99px; animation: 1s linear 0s infinite normal forwards running beat-c122f136-1314-4b74-a4e0-7c32ffaed374;"><g transform="translate(128,128)"><ellipse transform="matrix(0.7249 -0.6888 0.6888 0.7249 -163.3891 70.8358)" fill="#B3B4B4" cx="7" cy="240" rx="4" ry="4" data-fill="c3" style="fill: rgb(179, 180, 180);"></ellipse></g></g><g data-idx="10" data-dup="" dx="-128" dy="128" style="transform-origin: 5.00674px 266.999px; animation: 1s linear 0s infinite normal forwards running beat-c122f136-1314-4b74-a4e0-7c32ffaed374;"><g transform="translate(-128,128)"><g transform="matrix(0.9912 0.1325 -0.1325 0.9912 19.5946 -16.4002) translate(133,138.9995) scale(0.6222222222222222)"><g data-icon="" transform="scale(0.9)">  <use xlink:href="#id-0.8458036583988966" x="-50" y="-50"></use>
</g></g></g></g><g data-idx="10" data-dup="" dx="128" dy="128" style="transform-origin: 261.007px 266.999px; animation: 1s linear 0s infinite normal forwards running beat-c122f136-1314-4b74-a4e0-7c32ffaed374;"><g transform="translate(128,128)"><g transform="matrix(0.9912 0.1325 -0.1325 0.9912 19.5946 -16.4002) translate(133,138.9995) scale(0.6222222222222222)"><g data-icon="" transform="scale(0.9)">  <use xlink:href="#id-0.8458036583988966" x="-50" y="-50"></use>
</g></g></g></g><g data-idx="11" data-dup="" dx="-128" dy="128" style="transform-origin: 57.0821px 170.277px; animation: 1s linear 0s infinite normal forwards running beat-c122f136-1314-4b74-a4e0-7c32ffaed374;"><g transform="translate(-128,128)"><g transform="matrix(0.8102 -0.5862 0.5862 0.8102 10.3558 116.5189) translate(185.074,42.271) scale(0.3916444444444444)"><g data-icon="" transform="scale(0.9)">  <use xlink:href="#id-0.8458036583988966" x="-50" y="-50"></use>
</g></g></g></g><g data-idx="11" data-dup="" dx="128" dy="128" style="transform-origin: 313.082px 170.277px; animation: 1s linear 0s infinite normal forwards running beat-c122f136-1314-4b74-a4e0-7c32ffaed374;"><g transform="translate(128,128)"><g transform="matrix(0.8102 -0.5862 0.5862 0.8102 10.3558 116.5189) translate(185.074,42.271) scale(0.3916444444444444)"><g data-icon="" transform="scale(0.9)">  <use xlink:href="#id-0.8458036583988966" x="-50" y="-50"></use>
</g></g></g></g><g data-idx="12" data-dup="" dx="-128" dy="128" style="transform-origin: 96.7126px 321.415px; animation: 1s linear 0s infinite normal forwards running beat-c122f136-1314-4b74-a4e0-7c32ffaed374;"><g transform="translate(-128,128)"><g transform="matrix(0.7153 0.6988 -0.6988 0.7153 199.1367 -101.9661) translate(224.712,193.41799999999998) scale(0.3647555555555556)"><g data-icon="" transform="scale(0.9)">  <use xlink:href="#id-0.8458036583988966" x="-50" y="-50"></use>
</g></g></g></g><g data-idx="12" data-dup="" dx="128" dy="128" style="transform-origin: 352.713px 321.415px; animation: 1s linear 0s infinite normal forwards running beat-c122f136-1314-4b74-a4e0-7c32ffaed374;"><g transform="translate(128,128)"><g transform="matrix(0.7153 0.6988 -0.6988 0.7153 199.1367 -101.9661) translate(224.712,193.41799999999998) scale(0.3647555555555556)"><g data-icon="" transform="scale(0.9)">  <use xlink:href="#id-0.8458036583988966" x="-50" y="-50"></use>
</g></g></g></g><g data-idx="13" data-dup="" dx="-128" dy="128" style="transform-origin: -81.3937px 234.722px; animation: 1s linear 0s infinite normal forwards running beat-c122f136-1314-4b74-a4e0-7c32ffaed374;"><g transform="translate(-128,128)"><g transform="matrix(0.7812 0.6242 -0.6242 0.7812 76.8196 -5.7423) translate(46.602000000000004,106.7265) scale(0.3879111111111111)"><g data-icon="" transform="scale(0.9)">  <use xlink:href="#id-0.8458036583988966" x="-50" y="-50"></use>
</g></g></g></g><g data-idx="13" data-dup="" dx="128" dy="128" style="transform-origin: 174.606px 234.722px; animation: 1s linear 0s infinite normal forwards running beat-c122f136-1314-4b74-a4e0-7c32ffaed374;"><g transform="translate(128,128)"><g transform="matrix(0.7812 0.6242 -0.6242 0.7812 76.8196 -5.7423) translate(46.602000000000004,106.7265) scale(0.3879111111111111)"><g data-icon="" transform="scale(0.9)">  <use xlink:href="#id-0.8458036583988966" x="-50" y="-50"></use>
</g></g></g></g><g data-idx="14" data-dup="" dx="-128" dy="128" style="transform-origin: -58.799px 357.633px; animation: 1s linear 0s infinite normal forwards running beat-c122f136-1314-4b74-a4e0-7c32ffaed374;"><g transform="translate(-128,128)"><g transform="matrix(0.7381 -0.6747 0.6747 0.7381 -136.8065 106.8361) translate(69.2025,229.6265) scale(0.5011777777777778)"><g data-icon="" transform="scale(0.9)">  <use xlink:href="#id-0.8458036583988966" x="-50" y="-50"></use>
</g></g></g></g><g data-idx="14" data-dup="" dx="128" dy="128" style="transform-origin: 197.201px 357.633px; animation: 1s linear 0s infinite normal forwards running beat-c122f136-1314-4b74-a4e0-7c32ffaed374;"><g transform="translate(128,128)"><g transform="matrix(0.7381 -0.6747 0.6747 0.7381 -136.8065 106.8361) translate(69.2025,229.6265) scale(0.5011777777777778)"><g data-icon="" transform="scale(0.9)">  <use xlink:href="#id-0.8458036583988966" x="-50" y="-50"></use>
</g></g></g></g></g><style id="beat-c122f136-1314-4b74-a4e0-7c32ffaed374" data-anikit="">@keyframes beat-c122f136-1314-4b74-a4e0-7c32ffaed374
{
  0% {
    animation-timing-function: cubic-bezier(0.1028,0.2484,0.1372,0.849);
    transform: scale(1);
  }
  34% {
    animation-timing-function: cubic-bezier(0.7116,0.2095,0.8159,0.6876);
    transform: scale(1.2);
  }
  68% {
    animation-timing-function: cubic-bezier(0.1475,0.2888,0.294,0.883);
    transform: scale(1.0268);
  }
  84% {
    animation-timing-function: cubic-bezier(0.8176,0.2193,0.867,0.6889);
    transform: scale(1.0932);
  }
  100% {
    transform: scale(1);
  }
}</style></svg>