<?xml version="1.0" encoding="utf-8"?>
<svg xmlns="http://www.w3.org/2000/svg" xmlns:xlink="http://www.w3.org/1999/xlink" style="background: rgb(238, 238, 238); display: block; position: relative; shape-rendering: auto;" width="140" height="140" preserveAspectRatio="xMidYMid" viewBox="0 0 140 140"><g transform="scale(0.55)">


<defs><g id="id-0.5650258676570377"><!--Generator: Adobe Illustrator 21.0.0, SVG Export Plug-In . SVG Version: 6.00 Build 0)--><style type="text/css">.st23{fill:#333}.st24{fill:#fff}.st58{stroke-miterlimit:10;stroke-linecap:round;fill:none;stroke:#fff;stroke-width:3}</style><circle class="st23" cx="50" cy="50" r="40" data-fill="c1" style="fill: rgb(51, 51, 51);"></circle><path class="st58" d="M48.118,66.15c1.499-0.851,3.395-0.966,4.986-0.302c2.051,0.856,3.546,2.884,5.724,3.328 c2.507,0.511,4.939-1.313,6.352-3.447c2.502-3.778,2.931-8.606,2.317-13.095c-0.204-1.492-0.536-3.021-1.426-4.236 c-0.889-1.215-2.464-2.038-3.917-1.644c-1.453,0.395-2.406,2.298-1.547,3.535" data-stroke="c2" style="stroke: rgb(255, 255, 255);"></path><path class="st24" d="M46.62,34.526l-4.898,1.514c-0.45,0.139-0.909-0.187-0.926-0.658l-0.28-7.662 c-0.025-0.684,0.951-0.986,1.406-0.435l5.039,6.101C47.285,33.78,47.107,34.376,46.62,34.526z" data-fill="c2" style="fill: rgb(255, 255, 255);"></path><path class="st24" d="M49.621,34.526l4.898,1.514c0.45,0.139,0.909-0.187,0.926-0.658l0.28-7.662 c0.025-0.684-0.951-0.986-1.406-0.435l-5.039,6.101C48.956,33.78,49.134,34.376,49.621,34.526z" data-fill="c2" style="fill: rgb(255, 255, 255);"></path><path class="st24" d="M57.987,61.734C57.987,73.122,53.569,73,48.121,73s-9.866,0.122-9.866-11.266 c0-8.928,4.417-18.706,9.866-18.706S57.987,52.806,57.987,61.734z" data-fill="c2" style="fill: rgb(255, 255, 255);"></path><ellipse class="st24" cx="48.121" cy="38.139" rx="8.29" ry="7.44" data-fill="c2" style="fill: rgb(255, 255, 255);"></ellipse><metadata xmlns:d="https://loading.io/stock/"><d:name>cat</d:name><d:tags>cat,kitty,puss,feline,felid,felidae,animal,blackcat,witch</d:tags><d:license>by</d:license><d:slug>zcjpzf</d:slug></metadata></g></defs>

<!-- Generator: Adobe Illustrator 21.0.0, SVG Export Plug-In . SVG Version: 6.00 Build 0)  -->



















<g data-idx="0" data-dup="" dx="-128" dy="-128" style="transform-origin: -58.5046px 39.4938px; animation: 5.88235s linear 0s infinite normal forwards running jelly-042b8026-16d0-46ee-9536-092a08996c7d;"><g transform="translate(-128,-128)"><ellipse transform="matrix(0.7249 -0.6888 0.6888 0.7249 -96.2592 93.9447)" fill="#B3B4B4" cx="69.5" cy="167.5" rx="5.5" ry="5.5" data-fill="c3" style="fill: rgb(179, 180, 180);"></ellipse></g></g><g data-idx="0" data-dup="" dx="128" dy="-128" style="transform-origin: 197.495px 39.4938px; animation: 5.88235s linear 0s infinite normal forwards running jelly-042b8026-16d0-46ee-9536-092a08996c7d;"><g transform="translate(128,-128)"><ellipse transform="matrix(0.7249 -0.6888 0.6888 0.7249 -96.2592 93.9447)" fill="#B3B4B4" cx="69.5" cy="167.5" rx="5.5" ry="5.5" data-fill="c3" style="fill: rgb(179, 180, 180);"></ellipse></g></g><g data-idx="1" data-dup="" dx="-128" dy="-128" style="transform-origin: 111.489px -55.5005px; animation: 5.88235s linear 0s infinite normal forwards running jelly-042b8026-16d0-46ee-9536-092a08996c7d;"><g transform="translate(-128,-128)"><ellipse transform="matrix(0.7249 -0.6888 0.6888 0.7249 15.9378 184.9119)" fill="#B3B4B4" cx="239.5" cy="72.5" rx="5.5" ry="5.5" data-fill="c3" style="fill: rgb(179, 180, 180);"></ellipse></g></g><g data-idx="1" data-dup="" dx="128" dy="-128" style="transform-origin: 367.489px -55.5005px; animation: 5.88235s linear 0s infinite normal forwards running jelly-042b8026-16d0-46ee-9536-092a08996c7d;"><g transform="translate(128,-128)"><ellipse transform="matrix(0.7249 -0.6888 0.6888 0.7249 15.9378 184.9119)" fill="#B3B4B4" cx="239.5" cy="72.5" rx="5.5" ry="5.5" data-fill="c3" style="fill: rgb(179, 180, 180);"></ellipse></g></g><g data-idx="2" data-dup="" dx="-128" dy="-128" style="transform-origin: 73.5px -2.5px; animation: 5.88235s linear 0s infinite normal forwards running jelly-042b8026-16d0-46ee-9536-092a08996c7d;"><g transform="translate(-128,-128)"><g>
	
		<line fill="none" stroke="#B3B4B5" stroke-width="4" stroke-linecap="round" stroke-linejoin="round" stroke-miterlimit="10" x1="194" y1="125.5" x2="209" y2="125.5" data-stroke="c4" style="stroke: rgb(126, 207, 233);"></line>
	
		<line fill="none" stroke="#B3B4B5" stroke-width="4" stroke-linecap="round" stroke-linejoin="round" stroke-miterlimit="10" x1="201.5" y1="133" x2="201.5" y2="118" data-stroke="c4" style="stroke: rgb(126, 207, 233);"></line>
</g></g></g><g data-idx="2" data-dup="" dx="128" dy="-128" style="transform-origin: 329.5px -2.5px; animation: 5.88235s linear 0s infinite normal forwards running jelly-042b8026-16d0-46ee-9536-092a08996c7d;"><g transform="translate(128,-128)"><g>
	
		<line fill="none" stroke="#B3B4B5" stroke-width="4" stroke-linecap="round" stroke-linejoin="round" stroke-miterlimit="10" x1="194" y1="125.5" x2="209" y2="125.5" data-stroke="c4" style="stroke: rgb(126, 207, 233);"></line>
	
		<line fill="none" stroke="#B3B4B5" stroke-width="4" stroke-linecap="round" stroke-linejoin="round" stroke-miterlimit="10" x1="201.5" y1="133" x2="201.5" y2="118" data-stroke="c4" style="stroke: rgb(126, 207, 233);"></line>
</g></g></g><g data-idx="3" data-dup="" dx="-128" dy="-128" style="transform-origin: 64px 116px; animation: 5.88235s linear 0s infinite normal forwards running jelly-042b8026-16d0-46ee-9536-092a08996c7d;"><g transform="translate(-128,-128)"><g>
	
		<line fill="none" stroke="#B3B4B5" stroke-width="4" stroke-linecap="round" stroke-linejoin="round" stroke-miterlimit="10" x1="186" y1="244" x2="198" y2="244" data-stroke="c4" style="stroke: rgb(126, 207, 233);"></line>
	
		<line fill="none" stroke="#B3B4B5" stroke-width="4" stroke-linecap="round" stroke-linejoin="round" stroke-miterlimit="10" x1="192" y1="250" x2="192" y2="238" data-stroke="c4" style="stroke: rgb(126, 207, 233);"></line>
</g></g></g><g data-idx="3" data-dup="" dx="128" dy="-128" style="transform-origin: 320px 116px; animation: 5.88235s linear 0s infinite normal forwards running jelly-042b8026-16d0-46ee-9536-092a08996c7d;"><g transform="translate(128,-128)"><g>
	
		<line fill="none" stroke="#B3B4B5" stroke-width="4" stroke-linecap="round" stroke-linejoin="round" stroke-miterlimit="10" x1="186" y1="244" x2="198" y2="244" data-stroke="c4" style="stroke: rgb(126, 207, 233);"></line>
	
		<line fill="none" stroke="#B3B4B5" stroke-width="4" stroke-linecap="round" stroke-linejoin="round" stroke-miterlimit="10" x1="192" y1="250" x2="192" y2="238" data-stroke="c4" style="stroke: rgb(126, 207, 233);"></line>
</g></g></g><g data-idx="4" data-dup="" dx="-128" dy="-128" style="transform-origin: -107.5px -81.5px; animation: 5.88235s linear 0s infinite normal forwards running jelly-042b8026-16d0-46ee-9536-092a08996c7d;"><g transform="translate(-128,-128)"><g>
	
		<line fill="none" stroke="#B3B4B5" stroke-width="4" stroke-linecap="round" stroke-linejoin="round" stroke-miterlimit="10" x1="12" y1="46.5" x2="29" y2="46.5" data-stroke="c4" style="stroke: rgb(126, 207, 233);"></line>
	
		<line fill="none" stroke="#B3B4B5" stroke-width="4" stroke-linecap="round" stroke-linejoin="round" stroke-miterlimit="10" x1="20.5" y1="55" x2="20.5" y2="38" data-stroke="c4" style="stroke: rgb(126, 207, 233);"></line>
</g></g></g><g data-idx="4" data-dup="" dx="128" dy="-128" style="transform-origin: 148.5px -81.5px; animation: 5.88235s linear 0s infinite normal forwards running jelly-042b8026-16d0-46ee-9536-092a08996c7d;"><g transform="translate(128,-128)"><g>
	
		<line fill="none" stroke="#B3B4B5" stroke-width="4" stroke-linecap="round" stroke-linejoin="round" stroke-miterlimit="10" x1="12" y1="46.5" x2="29" y2="46.5" data-stroke="c4" style="stroke: rgb(126, 207, 233);"></line>
	
		<line fill="none" stroke="#B3B4B5" stroke-width="4" stroke-linecap="round" stroke-linejoin="round" stroke-miterlimit="10" x1="20.5" y1="55" x2="20.5" y2="38" data-stroke="c4" style="stroke: rgb(126, 207, 233);"></line>
</g></g></g><g data-idx="5" data-dup="" dx="-128" dy="-128" style="transform-origin: 9.52531px -55.8315px; animation: 5.88235s linear 0s infinite normal forwards running jelly-042b8026-16d0-46ee-9536-092a08996c7d;"><g transform="translate(-128,-128)"><ellipse transform="matrix(0.4903 -0.8715 0.8715 0.4903 7.2038 156.6452)" fill="#B3B4B4" cx="137.531" cy="72.163" rx="6.525" ry="6.525" data-fill="c3" style="fill: rgb(179, 180, 180);"></ellipse></g></g><g data-idx="5" data-dup="" dx="128" dy="-128" style="transform-origin: 265.525px -55.8315px; animation: 5.88235s linear 0s infinite normal forwards running jelly-042b8026-16d0-46ee-9536-092a08996c7d;"><g transform="translate(128,-128)"><ellipse transform="matrix(0.4903 -0.8715 0.8715 0.4903 7.2038 156.6452)" fill="#B3B4B4" cx="137.531" cy="72.163" rx="6.525" ry="6.525" data-fill="c3" style="fill: rgb(179, 180, 180);"></ellipse></g></g><g data-idx="6" data-dup="" dx="-128" dy="-128" style="transform-origin: 15.4917px 88.4925px; animation: 5.88235s linear 0s infinite normal forwards running jelly-042b8026-16d0-46ee-9536-092a08996c7d;"><g transform="translate(-128,-128)"><ellipse transform="matrix(0.7249 -0.6888 0.6888 0.7249 -109.6566 158.3945)" fill="#B3B4B4" cx="143.5" cy="216.5" rx="5.5" ry="5.5" data-fill="c3" style="fill: rgb(179, 180, 180);"></ellipse></g></g><g data-idx="6" data-dup="" dx="128" dy="-128" style="transform-origin: 271.492px 88.4925px; animation: 5.88235s linear 0s infinite normal forwards running jelly-042b8026-16d0-46ee-9536-092a08996c7d;"><g transform="translate(128,-128)"><ellipse transform="matrix(0.7249 -0.6888 0.6888 0.7249 -109.6566 158.3945)" fill="#B3B4B4" cx="143.5" cy="216.5" rx="5.5" ry="5.5" data-fill="c3" style="fill: rgb(179, 180, 180);"></ellipse></g></g><g data-idx="7" data-dup="" dx="-128" dy="-128" style="transform-origin: -37.0041px -92.0005px; animation: 5.88235s linear 0s infinite normal forwards running jelly-042b8026-16d0-46ee-9536-092a08996c7d;"><g transform="translate(-128,-128)"><ellipse transform="matrix(0.7249 -0.6888 0.6888 0.7249 0.2332 72.5839)" fill="#B3B4B4" cx="91" cy="36" rx="4" ry="4" data-fill="c3" style="fill: rgb(179, 180, 180);"></ellipse></g></g><g data-idx="7" data-dup="" dx="128" dy="-128" style="transform-origin: 218.996px -92.0005px; animation: 5.88235s linear 0s infinite normal forwards running jelly-042b8026-16d0-46ee-9536-092a08996c7d;"><g transform="translate(128,-128)"><ellipse transform="matrix(0.7249 -0.6888 0.6888 0.7249 0.2332 72.5839)" fill="#B3B4B4" cx="91" cy="36" rx="4" ry="4" data-fill="c3" style="fill: rgb(179, 180, 180);"></ellipse></g></g><g data-idx="8" data-dup="" dx="-128" dy="-128" style="transform-origin: 120.988px 20.9965px; animation: 5.88235s linear 0s infinite normal forwards running jelly-042b8026-16d0-46ee-9536-092a08996c7d;"><g transform="translate(-128,-128)"><ellipse transform="matrix(0.7249 -0.6888 0.6888 0.7249 -34.1432 212.4976)" fill="#B3B4B4" cx="249" cy="149" rx="4" ry="4" data-fill="c3" style="fill: rgb(179, 180, 180);"></ellipse></g></g><g data-idx="8" data-dup="" dx="128" dy="-128" style="transform-origin: 376.988px 20.9965px; animation: 5.88235s linear 0s infinite normal forwards running jelly-042b8026-16d0-46ee-9536-092a08996c7d;"><g transform="translate(128,-128)"><ellipse transform="matrix(0.7249 -0.6888 0.6888 0.7249 -34.1432 212.4976)" fill="#B3B4B4" cx="249" cy="149" rx="4" ry="4" data-fill="c3" style="fill: rgb(179, 180, 180);"></ellipse></g></g><g data-idx="9" data-dup="" dx="-128" dy="-128" style="transform-origin: -121.003px 111.99px; animation: 5.88235s linear 0s infinite normal forwards running jelly-042b8026-16d0-46ee-9536-092a08996c7d;"><g transform="translate(-128,-128)"><ellipse transform="matrix(0.7249 -0.6888 0.6888 0.7249 -163.3891 70.8358)" fill="#B3B4B4" cx="7" cy="240" rx="4" ry="4" data-fill="c3" style="fill: rgb(179, 180, 180);"></ellipse></g></g><g data-idx="9" data-dup="" dx="128" dy="-128" style="transform-origin: 134.997px 111.99px; animation: 5.88235s linear 0s infinite normal forwards running jelly-042b8026-16d0-46ee-9536-092a08996c7d;"><g transform="translate(128,-128)"><ellipse transform="matrix(0.7249 -0.6888 0.6888 0.7249 -163.3891 70.8358)" fill="#B3B4B4" cx="7" cy="240" rx="4" ry="4" data-fill="c3" style="fill: rgb(179, 180, 180);"></ellipse></g></g><g data-idx="10" data-dup="" dx="-128" dy="-128" style="transform-origin: 5.00677px 10.9986px; animation: 5.88235s linear 0s infinite normal forwards running jelly-042b8026-16d0-46ee-9536-092a08996c7d;"><g transform="translate(-128,-128)"><g transform="matrix(0.9912 0.1325 -0.1325 0.9912 19.5946 -16.4002) translate(133,138.9995) scale(0.6222222222222222)"><g data-icon="" transform="scale(0.89)">  <use xlink:href="#id-0.5650258676570377" x="-50" y="-50"></use>
</g></g></g></g><g data-idx="10" data-dup="" dx="128" dy="-128" style="transform-origin: 261.007px 10.9986px; animation: 5.88235s linear 0s infinite normal forwards running jelly-042b8026-16d0-46ee-9536-092a08996c7d;"><g transform="translate(128,-128)"><g transform="matrix(0.9912 0.1325 -0.1325 0.9912 19.5946 -16.4002) translate(133,138.9995) scale(0.6222222222222222)"><g data-icon="" transform="scale(0.89)">  <use xlink:href="#id-0.5650258676570377" x="-50" y="-50"></use>
</g></g></g></g><g data-idx="11" data-dup="" dx="-128" dy="-128" style="transform-origin: 57.082px -85.7235px; animation: 5.88235s linear 0s infinite normal forwards running jelly-042b8026-16d0-46ee-9536-092a08996c7d;"><g transform="translate(-128,-128)"><g transform="matrix(0.8102 -0.5862 0.5862 0.8102 10.3558 116.5189) translate(185.074,42.271) scale(0.3916444444444444)"><g data-icon="" transform="scale(0.89)">  <use xlink:href="#id-0.5650258676570377" x="-50" y="-50"></use>
</g></g></g></g><g data-idx="11" data-dup="" dx="128" dy="-128" style="transform-origin: 313.082px -85.7235px; animation: 5.88235s linear 0s infinite normal forwards running jelly-042b8026-16d0-46ee-9536-092a08996c7d;"><g transform="translate(128,-128)"><g transform="matrix(0.8102 -0.5862 0.5862 0.8102 10.3558 116.5189) translate(185.074,42.271) scale(0.3916444444444444)"><g data-icon="" transform="scale(0.89)">  <use xlink:href="#id-0.5650258676570377" x="-50" y="-50"></use>
</g></g></g></g><g data-idx="12" data-dup="" dx="-128" dy="-128" style="transform-origin: 96.7127px 65.4146px; animation: 5.88235s linear 0s infinite normal forwards running jelly-042b8026-16d0-46ee-9536-092a08996c7d;"><g transform="translate(-128,-128)"><g transform="matrix(0.7153 0.6988 -0.6988 0.7153 199.1367 -101.9661) translate(224.712,193.41799999999998) scale(0.3647555555555556)"><g data-icon="" transform="scale(0.89)">  <use xlink:href="#id-0.5650258676570377" x="-50" y="-50"></use>
</g></g></g></g><g data-idx="12" data-dup="" dx="128" dy="-128" style="transform-origin: 352.713px 65.4146px; animation: 5.88235s linear 0s infinite normal forwards running jelly-042b8026-16d0-46ee-9536-092a08996c7d;"><g transform="translate(128,-128)"><g transform="matrix(0.7153 0.6988 -0.6988 0.7153 199.1367 -101.9661) translate(224.712,193.41799999999998) scale(0.3647555555555556)"><g data-icon="" transform="scale(0.89)">  <use xlink:href="#id-0.5650258676570377" x="-50" y="-50"></use>
</g></g></g></g><g data-idx="13" data-dup="" dx="-128" dy="-128" style="transform-origin: -81.3936px -21.2786px; animation: 5.88235s linear 0s infinite normal forwards running jelly-042b8026-16d0-46ee-9536-092a08996c7d;"><g transform="translate(-128,-128)"><g transform="matrix(0.7812 0.6242 -0.6242 0.7812 76.8196 -5.7423) translate(46.602000000000004,106.7265) scale(0.3879111111111111)"><g data-icon="" transform="scale(0.89)">  <use xlink:href="#id-0.5650258676570377" x="-50" y="-50"></use>
</g></g></g></g><g data-idx="13" data-dup="" dx="128" dy="-128" style="transform-origin: 174.606px -21.2786px; animation: 5.88235s linear 0s infinite normal forwards running jelly-042b8026-16d0-46ee-9536-092a08996c7d;"><g transform="translate(128,-128)"><g transform="matrix(0.7812 0.6242 -0.6242 0.7812 76.8196 -5.7423) translate(46.602000000000004,106.7265) scale(0.3879111111111111)"><g data-icon="" transform="scale(0.89)">  <use xlink:href="#id-0.5650258676570377" x="-50" y="-50"></use>
</g></g></g></g><g data-idx="14" data-dup="" dx="-128" dy="-128" style="transform-origin: -58.7991px 101.633px; animation: 5.88235s linear 0s infinite normal forwards running jelly-042b8026-16d0-46ee-9536-092a08996c7d;"><g transform="translate(-128,-128)"><g transform="matrix(0.7381 -0.6747 0.6747 0.7381 -136.8065 106.8361) translate(69.2025,229.6265) scale(0.5011777777777778)"><g data-icon="" transform="scale(0.89)">  <use xlink:href="#id-0.5650258676570377" x="-50" y="-50"></use>
</g></g></g></g><g data-idx="14" data-dup="" dx="128" dy="-128" style="transform-origin: 197.201px 101.633px; animation: 5.88235s linear 0s infinite normal forwards running jelly-042b8026-16d0-46ee-9536-092a08996c7d;"><g transform="translate(128,-128)"><g transform="matrix(0.7381 -0.6747 0.6747 0.7381 -136.8065 106.8361) translate(69.2025,229.6265) scale(0.5011777777777778)"><g data-icon="" transform="scale(0.89)">  <use xlink:href="#id-0.5650258676570377" x="-50" y="-50"></use>
</g></g></g></g><g data-idx="0" data-dup="" dx="-128" dy="128" style="transform-origin: -58.5046px 295.494px; animation: 5.88235s linear 0s infinite normal forwards running jelly-042b8026-16d0-46ee-9536-092a08996c7d;"><g transform="translate(-128,128)"><ellipse transform="matrix(0.7249 -0.6888 0.6888 0.7249 -96.2592 93.9447)" fill="#B3B4B4" cx="69.5" cy="167.5" rx="5.5" ry="5.5" data-fill="c3" style="fill: rgb(179, 180, 180);"></ellipse></g></g><g data-idx="0" data-dup="" dx="128" dy="128" style="transform-origin: 197.495px 295.494px; animation: 5.88235s linear 0s infinite normal forwards running jelly-042b8026-16d0-46ee-9536-092a08996c7d;"><g transform="translate(128,128)"><ellipse transform="matrix(0.7249 -0.6888 0.6888 0.7249 -96.2592 93.9447)" fill="#B3B4B4" cx="69.5" cy="167.5" rx="5.5" ry="5.5" data-fill="c3" style="fill: rgb(179, 180, 180);"></ellipse></g></g><g data-idx="1" data-dup="" dx="-128" dy="128" style="transform-origin: 111.489px 200.5px; animation: 5.88235s linear 0s infinite normal forwards running jelly-042b8026-16d0-46ee-9536-092a08996c7d;"><g transform="translate(-128,128)"><ellipse transform="matrix(0.7249 -0.6888 0.6888 0.7249 15.9378 184.9119)" fill="#B3B4B4" cx="239.5" cy="72.5" rx="5.5" ry="5.5" data-fill="c3" style="fill: rgb(179, 180, 180);"></ellipse></g></g><g data-idx="1" data-dup="" dx="128" dy="128" style="transform-origin: 367.489px 200.5px; animation: 5.88235s linear 0s infinite normal forwards running jelly-042b8026-16d0-46ee-9536-092a08996c7d;"><g transform="translate(128,128)"><ellipse transform="matrix(0.7249 -0.6888 0.6888 0.7249 15.9378 184.9119)" fill="#B3B4B4" cx="239.5" cy="72.5" rx="5.5" ry="5.5" data-fill="c3" style="fill: rgb(179, 180, 180);"></ellipse></g></g><g data-idx="2" data-dup="" dx="-128" dy="128" style="transform-origin: 73.5px 253.5px; animation: 5.88235s linear 0s infinite normal forwards running jelly-042b8026-16d0-46ee-9536-092a08996c7d;"><g transform="translate(-128,128)"><g>
	
		<line fill="none" stroke="#B3B4B5" stroke-width="4" stroke-linecap="round" stroke-linejoin="round" stroke-miterlimit="10" x1="194" y1="125.5" x2="209" y2="125.5" data-stroke="c4" style="stroke: rgb(126, 207, 233);"></line>
	
		<line fill="none" stroke="#B3B4B5" stroke-width="4" stroke-linecap="round" stroke-linejoin="round" stroke-miterlimit="10" x1="201.5" y1="133" x2="201.5" y2="118" data-stroke="c4" style="stroke: rgb(126, 207, 233);"></line>
</g></g></g><g data-idx="2" data-dup="" dx="128" dy="128" style="transform-origin: 329.5px 253.5px; animation: 5.88235s linear 0s infinite normal forwards running jelly-042b8026-16d0-46ee-9536-092a08996c7d;"><g transform="translate(128,128)"><g>
	
		<line fill="none" stroke="#B3B4B5" stroke-width="4" stroke-linecap="round" stroke-linejoin="round" stroke-miterlimit="10" x1="194" y1="125.5" x2="209" y2="125.5" data-stroke="c4" style="stroke: rgb(126, 207, 233);"></line>
	
		<line fill="none" stroke="#B3B4B5" stroke-width="4" stroke-linecap="round" stroke-linejoin="round" stroke-miterlimit="10" x1="201.5" y1="133" x2="201.5" y2="118" data-stroke="c4" style="stroke: rgb(126, 207, 233);"></line>
</g></g></g><g data-idx="3" data-dup="" dx="-128" dy="128" style="transform-origin: 64px 372px; animation: 5.88235s linear 0s infinite normal forwards running jelly-042b8026-16d0-46ee-9536-092a08996c7d;"><g transform="translate(-128,128)"><g>
	
		<line fill="none" stroke="#B3B4B5" stroke-width="4" stroke-linecap="round" stroke-linejoin="round" stroke-miterlimit="10" x1="186" y1="244" x2="198" y2="244" data-stroke="c4" style="stroke: rgb(126, 207, 233);"></line>
	
		<line fill="none" stroke="#B3B4B5" stroke-width="4" stroke-linecap="round" stroke-linejoin="round" stroke-miterlimit="10" x1="192" y1="250" x2="192" y2="238" data-stroke="c4" style="stroke: rgb(126, 207, 233);"></line>
</g></g></g><g data-idx="3" data-dup="" dx="128" dy="128" style="transform-origin: 320px 372px; animation: 5.88235s linear 0s infinite normal forwards running jelly-042b8026-16d0-46ee-9536-092a08996c7d;"><g transform="translate(128,128)"><g>
	
		<line fill="none" stroke="#B3B4B5" stroke-width="4" stroke-linecap="round" stroke-linejoin="round" stroke-miterlimit="10" x1="186" y1="244" x2="198" y2="244" data-stroke="c4" style="stroke: rgb(126, 207, 233);"></line>
	
		<line fill="none" stroke="#B3B4B5" stroke-width="4" stroke-linecap="round" stroke-linejoin="round" stroke-miterlimit="10" x1="192" y1="250" x2="192" y2="238" data-stroke="c4" style="stroke: rgb(126, 207, 233);"></line>
</g></g></g><g data-idx="4" data-dup="" dx="-128" dy="128" style="transform-origin: -107.5px 174.5px; animation: 5.88235s linear 0s infinite normal forwards running jelly-042b8026-16d0-46ee-9536-092a08996c7d;"><g transform="translate(-128,128)"><g>
	
		<line fill="none" stroke="#B3B4B5" stroke-width="4" stroke-linecap="round" stroke-linejoin="round" stroke-miterlimit="10" x1="12" y1="46.5" x2="29" y2="46.5" data-stroke="c4" style="stroke: rgb(126, 207, 233);"></line>
	
		<line fill="none" stroke="#B3B4B5" stroke-width="4" stroke-linecap="round" stroke-linejoin="round" stroke-miterlimit="10" x1="20.5" y1="55" x2="20.5" y2="38" data-stroke="c4" style="stroke: rgb(126, 207, 233);"></line>
</g></g></g><g data-idx="4" data-dup="" dx="128" dy="128" style="transform-origin: 148.5px 174.5px; animation: 5.88235s linear 0s infinite normal forwards running jelly-042b8026-16d0-46ee-9536-092a08996c7d;"><g transform="translate(128,128)"><g>
	
		<line fill="none" stroke="#B3B4B5" stroke-width="4" stroke-linecap="round" stroke-linejoin="round" stroke-miterlimit="10" x1="12" y1="46.5" x2="29" y2="46.5" data-stroke="c4" style="stroke: rgb(126, 207, 233);"></line>
	
		<line fill="none" stroke="#B3B4B5" stroke-width="4" stroke-linecap="round" stroke-linejoin="round" stroke-miterlimit="10" x1="20.5" y1="55" x2="20.5" y2="38" data-stroke="c4" style="stroke: rgb(126, 207, 233);"></line>
</g></g></g><g data-idx="5" data-dup="" dx="-128" dy="128" style="transform-origin: 9.52531px 200.168px; animation: 5.88235s linear 0s infinite normal forwards running jelly-042b8026-16d0-46ee-9536-092a08996c7d;"><g transform="translate(-128,128)"><ellipse transform="matrix(0.4903 -0.8715 0.8715 0.4903 7.2038 156.6452)" fill="#B3B4B4" cx="137.531" cy="72.163" rx="6.525" ry="6.525" data-fill="c3" style="fill: rgb(179, 180, 180);"></ellipse></g></g><g data-idx="5" data-dup="" dx="128" dy="128" style="transform-origin: 265.525px 200.168px; animation: 5.88235s linear 0s infinite normal forwards running jelly-042b8026-16d0-46ee-9536-092a08996c7d;"><g transform="translate(128,128)"><ellipse transform="matrix(0.4903 -0.8715 0.8715 0.4903 7.2038 156.6452)" fill="#B3B4B4" cx="137.531" cy="72.163" rx="6.525" ry="6.525" data-fill="c3" style="fill: rgb(179, 180, 180);"></ellipse></g></g><g data-idx="6" data-dup="" dx="-128" dy="128" style="transform-origin: 15.4917px 344.493px; animation: 5.88235s linear 0s infinite normal forwards running jelly-042b8026-16d0-46ee-9536-092a08996c7d;"><g transform="translate(-128,128)"><ellipse transform="matrix(0.7249 -0.6888 0.6888 0.7249 -109.6566 158.3945)" fill="#B3B4B4" cx="143.5" cy="216.5" rx="5.5" ry="5.5" data-fill="c3" style="fill: rgb(179, 180, 180);"></ellipse></g></g><g data-idx="6" data-dup="" dx="128" dy="128" style="transform-origin: 271.492px 344.493px; animation: 5.88235s linear 0s infinite normal forwards running jelly-042b8026-16d0-46ee-9536-092a08996c7d;"><g transform="translate(128,128)"><ellipse transform="matrix(0.7249 -0.6888 0.6888 0.7249 -109.6566 158.3945)" fill="#B3B4B4" cx="143.5" cy="216.5" rx="5.5" ry="5.5" data-fill="c3" style="fill: rgb(179, 180, 180);"></ellipse></g></g><g data-idx="7" data-dup="" dx="-128" dy="128" style="transform-origin: -37.0041px 163.999px; animation: 5.88235s linear 0s infinite normal forwards running jelly-042b8026-16d0-46ee-9536-092a08996c7d;"><g transform="translate(-128,128)"><ellipse transform="matrix(0.7249 -0.6888 0.6888 0.7249 0.2332 72.5839)" fill="#B3B4B4" cx="91" cy="36" rx="4" ry="4" data-fill="c3" style="fill: rgb(179, 180, 180);"></ellipse></g></g><g data-idx="7" data-dup="" dx="128" dy="128" style="transform-origin: 218.996px 163.999px; animation: 5.88235s linear 0s infinite normal forwards running jelly-042b8026-16d0-46ee-9536-092a08996c7d;"><g transform="translate(128,128)"><ellipse transform="matrix(0.7249 -0.6888 0.6888 0.7249 0.2332 72.5839)" fill="#B3B4B4" cx="91" cy="36" rx="4" ry="4" data-fill="c3" style="fill: rgb(179, 180, 180);"></ellipse></g></g><g data-idx="8" data-dup="" dx="-128" dy="128" style="transform-origin: 120.988px 276.996px; animation: 5.88235s linear 0s infinite normal forwards running jelly-042b8026-16d0-46ee-9536-092a08996c7d;"><g transform="translate(-128,128)"><ellipse transform="matrix(0.7249 -0.6888 0.6888 0.7249 -34.1432 212.4976)" fill="#B3B4B4" cx="249" cy="149" rx="4" ry="4" data-fill="c3" style="fill: rgb(179, 180, 180);"></ellipse></g></g><g data-idx="8" data-dup="" dx="128" dy="128" style="transform-origin: 376.988px 276.996px; animation: 5.88235s linear 0s infinite normal forwards running jelly-042b8026-16d0-46ee-9536-092a08996c7d;"><g transform="translate(128,128)"><ellipse transform="matrix(0.7249 -0.6888 0.6888 0.7249 -34.1432 212.4976)" fill="#B3B4B4" cx="249" cy="149" rx="4" ry="4" data-fill="c3" style="fill: rgb(179, 180, 180);"></ellipse></g></g><g data-idx="9" data-dup="" dx="-128" dy="128" style="transform-origin: -121.003px 367.99px; animation: 5.88235s linear 0s infinite normal forwards running jelly-042b8026-16d0-46ee-9536-092a08996c7d;"><g transform="translate(-128,128)"><ellipse transform="matrix(0.7249 -0.6888 0.6888 0.7249 -163.3891 70.8358)" fill="#B3B4B4" cx="7" cy="240" rx="4" ry="4" data-fill="c3" style="fill: rgb(179, 180, 180);"></ellipse></g></g><g data-idx="9" data-dup="" dx="128" dy="128" style="transform-origin: 134.997px 367.99px; animation: 5.88235s linear 0s infinite normal forwards running jelly-042b8026-16d0-46ee-9536-092a08996c7d;"><g transform="translate(128,128)"><ellipse transform="matrix(0.7249 -0.6888 0.6888 0.7249 -163.3891 70.8358)" fill="#B3B4B4" cx="7" cy="240" rx="4" ry="4" data-fill="c3" style="fill: rgb(179, 180, 180);"></ellipse></g></g><g data-idx="10" data-dup="" dx="-128" dy="128" style="transform-origin: 5.00677px 266.999px; animation: 5.88235s linear 0s infinite normal forwards running jelly-042b8026-16d0-46ee-9536-092a08996c7d;"><g transform="translate(-128,128)"><g transform="matrix(0.9912 0.1325 -0.1325 0.9912 19.5946 -16.4002) translate(133,138.9995) scale(0.6222222222222222)"><g data-icon="" transform="scale(0.89)">  <use xlink:href="#id-0.5650258676570377" x="-50" y="-50"></use>
</g></g></g></g><g data-idx="10" data-dup="" dx="128" dy="128" style="transform-origin: 261.007px 266.999px; animation: 5.88235s linear 0s infinite normal forwards running jelly-042b8026-16d0-46ee-9536-092a08996c7d;"><g transform="translate(128,128)"><g transform="matrix(0.9912 0.1325 -0.1325 0.9912 19.5946 -16.4002) translate(133,138.9995) scale(0.6222222222222222)"><g data-icon="" transform="scale(0.89)">  <use xlink:href="#id-0.5650258676570377" x="-50" y="-50"></use>
</g></g></g></g><g data-idx="11" data-dup="" dx="-128" dy="128" style="transform-origin: 57.082px 170.276px; animation: 5.88235s linear 0s infinite normal forwards running jelly-042b8026-16d0-46ee-9536-092a08996c7d;"><g transform="translate(-128,128)"><g transform="matrix(0.8102 -0.5862 0.5862 0.8102 10.3558 116.5189) translate(185.074,42.271) scale(0.3916444444444444)"><g data-icon="" transform="scale(0.89)">  <use xlink:href="#id-0.5650258676570377" x="-50" y="-50"></use>
</g></g></g></g><g data-idx="11" data-dup="" dx="128" dy="128" style="transform-origin: 313.082px 170.276px; animation: 5.88235s linear 0s infinite normal forwards running jelly-042b8026-16d0-46ee-9536-092a08996c7d;"><g transform="translate(128,128)"><g transform="matrix(0.8102 -0.5862 0.5862 0.8102 10.3558 116.5189) translate(185.074,42.271) scale(0.3916444444444444)"><g data-icon="" transform="scale(0.89)">  <use xlink:href="#id-0.5650258676570377" x="-50" y="-50"></use>
</g></g></g></g><g data-idx="12" data-dup="" dx="-128" dy="128" style="transform-origin: 96.7127px 321.415px; animation: 5.88235s linear 0s infinite normal forwards running jelly-042b8026-16d0-46ee-9536-092a08996c7d;"><g transform="translate(-128,128)"><g transform="matrix(0.7153 0.6988 -0.6988 0.7153 199.1367 -101.9661) translate(224.712,193.41799999999998) scale(0.3647555555555556)"><g data-icon="" transform="scale(0.89)">  <use xlink:href="#id-0.5650258676570377" x="-50" y="-50"></use>
</g></g></g></g><g data-idx="12" data-dup="" dx="128" dy="128" style="transform-origin: 352.713px 321.415px; animation: 5.88235s linear 0s infinite normal forwards running jelly-042b8026-16d0-46ee-9536-092a08996c7d;"><g transform="translate(128,128)"><g transform="matrix(0.7153 0.6988 -0.6988 0.7153 199.1367 -101.9661) translate(224.712,193.41799999999998) scale(0.3647555555555556)"><g data-icon="" transform="scale(0.89)">  <use xlink:href="#id-0.5650258676570377" x="-50" y="-50"></use>
</g></g></g></g><g data-idx="13" data-dup="" dx="-128" dy="128" style="transform-origin: -81.3936px 234.721px; animation: 5.88235s linear 0s infinite normal forwards running jelly-042b8026-16d0-46ee-9536-092a08996c7d;"><g transform="translate(-128,128)"><g transform="matrix(0.7812 0.6242 -0.6242 0.7812 76.8196 -5.7423) translate(46.602000000000004,106.7265) scale(0.3879111111111111)"><g data-icon="" transform="scale(0.89)">  <use xlink:href="#id-0.5650258676570377" x="-50" y="-50"></use>
</g></g></g></g><g data-idx="13" data-dup="" dx="128" dy="128" style="transform-origin: 174.606px 234.721px; animation: 5.88235s linear 0s infinite normal forwards running jelly-042b8026-16d0-46ee-9536-092a08996c7d;"><g transform="translate(128,128)"><g transform="matrix(0.7812 0.6242 -0.6242 0.7812 76.8196 -5.7423) translate(46.602000000000004,106.7265) scale(0.3879111111111111)"><g data-icon="" transform="scale(0.89)">  <use xlink:href="#id-0.5650258676570377" x="-50" y="-50"></use>
</g></g></g></g><g data-idx="14" data-dup="" dx="-128" dy="128" style="transform-origin: -58.7991px 357.633px; animation: 5.88235s linear 0s infinite normal forwards running jelly-042b8026-16d0-46ee-9536-092a08996c7d;"><g transform="translate(-128,128)"><g transform="matrix(0.7381 -0.6747 0.6747 0.7381 -136.8065 106.8361) translate(69.2025,229.6265) scale(0.5011777777777778)"><g data-icon="" transform="scale(0.89)">  <use xlink:href="#id-0.5650258676570377" x="-50" y="-50"></use>
</g></g></g></g><g data-idx="14" data-dup="" dx="128" dy="128" style="transform-origin: 197.201px 357.633px; animation: 5.88235s linear 0s infinite normal forwards running jelly-042b8026-16d0-46ee-9536-092a08996c7d;"><g transform="translate(128,128)"><g transform="matrix(0.7381 -0.6747 0.6747 0.7381 -136.8065 106.8361) translate(69.2025,229.6265) scale(0.5011777777777778)"><g data-icon="" transform="scale(0.89)">  <use xlink:href="#id-0.5650258676570377" x="-50" y="-50"></use>
</g></g></g></g></g><style id="jelly-042b8026-16d0-46ee-9536-092a08996c7d" data-anikit="">@keyframes jelly-042b8026-16d0-46ee-9536-092a08996c7d
{
  0% {
    animation-timing-function: cubic-bezier(0.1441,0.1912,0.6583,1.1029);
    transform: translate(0px,0) skewX(0deg);
  }
  31% {
    animation-timing-function: cubic-bezier(0.0667,0.1419,0.6667,1.1415);
    transform: translate(-7.800000000000001px,0) skewX(7.800000000000001deg);
  }
  45% {
    animation-timing-function: cubic-bezier(0.0542,0.1151,0.5697,1.181);
    transform: translate(4.680000000000001px,0) skewX(-4.680000000000001deg);
  }
  59% {
    animation-timing-function: cubic-bezier(0.0497,0.1058,0.4541,1.231);
    transform: translate(-2.8100000000000005px,0) skewX(2.8100000000000005deg);
  }
  73% {
    animation-timing-function: cubic-bezier(0.0808,0.1711,0.4109,1.2519);
    transform: translate(1.6800000000000002px,0) skewX(-1.6800000000000002deg);
  }
  87% {
    animation-timing-function: cubic-bezier(0.2073,0.3705,0.4064,0.8839);
    transform: translate(-1.01px,0) skewX(1.01deg);
  }
  100% {
    transform: translate(0.78px,0) skewX(-0.78deg);
  }
}</style></svg>