<?xml version="1.0" encoding="utf-8"?>
<svg xmlns="http://www.w3.org/2000/svg" xmlns:xlink="http://www.w3.org/1999/xlink" style="background: rgb(238, 238, 238); display: block; position: relative; shape-rendering: auto;" width="181" height="181" preserveAspectRatio="xMidYMid" viewBox="0 0 181 181"><g transform="scale(0.71)" data-fill="c2" style="fill: rgb(255, 255, 255);">


<defs><g id="id-0.004636446938534711" data-fill="c2" style="fill: rgb(255, 255, 255);"><!--Generator: Adobe Illustrator 21.0.0, SVG Export Plug-In . SVG Version: 6.00 Build 0)--><style type="text/css" data-fill="c2" style="fill: rgb(255, 255, 255);">.st23{fill:#333}.st24{fill:#fff}.st54{stroke-miterlimit:10;stroke:#333;fill:none;stroke-width:3;stroke-linecap:round}.st55{opacity:.5}.st56{fill:none;stroke:#000;stroke-linecap:round;stroke-miterlimit:10}.st57{fill:#e15b64}</style><path class="st54" d="M49.161,78.087c2.608-1.48,5.904-1.68,8.671-0.525c3.566,1.488,6.168,5.016,9.954,5.788 c4.36,0.889,8.589-2.284,11.046-5.994c4.352-6.57,5.098-14.967,4.03-22.775c-0.355-2.595-0.933-5.254-2.48-7.367 c-1.547-2.113-4.285-3.545-6.812-2.859s-4.184,3.996-2.691,6.148" data-stroke="c1" style="stroke: rgb(6, 6, 6);"></path><path class="st23" d="M46.556,23.089l-8.518,2.632c-0.782,0.242-1.581-0.325-1.611-1.144L35.94,11.253 c-0.044-1.19,1.654-1.715,2.446-0.756l8.763,10.611C47.712,21.791,47.403,22.828,46.556,23.089z" data-fill="c1" style="fill: rgb(6, 6, 6);"></path><path class="st23" d="M51.775,23.089l8.518,2.632c0.783,0.242,1.581-0.325,1.611-1.144l0.487-13.325 c0.044-1.19-1.654-1.715-2.446-0.756l-8.763,10.611C50.619,21.791,50.929,22.828,51.775,23.089z" data-fill="c1" style="fill: rgb(6, 6, 6);"></path><path class="st23" d="M66.324,70.407C66.324,90.213,58.642,90,49.166,90s-17.158,0.213-17.158-19.593 c0-15.527,7.682-32.532,17.158-32.532S66.324,54.88,66.324,70.407z" data-fill="c1" style="fill: rgb(6, 6, 6);"></path><ellipse class="st23" cx="49.166" cy="29.372" rx="14.418" ry="12.939" data-fill="c1" style="fill: rgb(6, 6, 6);"></ellipse><path class="st55" d="M55.887,40.815c4.575-2.169,7.697-6.476,7.697-11.443c0-2.156-0.596-4.185-1.636-5.973l0.444-12.146 c0.044-1.19-1.654-1.715-2.446-0.756l-5.62,6.805c-0.395-0.136-0.798-0.257-1.208-0.363l-0.171,4.795 c1.04,1.833,1.636,3.912,1.636,6.123c0,5.091-3.122,9.505-7.697,11.729c6.136,5.668,10.437,18.423,10.437,30.332 c0,16.976-5.373,19.602-12.674,20.008C46.09,90.004,47.602,90,49.166,90c9.476,0,17.158,0.213,17.158-19.593 C66.324,58.789,62.022,46.345,55.887,40.815z" data-fill="c2" style="fill: rgb(255, 255, 255);"></path><ellipse class="st24" cx="43.501" cy="27.882" rx="3.93" ry="3.339" data-fill="c3" style="fill: rgb(12, 245, 220);"></ellipse><ellipse cx="43.501" cy="27.83" rx="1.669" ry="3.287" data-fill="c2" style="fill: rgb(255, 255, 255);"></ellipse><ellipse class="st24" cx="54.83" cy="27.882" rx="3.93" ry="3.339" data-fill="c3" style="fill: rgb(12, 245, 220);"></ellipse><ellipse cx="54.83" cy="27.83" rx="1.669" ry="3.287" data-fill="c2" style="fill: rgb(255, 255, 255);"></ellipse><line class="st56" x1="49.161" y1="35.563" x2="46.625" y2="37.667" data-stroke="c2" style="stroke: rgb(255, 255, 255);"></line><line class="st56" x1="49.161" y1="35.563" x2="51.697" y2="37.667" data-stroke="c2" style="stroke: rgb(255, 255, 255);"></line><line class="st56" x1="49.161" y1="35.563" x2="49.161" y2="33.417" data-stroke="c2" style="stroke: rgb(255, 255, 255);"></line><ellipse class="st57" cx="49.166" cy="32.918" rx="2" ry="1.25" data-fill="c4" style="fill: rgb(116, 228, 239);"></ellipse><metadata xmlns:d="https://loading.io/stock/" data-fill="c2" style="fill: rgb(255, 255, 255);"><d:name data-fill="c2" style="fill: rgb(255, 255, 255);">cat</d:name><d:tags data-fill="c2" style="fill: rgb(255, 255, 255);">cat,kitty,puss,feline,felid,felidae,animal,blackcat,witch</d:tags><d:license data-fill="c2" style="fill: rgb(255, 255, 255);">by</d:license><d:slug data-fill="c2" style="fill: rgb(255, 255, 255);">i4wvsp</d:slug></metadata></g></defs>

<!-- Generator: Adobe Illustrator 21.0.0, SVG Export Plug-In . SVG Version: 6.00 Build 0)  -->


















<g data-idx="0" data-dup="" dx="-128" dy="-128" style="transform-origin: -43.697px -33.235px; animation: 7.14286s linear 0s infinite normal forwards running clock-27d20de9-2f9c-4a57-a851-4a0ca5b04822;"><g transform="translate(-128,-128)"><polygon fill="#B3B4B4" points="95.261,98.953 73.345,96.2 74.22,90.577 94.461,93.724 " data-fill="c5" style="fill: rgb(95, 226, 226);"></polygon></g></g><g data-idx="0" data-dup="" dx="128" dy="-128" style="transform-origin: 212.303px -33.235px; animation: 7.14286s linear 0s infinite normal forwards running clock-27d20de9-2f9c-4a57-a851-4a0ca5b04822;"><g transform="translate(128,-128)"><polygon fill="#B3B4B4" points="95.261,98.953 73.345,96.2 74.22,90.577 94.461,93.724 " data-fill="c5" style="fill: rgb(95, 226, 226);"></polygon></g></g><g data-idx="1" data-dup="" dx="-128" dy="-128" style="transform-origin: -89.899px 85.4716px; animation: 7.14286s linear 0s infinite normal forwards running clock-27d20de9-2f9c-4a57-a851-4a0ca5b04822;"><g transform="translate(-128,-128)"><path fill="#B3B4B4" d="M38.105,224.49c-0.05,0-0.099,0-0.149-0.001c-2.943-0.039-5.694-1.221-7.748-3.33
	c-4.239-4.352-4.147-11.342,0.205-15.581c2.108-2.054,4.884-3.157,7.833-3.124c2.943,0.039,5.694,1.222,7.748,3.33
	c4.239,4.352,4.147,11.342-0.205,15.58C43.716,223.383,40.992,224.49,38.105,224.49z M38.098,207.494
	c-1.567,0-3.044,0.6-4.169,1.695c-2.361,2.3-2.411,6.092-0.111,8.453c1.114,1.144,2.607,1.785,4.204,1.806
	c1.609,0.014,3.106-0.581,4.25-1.695c2.361-2.3,2.411-6.092,0.112-8.453l0,0c-1.114-1.144-2.607-1.785-4.204-1.806
	C38.152,207.494,38.125,207.494,38.098,207.494z" data-fill="c5" style="fill: rgb(95, 226, 226);"></path></g></g><g data-idx="1" data-dup="" dx="128" dy="-128" style="transform-origin: 166.101px 85.4716px; animation: 7.14286s linear 0s infinite normal forwards running clock-27d20de9-2f9c-4a57-a851-4a0ca5b04822;"><g transform="translate(128,-128)"><path fill="#B3B4B4" d="M38.105,224.49c-0.05,0-0.099,0-0.149-0.001c-2.943-0.039-5.694-1.221-7.748-3.33
	c-4.239-4.352-4.147-11.342,0.205-15.581c2.108-2.054,4.884-3.157,7.833-3.124c2.943,0.039,5.694,1.222,7.748,3.33
	c4.239,4.352,4.147,11.342-0.205,15.58C43.716,223.383,40.992,224.49,38.105,224.49z M38.098,207.494
	c-1.567,0-3.044,0.6-4.169,1.695c-2.361,2.3-2.411,6.092-0.111,8.453c1.114,1.144,2.607,1.785,4.204,1.806
	c1.609,0.014,3.106-0.581,4.25-1.695c2.361-2.3,2.411-6.092,0.112-8.453l0,0c-1.114-1.144-2.607-1.785-4.204-1.806
	C38.152,207.494,38.125,207.494,38.098,207.494z" data-fill="c5" style="fill: rgb(95, 226, 226);"></path></g></g><g data-idx="2" data-dup="" dx="-128" dy="-128" style="transform-origin: 106.49px -80.4995px; animation: 7.14286s linear 0s infinite normal forwards running clock-27d20de9-2f9c-4a57-a851-4a0ca5b04822;"><g transform="translate(-128,-128)"><ellipse transform="matrix(0.7249 -0.6888 0.6888 0.7249 31.7828 174.5914)" fill="#B3B4B4" cx="234.5" cy="47.5" rx="4.4" ry="4.4" data-fill="c5" style="fill: rgb(95, 226, 226);"></ellipse></g></g><g data-idx="2" data-dup="" dx="128" dy="-128" style="transform-origin: 362.49px -80.4995px; animation: 7.14286s linear 0s infinite normal forwards running clock-27d20de9-2f9c-4a57-a851-4a0ca5b04822;"><g transform="translate(128,-128)"><ellipse transform="matrix(0.7249 -0.6888 0.6888 0.7249 31.7828 174.5914)" fill="#B3B4B4" cx="234.5" cy="47.5" rx="4.4" ry="4.4" data-fill="c5" style="fill: rgb(95, 226, 226);"></ellipse></g></g><g data-idx="3" data-dup="" dx="-128" dy="-128" style="transform-origin: 28.5333px 18.653px; animation: 7.14286s linear 0s infinite normal forwards running clock-27d20de9-2f9c-4a57-a851-4a0ca5b04822;"><g transform="translate(-128,-128)"><path fill="#B3B4B4" d="M156.299,159.176l-1.714-5.053c3.929-1.333,6.042-5.614,4.709-9.543c-0.645-1.903-1.994-3.442-3.796-4.331
	c-1.803-0.89-3.844-1.024-5.747-0.378l-1.714-5.053c3.254-1.103,6.741-0.874,9.822,0.646c3.08,1.52,5.385,4.149,6.488,7.402
	C166.625,149.582,163.015,156.898,156.299,159.176z" data-fill="c5" style="fill: rgb(95, 226, 226);"></path></g></g><g data-idx="3" data-dup="" dx="128" dy="-128" style="transform-origin: 284.533px 18.653px; animation: 7.14286s linear 0s infinite normal forwards running clock-27d20de9-2f9c-4a57-a851-4a0ca5b04822;"><g transform="translate(128,-128)"><path fill="#B3B4B4" d="M156.299,159.176l-1.714-5.053c3.929-1.333,6.042-5.614,4.709-9.543c-0.645-1.903-1.994-3.442-3.796-4.331
	c-1.803-0.89-3.844-1.024-5.747-0.378l-1.714-5.053c3.254-1.103,6.741-0.874,9.822,0.646c3.08,1.52,5.385,4.149,6.488,7.402
	C166.625,149.582,163.015,156.898,156.299,159.176z" data-fill="c5" style="fill: rgb(95, 226, 226);"></path></g></g><g data-idx="4" data-dup="" dx="-128" dy="-128" style="transform-origin: -25.5058px 21.495px; animation: 7.14286s linear 0s infinite normal forwards running clock-27d20de9-2f9c-4a57-a851-4a0ca5b04822;"><g transform="translate(-128,-128)"><ellipse transform="matrix(0.7249 -0.6888 0.6888 0.7249 -74.7837 111.7244)" fill="#B3B4B4" cx="102.5" cy="149.5" rx="4.4" ry="4.4" data-fill="c5" style="fill: rgb(95, 226, 226);"></ellipse></g></g><g data-idx="4" data-dup="" dx="128" dy="-128" style="transform-origin: 230.494px 21.495px; animation: 7.14286s linear 0s infinite normal forwards running clock-27d20de9-2f9c-4a57-a851-4a0ca5b04822;"><g transform="translate(128,-128)"><ellipse transform="matrix(0.7249 -0.6888 0.6888 0.7249 -74.7837 111.7244)" fill="#B3B4B4" cx="102.5" cy="149.5" rx="4.4" ry="4.4" data-fill="c5" style="fill: rgb(95, 226, 226);"></ellipse></g></g><g data-idx="5" data-dup="" dx="-128" dy="-128" style="transform-origin: 114.171px 116.691px; animation: 7.14286s linear 0s infinite normal forwards running clock-27d20de9-2f9c-4a57-a851-4a0ca5b04822;"><g transform="translate(-128,-128)"><polygon fill="#B3B4B4" points="231.486,249.178 247.065,235.877 252.857,238.786 235.18,253.505 " data-fill="c5" style="fill: rgb(95, 226, 226);"></polygon></g></g><g data-idx="5" data-dup="" dx="128" dy="-128" style="transform-origin: 370.171px 116.691px; animation: 7.14286s linear 0s infinite normal forwards running clock-27d20de9-2f9c-4a57-a851-4a0ca5b04822;"><g transform="translate(128,-128)"><polygon fill="#B3B4B4" points="231.486,249.178 247.065,235.877 252.857,238.786 235.18,253.505 " data-fill="c5" style="fill: rgb(95, 226, 226);"></polygon></g></g><g data-idx="6" data-dup="" dx="-128" dy="-128" style="transform-origin: -20.197px -96.9315px; animation: 7.14286s linear 0s infinite normal forwards running clock-27d20de9-2f9c-4a57-a851-4a0ca5b04822;"><g transform="translate(-128,-128)"><polygon fill="#B3B4B4" points="115.367,21.954 103.961,43.014 100.239,36.891 110.431,19.123 " data-fill="c5" style="fill: rgb(95, 226, 226);"></polygon></g></g><g data-idx="6" data-dup="" dx="128" dy="-128" style="transform-origin: 235.803px -96.9315px; animation: 7.14286s linear 0s infinite normal forwards running clock-27d20de9-2f9c-4a57-a851-4a0ca5b04822;"><g transform="translate(128,-128)"><polygon fill="#B3B4B4" points="115.367,21.954 103.961,43.014 100.239,36.891 110.431,19.123 " data-fill="c5" style="fill: rgb(95, 226, 226);"></polygon></g></g><g data-idx="7" data-dup="" dx="-128" dy="-128" style="transform-origin: 94.1px -7.15031px; animation: 7.14286s linear 0s infinite normal forwards running clock-27d20de9-2f9c-4a57-a851-4a0ca5b04822;"><g transform="translate(-128,-128)"><path fill="#B3B4B4" d="M222.104,130.57c-0.044,0-0.088,0-0.132-0.001c-2.596-0.034-5.024-1.077-6.835-2.937
	c-3.74-3.84-3.659-10.006,0.181-13.746c1.86-1.812,4.308-2.785,6.91-2.756c2.596,0.034,5.024,1.078,6.835,2.938
	c3.74,3.839,3.659,10.006-0.181,13.745C227.054,129.594,224.651,130.57,222.104,130.57z M222.099,115.576
	c-1.382,0-2.686,0.53-3.678,1.496c-2.083,2.029-2.127,5.374-0.098,7.458c0.983,1.009,2.3,1.575,3.708,1.594
	c1.42,0.013,2.74-0.512,3.749-1.495c2.083-2.029,2.127-5.374,0.098-7.457l0,0c-0.983-1.009-2.3-1.575-3.708-1.594
	C222.146,115.576,222.122,115.576,222.099,115.576z" data-fill="c5" style="fill: rgb(95, 226, 226);"></path></g></g><g data-idx="7" data-dup="" dx="128" dy="-128" style="transform-origin: 350.1px -7.15031px; animation: 7.14286s linear 0s infinite normal forwards running clock-27d20de9-2f9c-4a57-a851-4a0ca5b04822;"><g transform="translate(128,-128)"><path fill="#B3B4B4" d="M222.104,130.57c-0.044,0-0.088,0-0.132-0.001c-2.596-0.034-5.024-1.077-6.835-2.937
	c-3.74-3.84-3.659-10.006,0.181-13.746c1.86-1.812,4.308-2.785,6.91-2.756c2.596,0.034,5.024,1.078,6.835,2.938
	c3.74,3.839,3.659,10.006-0.181,13.745C227.054,129.594,224.651,130.57,222.104,130.57z M222.099,115.576
	c-1.382,0-2.686,0.53-3.678,1.496c-2.083,2.029-2.127,5.374-0.098,7.458c0.983,1.009,2.3,1.575,3.708,1.594
	c1.42,0.013,2.74-0.512,3.749-1.495c2.083-2.029,2.127-5.374,0.098-7.457l0,0c-0.983-1.009-2.3-1.575-3.708-1.594
	C222.146,115.576,222.122,115.576,222.099,115.576z" data-fill="c5" style="fill: rgb(95, 226, 226);"></path></g></g><g data-idx="8" data-dup="" dx="-128" dy="-128" style="transform-origin: 46.6647px -119.158px; animation: 7.14286s linear 0s infinite normal forwards running clock-27d20de9-2f9c-4a57-a851-4a0ca5b04822;"><g transform="translate(-128,-128)"><path fill="#B3B4B4" d="M184.509,10.022l-4.015,1.058c-0.822-3.122-4.032-4.993-7.154-4.17c-1.512,0.398-2.779,1.362-3.567,2.713
	c-0.788,1.352-1.003,2.929-0.603,4.44l-4.015,1.058c-0.681-2.585-0.315-5.28,1.031-7.589c1.346-2.309,3.511-3.956,6.096-4.637
	C177.619,1.489,183.103,4.687,184.509,10.022z" data-fill="c5" style="fill: rgb(95, 226, 226);"></path></g></g><g data-idx="8" data-dup="" dx="128" dy="-128" style="transform-origin: 302.665px -119.158px; animation: 7.14286s linear 0s infinite normal forwards running clock-27d20de9-2f9c-4a57-a851-4a0ca5b04822;"><g transform="translate(128,-128)"><path fill="#B3B4B4" d="M184.509,10.022l-4.015,1.058c-0.822-3.122-4.032-4.993-7.154-4.17c-1.512,0.398-2.779,1.362-3.567,2.713
	c-0.788,1.352-1.003,2.929-0.603,4.44l-4.015,1.058c-0.681-2.585-0.315-5.28,1.031-7.589c1.346-2.309,3.511-3.956,6.096-4.637
	C177.619,1.489,183.103,4.687,184.509,10.022z" data-fill="c5" style="fill: rgb(95, 226, 226);"></path></g></g><g data-idx="9" data-dup="" dx="-128" dy="-128" style="transform-origin: -2.29148px 95.0183px; animation: 7.14286s linear 0s infinite normal forwards running clock-27d20de9-2f9c-4a57-a851-4a0ca5b04822;"><g transform="translate(-128,-128)"><g transform="matrix(0.9912 0.1325 -0.1325 0.9912 30.542 -14.083) translate(121.067,222.398) scale(0.6786666666666666)" data-fill="c2" style="fill: rgb(255, 255, 255);"><g data-icon="" transform="scale(0.9)" data-fill="c2" style="fill: rgb(255, 255, 255);">  <use xlink:href="#id-0.004636446938534711" x="-50" y="-50" data-fill="c2" style="fill: rgb(255, 255, 255);"></use>
</g></g></g></g><g data-idx="9" data-dup="" dx="128" dy="-128" style="transform-origin: 253.709px 95.0183px; animation: 7.14286s linear 0s infinite normal forwards running clock-27d20de9-2f9c-4a57-a851-4a0ca5b04822;"><g transform="translate(128,-128)"><g transform="matrix(0.9912 0.1325 -0.1325 0.9912 30.542 -14.083) translate(121.067,222.398) scale(0.6786666666666666)" data-fill="c2" style="fill: rgb(255, 255, 255);"><g data-icon="" transform="scale(0.9)" data-fill="c2" style="fill: rgb(255, 255, 255);">  <use xlink:href="#id-0.004636446938534711" x="-50" y="-50" data-fill="c2" style="fill: rgb(255, 255, 255);"></use>
</g></g></g></g><g data-idx="10" data-dup="" dx="-128" dy="-128" style="transform-origin: 33.1072px -49.5436px; animation: 7.14286s linear 0s infinite normal forwards running clock-27d20de9-2f9c-4a57-a851-4a0ca5b04822;"><g transform="translate(-128,-128)"><g transform="matrix(-0.0456 0.999 -0.999 -0.0456 243.7065 -82.5047) translate(161.268,75.17099999999999) scale(0.47706666666666664)" data-fill="c2" style="fill: rgb(255, 255, 255);"><g data-icon="" transform="scale(0.9)" data-fill="c2" style="fill: rgb(255, 255, 255);">  <use xlink:href="#id-0.004636446938534711" x="-50" y="-50" data-fill="c2" style="fill: rgb(255, 255, 255);"></use>
</g></g></g></g><g data-idx="10" data-dup="" dx="128" dy="-128" style="transform-origin: 289.107px -49.5436px; animation: 7.14286s linear 0s infinite normal forwards running clock-27d20de9-2f9c-4a57-a851-4a0ca5b04822;"><g transform="translate(128,-128)"><g transform="matrix(-0.0456 0.999 -0.999 -0.0456 243.7065 -82.5047) translate(161.268,75.17099999999999) scale(0.47706666666666664)" data-fill="c2" style="fill: rgb(255, 255, 255);"><g data-icon="" transform="scale(0.9)" data-fill="c2" style="fill: rgb(255, 255, 255);">  <use xlink:href="#id-0.004636446938534711" x="-50" y="-50" data-fill="c2" style="fill: rgb(255, 255, 255);"></use>
</g></g></g></g><g data-idx="11" data-dup="" dx="-128" dy="-128" style="transform-origin: 89.4286px 62.1839px; animation: 7.14286s linear 0s infinite normal forwards running clock-27d20de9-2f9c-4a57-a851-4a0ca5b04822;"><g transform="translate(-128,-128)"><g transform="matrix(0.5905 -0.8071 0.8071 0.5905 -67.6584 252.8308) translate(215.293,193.0815) scale(0.5214666666666667)" data-fill="c2" style="fill: rgb(255, 255, 255);"><g data-icon="" transform="scale(0.9)" data-fill="c2" style="fill: rgb(255, 255, 255);">  <use xlink:href="#id-0.004636446938534711" x="-50" y="-50" data-fill="c2" style="fill: rgb(255, 255, 255);"></use>
</g></g></g></g><g data-idx="11" data-dup="" dx="128" dy="-128" style="transform-origin: 345.429px 62.1839px; animation: 7.14286s linear 0s infinite normal forwards running clock-27d20de9-2f9c-4a57-a851-4a0ca5b04822;"><g transform="translate(128,-128)"><g transform="matrix(0.5905 -0.8071 0.8071 0.5905 -67.6584 252.8308) translate(215.293,193.0815) scale(0.5214666666666667)" data-fill="c2" style="fill: rgb(255, 255, 255);"><g data-icon="" transform="scale(0.9)" data-fill="c2" style="fill: rgb(255, 255, 255);">  <use xlink:href="#id-0.004636446938534711" x="-50" y="-50" data-fill="c2" style="fill: rgb(255, 255, 255);"></use>
</g></g></g></g><g data-idx="12" data-dup="" dx="-128" dy="-128" style="transform-origin: -80.771px -93.3202px; animation: 7.14286s linear 0s infinite normal forwards running clock-27d20de9-2f9c-4a57-a851-4a0ca5b04822;"><g transform="translate(-128,-128)"><g transform="matrix(-0.4749 -0.8801 0.8801 -0.4749 38.8277 99.7848) translate(49.185,38.308499999999995) scale(0.5980444444444444)" data-fill="c2" style="fill: rgb(255, 255, 255);"><g data-icon="" transform="scale(0.9)" data-fill="c2" style="fill: rgb(255, 255, 255);">  <use xlink:href="#id-0.004636446938534711" x="-50" y="-50" data-fill="c2" style="fill: rgb(255, 255, 255);"></use>
</g></g></g></g><g data-idx="12" data-dup="" dx="128" dy="-128" style="transform-origin: 175.229px -93.3202px; animation: 7.14286s linear 0s infinite normal forwards running clock-27d20de9-2f9c-4a57-a851-4a0ca5b04822;"><g transform="translate(128,-128)"><g transform="matrix(-0.4749 -0.8801 0.8801 -0.4749 38.8277 99.7848) translate(49.185,38.308499999999995) scale(0.5980444444444444)" data-fill="c2" style="fill: rgb(255, 255, 255);"><g data-icon="" transform="scale(0.9)" data-fill="c2" style="fill: rgb(255, 255, 255);">  <use xlink:href="#id-0.004636446938534711" x="-50" y="-50" data-fill="c2" style="fill: rgb(255, 255, 255);"></use>
</g></g></g></g><g data-idx="13" data-dup="" dx="-128" dy="-128" style="transform-origin: -86.4787px 11.4229px; animation: 7.14286s linear 0s infinite normal forwards running clock-27d20de9-2f9c-4a57-a851-4a0ca5b04822;"><g transform="translate(-128,-128)"><g transform="matrix(0.7381 -0.6747 0.6747 0.7381 -85.9069 63.1885) translate(38.434,142.243) scale(0.607688888888889)" data-fill="c2" style="fill: rgb(255, 255, 255);"><g data-icon="" transform="scale(0.9)" data-fill="c2" style="fill: rgb(255, 255, 255);">  <use xlink:href="#id-0.004636446938534711" x="-50" y="-50" data-fill="c2" style="fill: rgb(255, 255, 255);"></use>
</g></g></g></g><g data-idx="13" data-dup="" dx="128" dy="-128" style="transform-origin: 169.521px 11.4229px; animation: 7.14286s linear 0s infinite normal forwards running clock-27d20de9-2f9c-4a57-a851-4a0ca5b04822;"><g transform="translate(128,-128)"><g transform="matrix(0.7381 -0.6747 0.6747 0.7381 -85.9069 63.1885) translate(38.434,142.243) scale(0.607688888888889)" data-fill="c2" style="fill: rgb(255, 255, 255);"><g data-icon="" transform="scale(0.9)" data-fill="c2" style="fill: rgb(255, 255, 255);">  <use xlink:href="#id-0.004636446938534711" x="-50" y="-50" data-fill="c2" style="fill: rgb(255, 255, 255);"></use>
</g></g></g></g><g data-idx="0" data-dup="" dx="-128" dy="128" style="transform-origin: -43.697px 222.765px; animation: 7.14286s linear 0s infinite normal forwards running clock-27d20de9-2f9c-4a57-a851-4a0ca5b04822;"><g transform="translate(-128,128)"><polygon fill="#B3B4B4" points="95.261,98.953 73.345,96.2 74.22,90.577 94.461,93.724 " data-fill="c5" style="fill: rgb(95, 226, 226);"></polygon></g></g><g data-idx="0" data-dup="" dx="128" dy="128" style="transform-origin: 212.303px 222.765px; animation: 7.14286s linear 0s infinite normal forwards running clock-27d20de9-2f9c-4a57-a851-4a0ca5b04822;"><g transform="translate(128,128)"><polygon fill="#B3B4B4" points="95.261,98.953 73.345,96.2 74.22,90.577 94.461,93.724 " data-fill="c5" style="fill: rgb(95, 226, 226);"></polygon></g></g><g data-idx="1" data-dup="" dx="-128" dy="128" style="transform-origin: -89.899px 341.472px; animation: 7.14286s linear 0s infinite normal forwards running clock-27d20de9-2f9c-4a57-a851-4a0ca5b04822;"><g transform="translate(-128,128)"><path fill="#B3B4B4" d="M38.105,224.49c-0.05,0-0.099,0-0.149-0.001c-2.943-0.039-5.694-1.221-7.748-3.33
	c-4.239-4.352-4.147-11.342,0.205-15.581c2.108-2.054,4.884-3.157,7.833-3.124c2.943,0.039,5.694,1.222,7.748,3.33
	c4.239,4.352,4.147,11.342-0.205,15.58C43.716,223.383,40.992,224.49,38.105,224.49z M38.098,207.494
	c-1.567,0-3.044,0.6-4.169,1.695c-2.361,2.3-2.411,6.092-0.111,8.453c1.114,1.144,2.607,1.785,4.204,1.806
	c1.609,0.014,3.106-0.581,4.25-1.695c2.361-2.3,2.411-6.092,0.112-8.453l0,0c-1.114-1.144-2.607-1.785-4.204-1.806
	C38.152,207.494,38.125,207.494,38.098,207.494z" data-fill="c5" style="fill: rgb(95, 226, 226);"></path></g></g><g data-idx="1" data-dup="" dx="128" dy="128" style="transform-origin: 166.101px 341.472px; animation: 7.14286s linear 0s infinite normal forwards running clock-27d20de9-2f9c-4a57-a851-4a0ca5b04822;"><g transform="translate(128,128)"><path fill="#B3B4B4" d="M38.105,224.49c-0.05,0-0.099,0-0.149-0.001c-2.943-0.039-5.694-1.221-7.748-3.33
	c-4.239-4.352-4.147-11.342,0.205-15.581c2.108-2.054,4.884-3.157,7.833-3.124c2.943,0.039,5.694,1.222,7.748,3.33
	c4.239,4.352,4.147,11.342-0.205,15.58C43.716,223.383,40.992,224.49,38.105,224.49z M38.098,207.494
	c-1.567,0-3.044,0.6-4.169,1.695c-2.361,2.3-2.411,6.092-0.111,8.453c1.114,1.144,2.607,1.785,4.204,1.806
	c1.609,0.014,3.106-0.581,4.25-1.695c2.361-2.3,2.411-6.092,0.112-8.453l0,0c-1.114-1.144-2.607-1.785-4.204-1.806
	C38.152,207.494,38.125,207.494,38.098,207.494z" data-fill="c5" style="fill: rgb(95, 226, 226);"></path></g></g><g data-idx="2" data-dup="" dx="-128" dy="128" style="transform-origin: 106.49px 175.501px; animation: 7.14286s linear 0s infinite normal forwards running clock-27d20de9-2f9c-4a57-a851-4a0ca5b04822;"><g transform="translate(-128,128)"><ellipse transform="matrix(0.7249 -0.6888 0.6888 0.7249 31.7828 174.5914)" fill="#B3B4B4" cx="234.5" cy="47.5" rx="4.4" ry="4.4" data-fill="c5" style="fill: rgb(95, 226, 226);"></ellipse></g></g><g data-idx="2" data-dup="" dx="128" dy="128" style="transform-origin: 362.49px 175.501px; animation: 7.14286s linear 0s infinite normal forwards running clock-27d20de9-2f9c-4a57-a851-4a0ca5b04822;"><g transform="translate(128,128)"><ellipse transform="matrix(0.7249 -0.6888 0.6888 0.7249 31.7828 174.5914)" fill="#B3B4B4" cx="234.5" cy="47.5" rx="4.4" ry="4.4" data-fill="c5" style="fill: rgb(95, 226, 226);"></ellipse></g></g><g data-idx="3" data-dup="" dx="-128" dy="128" style="transform-origin: 28.5333px 274.653px; animation: 7.14286s linear 0s infinite normal forwards running clock-27d20de9-2f9c-4a57-a851-4a0ca5b04822;"><g transform="translate(-128,128)"><path fill="#B3B4B4" d="M156.299,159.176l-1.714-5.053c3.929-1.333,6.042-5.614,4.709-9.543c-0.645-1.903-1.994-3.442-3.796-4.331
	c-1.803-0.89-3.844-1.024-5.747-0.378l-1.714-5.053c3.254-1.103,6.741-0.874,9.822,0.646c3.08,1.52,5.385,4.149,6.488,7.402
	C166.625,149.582,163.015,156.898,156.299,159.176z" data-fill="c5" style="fill: rgb(95, 226, 226);"></path></g></g><g data-idx="3" data-dup="" dx="128" dy="128" style="transform-origin: 284.533px 274.653px; animation: 7.14286s linear 0s infinite normal forwards running clock-27d20de9-2f9c-4a57-a851-4a0ca5b04822;"><g transform="translate(128,128)"><path fill="#B3B4B4" d="M156.299,159.176l-1.714-5.053c3.929-1.333,6.042-5.614,4.709-9.543c-0.645-1.903-1.994-3.442-3.796-4.331
	c-1.803-0.89-3.844-1.024-5.747-0.378l-1.714-5.053c3.254-1.103,6.741-0.874,9.822,0.646c3.08,1.52,5.385,4.149,6.488,7.402
	C166.625,149.582,163.015,156.898,156.299,159.176z" data-fill="c5" style="fill: rgb(95, 226, 226);"></path></g></g><g data-idx="4" data-dup="" dx="-128" dy="128" style="transform-origin: -25.5058px 277.495px; animation: 7.14286s linear 0s infinite normal forwards running clock-27d20de9-2f9c-4a57-a851-4a0ca5b04822;"><g transform="translate(-128,128)"><ellipse transform="matrix(0.7249 -0.6888 0.6888 0.7249 -74.7837 111.7244)" fill="#B3B4B4" cx="102.5" cy="149.5" rx="4.4" ry="4.4" data-fill="c5" style="fill: rgb(95, 226, 226);"></ellipse></g></g><g data-idx="4" data-dup="" dx="128" dy="128" style="transform-origin: 230.494px 277.495px; animation: 7.14286s linear 0s infinite normal forwards running clock-27d20de9-2f9c-4a57-a851-4a0ca5b04822;"><g transform="translate(128,128)"><ellipse transform="matrix(0.7249 -0.6888 0.6888 0.7249 -74.7837 111.7244)" fill="#B3B4B4" cx="102.5" cy="149.5" rx="4.4" ry="4.4" data-fill="c5" style="fill: rgb(95, 226, 226);"></ellipse></g></g><g data-idx="5" data-dup="" dx="-128" dy="128" style="transform-origin: 114.171px 372.691px; animation: 7.14286s linear 0s infinite normal forwards running clock-27d20de9-2f9c-4a57-a851-4a0ca5b04822;"><g transform="translate(-128,128)"><polygon fill="#B3B4B4" points="231.486,249.178 247.065,235.877 252.857,238.786 235.18,253.505 " data-fill="c5" style="fill: rgb(95, 226, 226);"></polygon></g></g><g data-idx="5" data-dup="" dx="128" dy="128" style="transform-origin: 370.171px 372.691px; animation: 7.14286s linear 0s infinite normal forwards running clock-27d20de9-2f9c-4a57-a851-4a0ca5b04822;"><g transform="translate(128,128)"><polygon fill="#B3B4B4" points="231.486,249.178 247.065,235.877 252.857,238.786 235.18,253.505 " data-fill="c5" style="fill: rgb(95, 226, 226);"></polygon></g></g><g data-idx="6" data-dup="" dx="-128" dy="128" style="transform-origin: -20.197px 159.069px; animation: 7.14286s linear 0s infinite normal forwards running clock-27d20de9-2f9c-4a57-a851-4a0ca5b04822;"><g transform="translate(-128,128)"><polygon fill="#B3B4B4" points="115.367,21.954 103.961,43.014 100.239,36.891 110.431,19.123 " data-fill="c5" style="fill: rgb(95, 226, 226);"></polygon></g></g><g data-idx="6" data-dup="" dx="128" dy="128" style="transform-origin: 235.803px 159.069px; animation: 7.14286s linear 0s infinite normal forwards running clock-27d20de9-2f9c-4a57-a851-4a0ca5b04822;"><g transform="translate(128,128)"><polygon fill="#B3B4B4" points="115.367,21.954 103.961,43.014 100.239,36.891 110.431,19.123 " data-fill="c5" style="fill: rgb(95, 226, 226);"></polygon></g></g><g data-idx="7" data-dup="" dx="-128" dy="128" style="transform-origin: 94.1px 248.85px; animation: 7.14286s linear 0s infinite normal forwards running clock-27d20de9-2f9c-4a57-a851-4a0ca5b04822;"><g transform="translate(-128,128)"><path fill="#B3B4B4" d="M222.104,130.57c-0.044,0-0.088,0-0.132-0.001c-2.596-0.034-5.024-1.077-6.835-2.937
	c-3.74-3.84-3.659-10.006,0.181-13.746c1.86-1.812,4.308-2.785,6.91-2.756c2.596,0.034,5.024,1.078,6.835,2.938
	c3.74,3.839,3.659,10.006-0.181,13.745C227.054,129.594,224.651,130.57,222.104,130.57z M222.099,115.576
	c-1.382,0-2.686,0.53-3.678,1.496c-2.083,2.029-2.127,5.374-0.098,7.458c0.983,1.009,2.3,1.575,3.708,1.594
	c1.42,0.013,2.74-0.512,3.749-1.495c2.083-2.029,2.127-5.374,0.098-7.457l0,0c-0.983-1.009-2.3-1.575-3.708-1.594
	C222.146,115.576,222.122,115.576,222.099,115.576z" data-fill="c5" style="fill: rgb(95, 226, 226);"></path></g></g><g data-idx="7" data-dup="" dx="128" dy="128" style="transform-origin: 350.1px 248.85px; animation: 7.14286s linear 0s infinite normal forwards running clock-27d20de9-2f9c-4a57-a851-4a0ca5b04822;"><g transform="translate(128,128)"><path fill="#B3B4B4" d="M222.104,130.57c-0.044,0-0.088,0-0.132-0.001c-2.596-0.034-5.024-1.077-6.835-2.937
	c-3.74-3.84-3.659-10.006,0.181-13.746c1.86-1.812,4.308-2.785,6.91-2.756c2.596,0.034,5.024,1.078,6.835,2.938
	c3.74,3.839,3.659,10.006-0.181,13.745C227.054,129.594,224.651,130.57,222.104,130.57z M222.099,115.576
	c-1.382,0-2.686,0.53-3.678,1.496c-2.083,2.029-2.127,5.374-0.098,7.458c0.983,1.009,2.3,1.575,3.708,1.594
	c1.42,0.013,2.74-0.512,3.749-1.495c2.083-2.029,2.127-5.374,0.098-7.457l0,0c-0.983-1.009-2.3-1.575-3.708-1.594
	C222.146,115.576,222.122,115.576,222.099,115.576z" data-fill="c5" style="fill: rgb(95, 226, 226);"></path></g></g><g data-idx="8" data-dup="" dx="-128" dy="128" style="transform-origin: 46.6647px 136.842px; animation: 7.14286s linear 0s infinite normal forwards running clock-27d20de9-2f9c-4a57-a851-4a0ca5b04822;"><g transform="translate(-128,128)"><path fill="#B3B4B4" d="M184.509,10.022l-4.015,1.058c-0.822-3.122-4.032-4.993-7.154-4.17c-1.512,0.398-2.779,1.362-3.567,2.713
	c-0.788,1.352-1.003,2.929-0.603,4.44l-4.015,1.058c-0.681-2.585-0.315-5.28,1.031-7.589c1.346-2.309,3.511-3.956,6.096-4.637
	C177.619,1.489,183.103,4.687,184.509,10.022z" data-fill="c5" style="fill: rgb(95, 226, 226);"></path></g></g><g data-idx="8" data-dup="" dx="128" dy="128" style="transform-origin: 302.665px 136.842px; animation: 7.14286s linear 0s infinite normal forwards running clock-27d20de9-2f9c-4a57-a851-4a0ca5b04822;"><g transform="translate(128,128)"><path fill="#B3B4B4" d="M184.509,10.022l-4.015,1.058c-0.822-3.122-4.032-4.993-7.154-4.17c-1.512,0.398-2.779,1.362-3.567,2.713
	c-0.788,1.352-1.003,2.929-0.603,4.44l-4.015,1.058c-0.681-2.585-0.315-5.28,1.031-7.589c1.346-2.309,3.511-3.956,6.096-4.637
	C177.619,1.489,183.103,4.687,184.509,10.022z" data-fill="c5" style="fill: rgb(95, 226, 226);"></path></g></g><g data-idx="9" data-dup="" dx="-128" dy="128" style="transform-origin: -2.29148px 351.018px; animation: 7.14286s linear 0s infinite normal forwards running clock-27d20de9-2f9c-4a57-a851-4a0ca5b04822;"><g transform="translate(-128,128)"><g transform="matrix(0.9912 0.1325 -0.1325 0.9912 30.542 -14.083) translate(121.067,222.398) scale(0.6786666666666666)" data-fill="c2" style="fill: rgb(255, 255, 255);"><g data-icon="" transform="scale(0.9)" data-fill="c2" style="fill: rgb(255, 255, 255);">  <use xlink:href="#id-0.004636446938534711" x="-50" y="-50" data-fill="c2" style="fill: rgb(255, 255, 255);"></use>
</g></g></g></g><g data-idx="9" data-dup="" dx="128" dy="128" style="transform-origin: 253.709px 351.018px; animation: 7.14286s linear 0s infinite normal forwards running clock-27d20de9-2f9c-4a57-a851-4a0ca5b04822;"><g transform="translate(128,128)"><g transform="matrix(0.9912 0.1325 -0.1325 0.9912 30.542 -14.083) translate(121.067,222.398) scale(0.6786666666666666)" data-fill="c2" style="fill: rgb(255, 255, 255);"><g data-icon="" transform="scale(0.9)" data-fill="c2" style="fill: rgb(255, 255, 255);">  <use xlink:href="#id-0.004636446938534711" x="-50" y="-50" data-fill="c2" style="fill: rgb(255, 255, 255);"></use>
</g></g></g></g><g data-idx="10" data-dup="" dx="-128" dy="128" style="transform-origin: 33.1072px 206.456px; animation: 7.14286s linear 0s infinite normal forwards running clock-27d20de9-2f9c-4a57-a851-4a0ca5b04822;"><g transform="translate(-128,128)"><g transform="matrix(-0.0456 0.999 -0.999 -0.0456 243.7065 -82.5047) translate(161.268,75.17099999999999) scale(0.47706666666666664)" data-fill="c2" style="fill: rgb(255, 255, 255);"><g data-icon="" transform="scale(0.9)" data-fill="c2" style="fill: rgb(255, 255, 255);">  <use xlink:href="#id-0.004636446938534711" x="-50" y="-50" data-fill="c2" style="fill: rgb(255, 255, 255);"></use>
</g></g></g></g><g data-idx="10" data-dup="" dx="128" dy="128" style="transform-origin: 289.107px 206.456px; animation: 7.14286s linear 0s infinite normal forwards running clock-27d20de9-2f9c-4a57-a851-4a0ca5b04822;"><g transform="translate(128,128)"><g transform="matrix(-0.0456 0.999 -0.999 -0.0456 243.7065 -82.5047) translate(161.268,75.17099999999999) scale(0.47706666666666664)" data-fill="c2" style="fill: rgb(255, 255, 255);"><g data-icon="" transform="scale(0.9)" data-fill="c2" style="fill: rgb(255, 255, 255);">  <use xlink:href="#id-0.004636446938534711" x="-50" y="-50" data-fill="c2" style="fill: rgb(255, 255, 255);"></use>
</g></g></g></g><g data-idx="11" data-dup="" dx="-128" dy="128" style="transform-origin: 89.4286px 318.184px; animation: 7.14286s linear 0s infinite normal forwards running clock-27d20de9-2f9c-4a57-a851-4a0ca5b04822;"><g transform="translate(-128,128)"><g transform="matrix(0.5905 -0.8071 0.8071 0.5905 -67.6584 252.8308) translate(215.293,193.0815) scale(0.5214666666666667)" data-fill="c2" style="fill: rgb(255, 255, 255);"><g data-icon="" transform="scale(0.9)" data-fill="c2" style="fill: rgb(255, 255, 255);">  <use xlink:href="#id-0.004636446938534711" x="-50" y="-50" data-fill="c2" style="fill: rgb(255, 255, 255);"></use>
</g></g></g></g><g data-idx="11" data-dup="" dx="128" dy="128" style="transform-origin: 345.429px 318.184px; animation: 7.14286s linear 0s infinite normal forwards running clock-27d20de9-2f9c-4a57-a851-4a0ca5b04822;"><g transform="translate(128,128)"><g transform="matrix(0.5905 -0.8071 0.8071 0.5905 -67.6584 252.8308) translate(215.293,193.0815) scale(0.5214666666666667)" data-fill="c2" style="fill: rgb(255, 255, 255);"><g data-icon="" transform="scale(0.9)" data-fill="c2" style="fill: rgb(255, 255, 255);">  <use xlink:href="#id-0.004636446938534711" x="-50" y="-50" data-fill="c2" style="fill: rgb(255, 255, 255);"></use>
</g></g></g></g><g data-idx="12" data-dup="" dx="-128" dy="128" style="transform-origin: -80.771px 162.68px; animation: 7.14286s linear 0s infinite normal forwards running clock-27d20de9-2f9c-4a57-a851-4a0ca5b04822;"><g transform="translate(-128,128)"><g transform="matrix(-0.4749 -0.8801 0.8801 -0.4749 38.8277 99.7848) translate(49.185,38.308499999999995) scale(0.5980444444444444)" data-fill="c2" style="fill: rgb(255, 255, 255);"><g data-icon="" transform="scale(0.9)" data-fill="c2" style="fill: rgb(255, 255, 255);">  <use xlink:href="#id-0.004636446938534711" x="-50" y="-50" data-fill="c2" style="fill: rgb(255, 255, 255);"></use>
</g></g></g></g><g data-idx="12" data-dup="" dx="128" dy="128" style="transform-origin: 175.229px 162.68px; animation: 7.14286s linear 0s infinite normal forwards running clock-27d20de9-2f9c-4a57-a851-4a0ca5b04822;"><g transform="translate(128,128)"><g transform="matrix(-0.4749 -0.8801 0.8801 -0.4749 38.8277 99.7848) translate(49.185,38.308499999999995) scale(0.5980444444444444)" data-fill="c2" style="fill: rgb(255, 255, 255);"><g data-icon="" transform="scale(0.9)" data-fill="c2" style="fill: rgb(255, 255, 255);">  <use xlink:href="#id-0.004636446938534711" x="-50" y="-50" data-fill="c2" style="fill: rgb(255, 255, 255);"></use>
</g></g></g></g><g data-idx="13" data-dup="" dx="-128" dy="128" style="transform-origin: -86.4787px 267.423px; animation: 7.14286s linear 0s infinite normal forwards running clock-27d20de9-2f9c-4a57-a851-4a0ca5b04822;"><g transform="translate(-128,128)"><g transform="matrix(0.7381 -0.6747 0.6747 0.7381 -85.9069 63.1885) translate(38.434,142.243) scale(0.607688888888889)" data-fill="c2" style="fill: rgb(255, 255, 255);"><g data-icon="" transform="scale(0.9)" data-fill="c2" style="fill: rgb(255, 255, 255);">  <use xlink:href="#id-0.004636446938534711" x="-50" y="-50" data-fill="c2" style="fill: rgb(255, 255, 255);"></use>
</g></g></g></g><g data-idx="13" data-dup="" dx="128" dy="128" style="transform-origin: 169.521px 267.423px; animation: 7.14286s linear 0s infinite normal forwards running clock-27d20de9-2f9c-4a57-a851-4a0ca5b04822;"><g transform="translate(128,128)"><g transform="matrix(0.7381 -0.6747 0.6747 0.7381 -85.9069 63.1885) translate(38.434,142.243) scale(0.607688888888889)" data-fill="c2" style="fill: rgb(255, 255, 255);"><g data-icon="" transform="scale(0.9)" data-fill="c2" style="fill: rgb(255, 255, 255);">  <use xlink:href="#id-0.004636446938534711" x="-50" y="-50" data-fill="c2" style="fill: rgb(255, 255, 255);"></use>
</g></g></g></g></g><style id="clock-27d20de9-2f9c-4a57-a851-4a0ca5b04822" data-anikit="">@keyframes clock-27d20de9-2f9c-4a57-a851-4a0ca5b04822 {
0% {
  animation-timing-function: cubic-bezier(0,0.7000000000000001,0.29999999999999993,1);
  transform: rotate(0deg);
}
8.33333% {
  animation-timing-function: cubic-bezier(0,0.7000000000000001,0.29999999999999993,1);
  transform: rotate(30deg);
}
16.66667% {
  animation-timing-function: cubic-bezier(0,0.7000000000000001,0.29999999999999993,1);
  transform: rotate(60deg);
}
25% {
  animation-timing-function: cubic-bezier(0,0.7000000000000001,0.29999999999999993,1);
  transform: rotate(90deg);
}
33.33333% {
  animation-timing-function: cubic-bezier(0,0.7000000000000001,0.29999999999999993,1);
  transform: rotate(120deg);
}
41.66667% {
  animation-timing-function: cubic-bezier(0,0.7000000000000001,0.29999999999999993,1);
  transform: rotate(150deg);
}
50% {
  animation-timing-function: cubic-bezier(0,0.7000000000000001,0.29999999999999993,1);
  transform: rotate(180deg);
}
58.33333% {
  animation-timing-function: cubic-bezier(0,0.7000000000000001,0.29999999999999993,1);
  transform: rotate(210deg);
}
66.66667% {
  animation-timing-function: cubic-bezier(0,0.7000000000000001,0.29999999999999993,1);
  transform: rotate(240deg);
}
75% {
  animation-timing-function: cubic-bezier(0,0.7000000000000001,0.29999999999999993,1);
  transform: rotate(270deg);
}
83.33333% {
  animation-timing-function: cubic-bezier(0,0.7000000000000001,0.29999999999999993,1);
  transform: rotate(300deg);
}
91.66667% {
  animation-timing-function: cubic-bezier(0,0.7000000000000001,0.29999999999999993,1);
  transform: rotate(330deg);
}
100% {
  animation-timing-function: cubic-bezier(0,0.7000000000000001,0.29999999999999993,1);
  transform: rotate(360deg);
}
}</style></svg>