<?xml version="1.0" encoding="utf-8"?>
<svg xmlns="http://www.w3.org/2000/svg" xmlns:xlink="http://www.w3.org/1999/xlink" style="background: rgb(238, 238, 238); display: block; position: relative; shape-rendering: auto;" width="145" height="145" preserveAspectRatio="xMidYMid" viewBox="0 0 145 145"><g transform="scale(0.5700000000000001)">


<defs><g id="id-0.2161595673906922"><!--Generator: Adobe Illustrator 21.0.0, SVG Export Plug-In . SVG Version: 6.00 Build 0)--><style type="text/css">.st0{fill:#333}.st6{fill:#e0e0e0}</style><circle class="st0" cx="50" cy="50" r="40" data-fill="c1" style="fill: rgb(51, 51, 51);"></circle><path class="st6" d="M53.858,70.192c-2.572-0.707-5.144-0.707-7.716,0c-1.805,0.496-3.744,0.453-5.418-0.385 c-4.103-2.052-5.881-7.237-2.947-11.29l5.351-7.39c3.344-4.618,10.215-4.649,13.599-0.06l5.455,7.395 c2.987,4.05,1.223,9.273-2.893,11.34C57.612,70.644,55.667,70.689,53.858,70.192z" data-fill="c2" style="fill: rgb(224, 224, 224);"></path><path class="st6" d="M47.935,36.532c0.558,4.887-1.325,7.941-5.01,8.361c-3.685,0.421-6.207-2.131-6.765-7.018 s2.259-8.047,5.01-8.361C43.921,29.2,47.377,31.645,47.935,36.532z" data-fill="c2" style="fill: rgb(224, 224, 224);"></path><path class="st6" d="M35.18,46.342c2.528,3.576,2.366,6.765-0.33,8.671c-2.696,1.906-5.757,0.994-8.284-2.582 c-2.528-3.576-1.682-7.248,0.33-8.671C28.909,42.338,32.653,42.766,35.18,46.342z" data-fill="c2" style="fill: rgb(224, 224, 224);"></path><path class="st6" d="M64.82,46.342c-2.528,3.576-2.366,6.765,0.33,8.671c2.696,1.906,5.757,0.994,8.284-2.582 c2.528-3.576,1.682-7.248-0.33-8.671C71.091,42.338,67.347,42.766,64.82,46.342z" data-fill="c2" style="fill: rgb(224, 224, 224);"></path><path class="st6" d="M52.065,36.532c-0.558,4.887,1.325,7.941,5.01,8.361c3.685,0.421,6.207-2.131,6.765-7.018 c0.558-4.887-2.259-8.047-5.01-8.361C56.079,29.2,52.623,31.645,52.065,36.532z" data-fill="c2" style="fill: rgb(224, 224, 224);"></path><metadata xmlns:d="https://loading.io/stock/"><d:name>paw</d:name><d:tags>paw,cat,claw,nail,meow,trace,trail,footprint,animal</d:tags><d:license>by</d:license><d:slug>lx9njb</d:slug></metadata></g></defs>

<!-- Generator: Adobe Illustrator 21.0.0, SVG Export Plug-In . SVG Version: 6.00 Build 0)  -->



















<g data-idx="0" data-dup="" dx="-128" dy="-128" style="transform-origin: -58.5046px 39.4938px; animation: 1s linear 0s infinite normal forwards running beat-989c5ca1-95d9-4341-a064-0762d18b6234;"><g transform="translate(-128,-128)"><ellipse transform="matrix(0.7249 -0.6888 0.6888 0.7249 -96.2592 93.9447)" fill="#B3B4B4" cx="69.5" cy="167.5" rx="5.5" ry="5.5" data-fill="c3" style="fill: rgb(179, 180, 180);"></ellipse></g></g><g data-idx="0" data-dup="" dx="128" dy="-128" style="transform-origin: 197.495px 39.4938px; animation: 1s linear 0s infinite normal forwards running beat-989c5ca1-95d9-4341-a064-0762d18b6234;"><g transform="translate(128,-128)"><ellipse transform="matrix(0.7249 -0.6888 0.6888 0.7249 -96.2592 93.9447)" fill="#B3B4B4" cx="69.5" cy="167.5" rx="5.5" ry="5.5" data-fill="c3" style="fill: rgb(179, 180, 180);"></ellipse></g></g><g data-idx="1" data-dup="" dx="-128" dy="-128" style="transform-origin: 111.489px -55.5005px; animation: 1s linear 0s infinite normal forwards running beat-989c5ca1-95d9-4341-a064-0762d18b6234;"><g transform="translate(-128,-128)"><ellipse transform="matrix(0.7249 -0.6888 0.6888 0.7249 15.9378 184.9119)" fill="#B3B4B4" cx="239.5" cy="72.5" rx="5.5" ry="5.5" data-fill="c3" style="fill: rgb(179, 180, 180);"></ellipse></g></g><g data-idx="1" data-dup="" dx="128" dy="-128" style="transform-origin: 367.489px -55.5005px; animation: 1s linear 0s infinite normal forwards running beat-989c5ca1-95d9-4341-a064-0762d18b6234;"><g transform="translate(128,-128)"><ellipse transform="matrix(0.7249 -0.6888 0.6888 0.7249 15.9378 184.9119)" fill="#B3B4B4" cx="239.5" cy="72.5" rx="5.5" ry="5.5" data-fill="c3" style="fill: rgb(179, 180, 180);"></ellipse></g></g><g data-idx="2" data-dup="" dx="-128" dy="-128" style="transform-origin: 73.5px -2.5px; animation: 1s linear 0s infinite normal forwards running beat-989c5ca1-95d9-4341-a064-0762d18b6234;"><g transform="translate(-128,-128)"><g>
	
		<line fill="none" stroke="#B3B4B5" stroke-width="4" stroke-linecap="round" stroke-linejoin="round" stroke-miterlimit="10" x1="194" y1="125.5" x2="209" y2="125.5" data-stroke="c4" style="stroke: rgb(179, 180, 181);"></line>
	
		<line fill="none" stroke="#B3B4B5" stroke-width="4" stroke-linecap="round" stroke-linejoin="round" stroke-miterlimit="10" x1="201.5" y1="133" x2="201.5" y2="118" data-stroke="c4" style="stroke: rgb(179, 180, 181);"></line>
</g></g></g><g data-idx="2" data-dup="" dx="128" dy="-128" style="transform-origin: 329.5px -2.5px; animation: 1s linear 0s infinite normal forwards running beat-989c5ca1-95d9-4341-a064-0762d18b6234;"><g transform="translate(128,-128)"><g>
	
		<line fill="none" stroke="#B3B4B5" stroke-width="4" stroke-linecap="round" stroke-linejoin="round" stroke-miterlimit="10" x1="194" y1="125.5" x2="209" y2="125.5" data-stroke="c4" style="stroke: rgb(179, 180, 181);"></line>
	
		<line fill="none" stroke="#B3B4B5" stroke-width="4" stroke-linecap="round" stroke-linejoin="round" stroke-miterlimit="10" x1="201.5" y1="133" x2="201.5" y2="118" data-stroke="c4" style="stroke: rgb(179, 180, 181);"></line>
</g></g></g><g data-idx="3" data-dup="" dx="-128" dy="-128" style="transform-origin: 64px 116px; animation: 1s linear 0s infinite normal forwards running beat-989c5ca1-95d9-4341-a064-0762d18b6234;"><g transform="translate(-128,-128)"><g>
	
		<line fill="none" stroke="#B3B4B5" stroke-width="4" stroke-linecap="round" stroke-linejoin="round" stroke-miterlimit="10" x1="186" y1="244" x2="198" y2="244" data-stroke="c4" style="stroke: rgb(179, 180, 181);"></line>
	
		<line fill="none" stroke="#B3B4B5" stroke-width="4" stroke-linecap="round" stroke-linejoin="round" stroke-miterlimit="10" x1="192" y1="250" x2="192" y2="238" data-stroke="c4" style="stroke: rgb(179, 180, 181);"></line>
</g></g></g><g data-idx="3" data-dup="" dx="128" dy="-128" style="transform-origin: 320px 116px; animation: 1s linear 0s infinite normal forwards running beat-989c5ca1-95d9-4341-a064-0762d18b6234;"><g transform="translate(128,-128)"><g>
	
		<line fill="none" stroke="#B3B4B5" stroke-width="4" stroke-linecap="round" stroke-linejoin="round" stroke-miterlimit="10" x1="186" y1="244" x2="198" y2="244" data-stroke="c4" style="stroke: rgb(179, 180, 181);"></line>
	
		<line fill="none" stroke="#B3B4B5" stroke-width="4" stroke-linecap="round" stroke-linejoin="round" stroke-miterlimit="10" x1="192" y1="250" x2="192" y2="238" data-stroke="c4" style="stroke: rgb(179, 180, 181);"></line>
</g></g></g><g data-idx="4" data-dup="" dx="-128" dy="-128" style="transform-origin: -107.5px -81.5px; animation: 1s linear 0s infinite normal forwards running beat-989c5ca1-95d9-4341-a064-0762d18b6234;"><g transform="translate(-128,-128)"><g>
	
		<line fill="none" stroke="#B3B4B5" stroke-width="4" stroke-linecap="round" stroke-linejoin="round" stroke-miterlimit="10" x1="12" y1="46.5" x2="29" y2="46.5" data-stroke="c4" style="stroke: rgb(179, 180, 181);"></line>
	
		<line fill="none" stroke="#B3B4B5" stroke-width="4" stroke-linecap="round" stroke-linejoin="round" stroke-miterlimit="10" x1="20.5" y1="55" x2="20.5" y2="38" data-stroke="c4" style="stroke: rgb(179, 180, 181);"></line>
</g></g></g><g data-idx="4" data-dup="" dx="128" dy="-128" style="transform-origin: 148.5px -81.5px; animation: 1s linear 0s infinite normal forwards running beat-989c5ca1-95d9-4341-a064-0762d18b6234;"><g transform="translate(128,-128)"><g>
	
		<line fill="none" stroke="#B3B4B5" stroke-width="4" stroke-linecap="round" stroke-linejoin="round" stroke-miterlimit="10" x1="12" y1="46.5" x2="29" y2="46.5" data-stroke="c4" style="stroke: rgb(179, 180, 181);"></line>
	
		<line fill="none" stroke="#B3B4B5" stroke-width="4" stroke-linecap="round" stroke-linejoin="round" stroke-miterlimit="10" x1="20.5" y1="55" x2="20.5" y2="38" data-stroke="c4" style="stroke: rgb(179, 180, 181);"></line>
</g></g></g><g data-idx="5" data-dup="" dx="-128" dy="-128" style="transform-origin: 9.52531px -55.8315px; animation: 1s linear 0s infinite normal forwards running beat-989c5ca1-95d9-4341-a064-0762d18b6234;"><g transform="translate(-128,-128)"><ellipse transform="matrix(0.4903 -0.8715 0.8715 0.4903 7.2038 156.6452)" fill="#B3B4B4" cx="137.531" cy="72.163" rx="6.525" ry="6.525" data-fill="c3" style="fill: rgb(179, 180, 180);"></ellipse></g></g><g data-idx="5" data-dup="" dx="128" dy="-128" style="transform-origin: 265.525px -55.8315px; animation: 1s linear 0s infinite normal forwards running beat-989c5ca1-95d9-4341-a064-0762d18b6234;"><g transform="translate(128,-128)"><ellipse transform="matrix(0.4903 -0.8715 0.8715 0.4903 7.2038 156.6452)" fill="#B3B4B4" cx="137.531" cy="72.163" rx="6.525" ry="6.525" data-fill="c3" style="fill: rgb(179, 180, 180);"></ellipse></g></g><g data-idx="6" data-dup="" dx="-128" dy="-128" style="transform-origin: 15.4917px 88.4925px; animation: 1s linear 0s infinite normal forwards running beat-989c5ca1-95d9-4341-a064-0762d18b6234;"><g transform="translate(-128,-128)"><ellipse transform="matrix(0.7249 -0.6888 0.6888 0.7249 -109.6566 158.3945)" fill="#B3B4B4" cx="143.5" cy="216.5" rx="5.5" ry="5.5" data-fill="c3" style="fill: rgb(179, 180, 180);"></ellipse></g></g><g data-idx="6" data-dup="" dx="128" dy="-128" style="transform-origin: 271.492px 88.4925px; animation: 1s linear 0s infinite normal forwards running beat-989c5ca1-95d9-4341-a064-0762d18b6234;"><g transform="translate(128,-128)"><ellipse transform="matrix(0.7249 -0.6888 0.6888 0.7249 -109.6566 158.3945)" fill="#B3B4B4" cx="143.5" cy="216.5" rx="5.5" ry="5.5" data-fill="c3" style="fill: rgb(179, 180, 180);"></ellipse></g></g><g data-idx="7" data-dup="" dx="-128" dy="-128" style="transform-origin: -37.0041px -92.0005px; animation: 1s linear 0s infinite normal forwards running beat-989c5ca1-95d9-4341-a064-0762d18b6234;"><g transform="translate(-128,-128)"><ellipse transform="matrix(0.7249 -0.6888 0.6888 0.7249 0.2332 72.5839)" fill="#B3B4B4" cx="91" cy="36" rx="4" ry="4" data-fill="c3" style="fill: rgb(179, 180, 180);"></ellipse></g></g><g data-idx="7" data-dup="" dx="128" dy="-128" style="transform-origin: 218.996px -92.0005px; animation: 1s linear 0s infinite normal forwards running beat-989c5ca1-95d9-4341-a064-0762d18b6234;"><g transform="translate(128,-128)"><ellipse transform="matrix(0.7249 -0.6888 0.6888 0.7249 0.2332 72.5839)" fill="#B3B4B4" cx="91" cy="36" rx="4" ry="4" data-fill="c3" style="fill: rgb(179, 180, 180);"></ellipse></g></g><g data-idx="8" data-dup="" dx="-128" dy="-128" style="transform-origin: 120.988px 20.9965px; animation: 1s linear 0s infinite normal forwards running beat-989c5ca1-95d9-4341-a064-0762d18b6234;"><g transform="translate(-128,-128)"><ellipse transform="matrix(0.7249 -0.6888 0.6888 0.7249 -34.1432 212.4976)" fill="#B3B4B4" cx="249" cy="149" rx="4" ry="4" data-fill="c3" style="fill: rgb(179, 180, 180);"></ellipse></g></g><g data-idx="8" data-dup="" dx="128" dy="-128" style="transform-origin: 376.988px 20.9965px; animation: 1s linear 0s infinite normal forwards running beat-989c5ca1-95d9-4341-a064-0762d18b6234;"><g transform="translate(128,-128)"><ellipse transform="matrix(0.7249 -0.6888 0.6888 0.7249 -34.1432 212.4976)" fill="#B3B4B4" cx="249" cy="149" rx="4" ry="4" data-fill="c3" style="fill: rgb(179, 180, 180);"></ellipse></g></g><g data-idx="9" data-dup="" dx="-128" dy="-128" style="transform-origin: -121.003px 111.99px; animation: 1s linear 0s infinite normal forwards running beat-989c5ca1-95d9-4341-a064-0762d18b6234;"><g transform="translate(-128,-128)"><ellipse transform="matrix(0.7249 -0.6888 0.6888 0.7249 -163.3891 70.8358)" fill="#B3B4B4" cx="7" cy="240" rx="4" ry="4" data-fill="c3" style="fill: rgb(179, 180, 180);"></ellipse></g></g><g data-idx="9" data-dup="" dx="128" dy="-128" style="transform-origin: 134.997px 111.99px; animation: 1s linear 0s infinite normal forwards running beat-989c5ca1-95d9-4341-a064-0762d18b6234;"><g transform="translate(128,-128)"><ellipse transform="matrix(0.7249 -0.6888 0.6888 0.7249 -163.3891 70.8358)" fill="#B3B4B4" cx="7" cy="240" rx="4" ry="4" data-fill="c3" style="fill: rgb(179, 180, 180);"></ellipse></g></g><g data-idx="10" data-dup="" dx="-128" dy="-128" style="transform-origin: 5.00677px 10.9986px; animation: 1s linear 0s infinite normal forwards running beat-989c5ca1-95d9-4341-a064-0762d18b6234;"><g transform="translate(-128,-128)"><g transform="matrix(0.9912 0.1325 -0.1325 0.9912 19.5946 -16.4002) translate(133,138.9995) scale(0.6222222222222222)"><g data-icon="" transform="scale(0.9)">  <use xlink:href="#id-0.2161595673906922" x="-50" y="-50"></use>
</g></g></g></g><g data-idx="10" data-dup="" dx="128" dy="-128" style="transform-origin: 261.007px 10.9986px; animation: 1s linear 0s infinite normal forwards running beat-989c5ca1-95d9-4341-a064-0762d18b6234;"><g transform="translate(128,-128)"><g transform="matrix(0.9912 0.1325 -0.1325 0.9912 19.5946 -16.4002) translate(133,138.9995) scale(0.6222222222222222)"><g data-icon="" transform="scale(0.9)">  <use xlink:href="#id-0.2161595673906922" x="-50" y="-50"></use>
</g></g></g></g><g data-idx="11" data-dup="" dx="-128" dy="-128" style="transform-origin: 57.082px -85.7235px; animation: 1s linear 0s infinite normal forwards running beat-989c5ca1-95d9-4341-a064-0762d18b6234;"><g transform="translate(-128,-128)"><g transform="matrix(0.8102 -0.5862 0.5862 0.8102 10.3558 116.5189) translate(185.074,42.271) scale(0.3916444444444444)"><g data-icon="" transform="scale(0.9)">  <use xlink:href="#id-0.2161595673906922" x="-50" y="-50"></use>
</g></g></g></g><g data-idx="11" data-dup="" dx="128" dy="-128" style="transform-origin: 313.082px -85.7235px; animation: 1s linear 0s infinite normal forwards running beat-989c5ca1-95d9-4341-a064-0762d18b6234;"><g transform="translate(128,-128)"><g transform="matrix(0.8102 -0.5862 0.5862 0.8102 10.3558 116.5189) translate(185.074,42.271) scale(0.3916444444444444)"><g data-icon="" transform="scale(0.9)">  <use xlink:href="#id-0.2161595673906922" x="-50" y="-50"></use>
</g></g></g></g><g data-idx="12" data-dup="" dx="-128" dy="-128" style="transform-origin: 96.7127px 65.4146px; animation: 1s linear 0s infinite normal forwards running beat-989c5ca1-95d9-4341-a064-0762d18b6234;"><g transform="translate(-128,-128)"><g transform="matrix(0.7153 0.6988 -0.6988 0.7153 199.1367 -101.9661) translate(224.712,193.41799999999998) scale(0.3647555555555556)"><g data-icon="" transform="scale(0.9)">  <use xlink:href="#id-0.2161595673906922" x="-50" y="-50"></use>
</g></g></g></g><g data-idx="12" data-dup="" dx="128" dy="-128" style="transform-origin: 352.713px 65.4146px; animation: 1s linear 0s infinite normal forwards running beat-989c5ca1-95d9-4341-a064-0762d18b6234;"><g transform="translate(128,-128)"><g transform="matrix(0.7153 0.6988 -0.6988 0.7153 199.1367 -101.9661) translate(224.712,193.41799999999998) scale(0.3647555555555556)"><g data-icon="" transform="scale(0.9)">  <use xlink:href="#id-0.2161595673906922" x="-50" y="-50"></use>
</g></g></g></g><g data-idx="13" data-dup="" dx="-128" dy="-128" style="transform-origin: -81.3936px -21.2786px; animation: 1s linear 0s infinite normal forwards running beat-989c5ca1-95d9-4341-a064-0762d18b6234;"><g transform="translate(-128,-128)"><g transform="matrix(0.7812 0.6242 -0.6242 0.7812 76.8196 -5.7423) translate(46.602000000000004,106.7265) scale(0.3879111111111111)"><g data-icon="" transform="scale(0.9)">  <use xlink:href="#id-0.2161595673906922" x="-50" y="-50"></use>
</g></g></g></g><g data-idx="13" data-dup="" dx="128" dy="-128" style="transform-origin: 174.606px -21.2786px; animation: 1s linear 0s infinite normal forwards running beat-989c5ca1-95d9-4341-a064-0762d18b6234;"><g transform="translate(128,-128)"><g transform="matrix(0.7812 0.6242 -0.6242 0.7812 76.8196 -5.7423) translate(46.602000000000004,106.7265) scale(0.3879111111111111)"><g data-icon="" transform="scale(0.9)">  <use xlink:href="#id-0.2161595673906922" x="-50" y="-50"></use>
</g></g></g></g><g data-idx="14" data-dup="" dx="-128" dy="-128" style="transform-origin: -58.7991px 101.633px; animation: 1s linear 0s infinite normal forwards running beat-989c5ca1-95d9-4341-a064-0762d18b6234;"><g transform="translate(-128,-128)"><g transform="matrix(0.7381 -0.6747 0.6747 0.7381 -136.8065 106.8361) translate(69.2025,229.6265) scale(0.5011777777777778)"><g data-icon="" transform="scale(0.9)">  <use xlink:href="#id-0.2161595673906922" x="-50" y="-50"></use>
</g></g></g></g><g data-idx="14" data-dup="" dx="128" dy="-128" style="transform-origin: 197.201px 101.633px; animation: 1s linear 0s infinite normal forwards running beat-989c5ca1-95d9-4341-a064-0762d18b6234;"><g transform="translate(128,-128)"><g transform="matrix(0.7381 -0.6747 0.6747 0.7381 -136.8065 106.8361) translate(69.2025,229.6265) scale(0.5011777777777778)"><g data-icon="" transform="scale(0.9)">  <use xlink:href="#id-0.2161595673906922" x="-50" y="-50"></use>
</g></g></g></g><g data-idx="0" data-dup="" dx="-128" dy="128" style="transform-origin: -58.5046px 295.494px; animation: 1s linear 0s infinite normal forwards running beat-989c5ca1-95d9-4341-a064-0762d18b6234;"><g transform="translate(-128,128)"><ellipse transform="matrix(0.7249 -0.6888 0.6888 0.7249 -96.2592 93.9447)" fill="#B3B4B4" cx="69.5" cy="167.5" rx="5.5" ry="5.5" data-fill="c3" style="fill: rgb(179, 180, 180);"></ellipse></g></g><g data-idx="0" data-dup="" dx="128" dy="128" style="transform-origin: 197.495px 295.494px; animation: 1s linear 0s infinite normal forwards running beat-989c5ca1-95d9-4341-a064-0762d18b6234;"><g transform="translate(128,128)"><ellipse transform="matrix(0.7249 -0.6888 0.6888 0.7249 -96.2592 93.9447)" fill="#B3B4B4" cx="69.5" cy="167.5" rx="5.5" ry="5.5" data-fill="c3" style="fill: rgb(179, 180, 180);"></ellipse></g></g><g data-idx="1" data-dup="" dx="-128" dy="128" style="transform-origin: 111.489px 200.5px; animation: 1s linear 0s infinite normal forwards running beat-989c5ca1-95d9-4341-a064-0762d18b6234;"><g transform="translate(-128,128)"><ellipse transform="matrix(0.7249 -0.6888 0.6888 0.7249 15.9378 184.9119)" fill="#B3B4B4" cx="239.5" cy="72.5" rx="5.5" ry="5.5" data-fill="c3" style="fill: rgb(179, 180, 180);"></ellipse></g></g><g data-idx="1" data-dup="" dx="128" dy="128" style="transform-origin: 367.489px 200.5px; animation: 1s linear 0s infinite normal forwards running beat-989c5ca1-95d9-4341-a064-0762d18b6234;"><g transform="translate(128,128)"><ellipse transform="matrix(0.7249 -0.6888 0.6888 0.7249 15.9378 184.9119)" fill="#B3B4B4" cx="239.5" cy="72.5" rx="5.5" ry="5.5" data-fill="c3" style="fill: rgb(179, 180, 180);"></ellipse></g></g><g data-idx="2" data-dup="" dx="-128" dy="128" style="transform-origin: 73.5px 253.5px; animation: 1s linear 0s infinite normal forwards running beat-989c5ca1-95d9-4341-a064-0762d18b6234;"><g transform="translate(-128,128)"><g>
	
		<line fill="none" stroke="#B3B4B5" stroke-width="4" stroke-linecap="round" stroke-linejoin="round" stroke-miterlimit="10" x1="194" y1="125.5" x2="209" y2="125.5" data-stroke="c4" style="stroke: rgb(179, 180, 181);"></line>
	
		<line fill="none" stroke="#B3B4B5" stroke-width="4" stroke-linecap="round" stroke-linejoin="round" stroke-miterlimit="10" x1="201.5" y1="133" x2="201.5" y2="118" data-stroke="c4" style="stroke: rgb(179, 180, 181);"></line>
</g></g></g><g data-idx="2" data-dup="" dx="128" dy="128" style="transform-origin: 329.5px 253.5px; animation: 1s linear 0s infinite normal forwards running beat-989c5ca1-95d9-4341-a064-0762d18b6234;"><g transform="translate(128,128)"><g>
	
		<line fill="none" stroke="#B3B4B5" stroke-width="4" stroke-linecap="round" stroke-linejoin="round" stroke-miterlimit="10" x1="194" y1="125.5" x2="209" y2="125.5" data-stroke="c4" style="stroke: rgb(179, 180, 181);"></line>
	
		<line fill="none" stroke="#B3B4B5" stroke-width="4" stroke-linecap="round" stroke-linejoin="round" stroke-miterlimit="10" x1="201.5" y1="133" x2="201.5" y2="118" data-stroke="c4" style="stroke: rgb(179, 180, 181);"></line>
</g></g></g><g data-idx="3" data-dup="" dx="-128" dy="128" style="transform-origin: 64px 372px; animation: 1s linear 0s infinite normal forwards running beat-989c5ca1-95d9-4341-a064-0762d18b6234;"><g transform="translate(-128,128)"><g>
	
		<line fill="none" stroke="#B3B4B5" stroke-width="4" stroke-linecap="round" stroke-linejoin="round" stroke-miterlimit="10" x1="186" y1="244" x2="198" y2="244" data-stroke="c4" style="stroke: rgb(179, 180, 181);"></line>
	
		<line fill="none" stroke="#B3B4B5" stroke-width="4" stroke-linecap="round" stroke-linejoin="round" stroke-miterlimit="10" x1="192" y1="250" x2="192" y2="238" data-stroke="c4" style="stroke: rgb(179, 180, 181);"></line>
</g></g></g><g data-idx="3" data-dup="" dx="128" dy="128" style="transform-origin: 320px 372px; animation: 1s linear 0s infinite normal forwards running beat-989c5ca1-95d9-4341-a064-0762d18b6234;"><g transform="translate(128,128)"><g>
	
		<line fill="none" stroke="#B3B4B5" stroke-width="4" stroke-linecap="round" stroke-linejoin="round" stroke-miterlimit="10" x1="186" y1="244" x2="198" y2="244" data-stroke="c4" style="stroke: rgb(179, 180, 181);"></line>
	
		<line fill="none" stroke="#B3B4B5" stroke-width="4" stroke-linecap="round" stroke-linejoin="round" stroke-miterlimit="10" x1="192" y1="250" x2="192" y2="238" data-stroke="c4" style="stroke: rgb(179, 180, 181);"></line>
</g></g></g><g data-idx="4" data-dup="" dx="-128" dy="128" style="transform-origin: -107.5px 174.5px; animation: 1s linear 0s infinite normal forwards running beat-989c5ca1-95d9-4341-a064-0762d18b6234;"><g transform="translate(-128,128)"><g>
	
		<line fill="none" stroke="#B3B4B5" stroke-width="4" stroke-linecap="round" stroke-linejoin="round" stroke-miterlimit="10" x1="12" y1="46.5" x2="29" y2="46.5" data-stroke="c4" style="stroke: rgb(179, 180, 181);"></line>
	
		<line fill="none" stroke="#B3B4B5" stroke-width="4" stroke-linecap="round" stroke-linejoin="round" stroke-miterlimit="10" x1="20.5" y1="55" x2="20.5" y2="38" data-stroke="c4" style="stroke: rgb(179, 180, 181);"></line>
</g></g></g><g data-idx="4" data-dup="" dx="128" dy="128" style="transform-origin: 148.5px 174.5px; animation: 1s linear 0s infinite normal forwards running beat-989c5ca1-95d9-4341-a064-0762d18b6234;"><g transform="translate(128,128)"><g>
	
		<line fill="none" stroke="#B3B4B5" stroke-width="4" stroke-linecap="round" stroke-linejoin="round" stroke-miterlimit="10" x1="12" y1="46.5" x2="29" y2="46.5" data-stroke="c4" style="stroke: rgb(179, 180, 181);"></line>
	
		<line fill="none" stroke="#B3B4B5" stroke-width="4" stroke-linecap="round" stroke-linejoin="round" stroke-miterlimit="10" x1="20.5" y1="55" x2="20.5" y2="38" data-stroke="c4" style="stroke: rgb(179, 180, 181);"></line>
</g></g></g><g data-idx="5" data-dup="" dx="-128" dy="128" style="transform-origin: 9.52531px 200.168px; animation: 1s linear 0s infinite normal forwards running beat-989c5ca1-95d9-4341-a064-0762d18b6234;"><g transform="translate(-128,128)"><ellipse transform="matrix(0.4903 -0.8715 0.8715 0.4903 7.2038 156.6452)" fill="#B3B4B4" cx="137.531" cy="72.163" rx="6.525" ry="6.525" data-fill="c3" style="fill: rgb(179, 180, 180);"></ellipse></g></g><g data-idx="5" data-dup="" dx="128" dy="128" style="transform-origin: 265.525px 200.168px; animation: 1s linear 0s infinite normal forwards running beat-989c5ca1-95d9-4341-a064-0762d18b6234;"><g transform="translate(128,128)"><ellipse transform="matrix(0.4903 -0.8715 0.8715 0.4903 7.2038 156.6452)" fill="#B3B4B4" cx="137.531" cy="72.163" rx="6.525" ry="6.525" data-fill="c3" style="fill: rgb(179, 180, 180);"></ellipse></g></g><g data-idx="6" data-dup="" dx="-128" dy="128" style="transform-origin: 15.4917px 344.493px; animation: 1s linear 0s infinite normal forwards running beat-989c5ca1-95d9-4341-a064-0762d18b6234;"><g transform="translate(-128,128)"><ellipse transform="matrix(0.7249 -0.6888 0.6888 0.7249 -109.6566 158.3945)" fill="#B3B4B4" cx="143.5" cy="216.5" rx="5.5" ry="5.5" data-fill="c3" style="fill: rgb(179, 180, 180);"></ellipse></g></g><g data-idx="6" data-dup="" dx="128" dy="128" style="transform-origin: 271.492px 344.493px; animation: 1s linear 0s infinite normal forwards running beat-989c5ca1-95d9-4341-a064-0762d18b6234;"><g transform="translate(128,128)"><ellipse transform="matrix(0.7249 -0.6888 0.6888 0.7249 -109.6566 158.3945)" fill="#B3B4B4" cx="143.5" cy="216.5" rx="5.5" ry="5.5" data-fill="c3" style="fill: rgb(179, 180, 180);"></ellipse></g></g><g data-idx="7" data-dup="" dx="-128" dy="128" style="transform-origin: -37.0041px 163.999px; animation: 1s linear 0s infinite normal forwards running beat-989c5ca1-95d9-4341-a064-0762d18b6234;"><g transform="translate(-128,128)"><ellipse transform="matrix(0.7249 -0.6888 0.6888 0.7249 0.2332 72.5839)" fill="#B3B4B4" cx="91" cy="36" rx="4" ry="4" data-fill="c3" style="fill: rgb(179, 180, 180);"></ellipse></g></g><g data-idx="7" data-dup="" dx="128" dy="128" style="transform-origin: 218.996px 163.999px; animation: 1s linear 0s infinite normal forwards running beat-989c5ca1-95d9-4341-a064-0762d18b6234;"><g transform="translate(128,128)"><ellipse transform="matrix(0.7249 -0.6888 0.6888 0.7249 0.2332 72.5839)" fill="#B3B4B4" cx="91" cy="36" rx="4" ry="4" data-fill="c3" style="fill: rgb(179, 180, 180);"></ellipse></g></g><g data-idx="8" data-dup="" dx="-128" dy="128" style="transform-origin: 120.988px 276.996px; animation: 1s linear 0s infinite normal forwards running beat-989c5ca1-95d9-4341-a064-0762d18b6234;"><g transform="translate(-128,128)"><ellipse transform="matrix(0.7249 -0.6888 0.6888 0.7249 -34.1432 212.4976)" fill="#B3B4B4" cx="249" cy="149" rx="4" ry="4" data-fill="c3" style="fill: rgb(179, 180, 180);"></ellipse></g></g><g data-idx="8" data-dup="" dx="128" dy="128" style="transform-origin: 376.988px 276.996px; animation: 1s linear 0s infinite normal forwards running beat-989c5ca1-95d9-4341-a064-0762d18b6234;"><g transform="translate(128,128)"><ellipse transform="matrix(0.7249 -0.6888 0.6888 0.7249 -34.1432 212.4976)" fill="#B3B4B4" cx="249" cy="149" rx="4" ry="4" data-fill="c3" style="fill: rgb(179, 180, 180);"></ellipse></g></g><g data-idx="9" data-dup="" dx="-128" dy="128" style="transform-origin: -121.003px 367.99px; animation: 1s linear 0s infinite normal forwards running beat-989c5ca1-95d9-4341-a064-0762d18b6234;"><g transform="translate(-128,128)"><ellipse transform="matrix(0.7249 -0.6888 0.6888 0.7249 -163.3891 70.8358)" fill="#B3B4B4" cx="7" cy="240" rx="4" ry="4" data-fill="c3" style="fill: rgb(179, 180, 180);"></ellipse></g></g><g data-idx="9" data-dup="" dx="128" dy="128" style="transform-origin: 134.997px 367.99px; animation: 1s linear 0s infinite normal forwards running beat-989c5ca1-95d9-4341-a064-0762d18b6234;"><g transform="translate(128,128)"><ellipse transform="matrix(0.7249 -0.6888 0.6888 0.7249 -163.3891 70.8358)" fill="#B3B4B4" cx="7" cy="240" rx="4" ry="4" data-fill="c3" style="fill: rgb(179, 180, 180);"></ellipse></g></g><g data-idx="10" data-dup="" dx="-128" dy="128" style="transform-origin: 5.00677px 266.999px; animation: 1s linear 0s infinite normal forwards running beat-989c5ca1-95d9-4341-a064-0762d18b6234;"><g transform="translate(-128,128)"><g transform="matrix(0.9912 0.1325 -0.1325 0.9912 19.5946 -16.4002) translate(133,138.9995) scale(0.6222222222222222)"><g data-icon="" transform="scale(0.9)">  <use xlink:href="#id-0.2161595673906922" x="-50" y="-50"></use>
</g></g></g></g><g data-idx="10" data-dup="" dx="128" dy="128" style="transform-origin: 261.007px 266.999px; animation: 1s linear 0s infinite normal forwards running beat-989c5ca1-95d9-4341-a064-0762d18b6234;"><g transform="translate(128,128)"><g transform="matrix(0.9912 0.1325 -0.1325 0.9912 19.5946 -16.4002) translate(133,138.9995) scale(0.6222222222222222)"><g data-icon="" transform="scale(0.9)">  <use xlink:href="#id-0.2161595673906922" x="-50" y="-50"></use>
</g></g></g></g><g data-idx="11" data-dup="" dx="-128" dy="128" style="transform-origin: 57.082px 170.276px; animation: 1s linear 0s infinite normal forwards running beat-989c5ca1-95d9-4341-a064-0762d18b6234;"><g transform="translate(-128,128)"><g transform="matrix(0.8102 -0.5862 0.5862 0.8102 10.3558 116.5189) translate(185.074,42.271) scale(0.3916444444444444)"><g data-icon="" transform="scale(0.9)">  <use xlink:href="#id-0.2161595673906922" x="-50" y="-50"></use>
</g></g></g></g><g data-idx="11" data-dup="" dx="128" dy="128" style="transform-origin: 313.082px 170.276px; animation: 1s linear 0s infinite normal forwards running beat-989c5ca1-95d9-4341-a064-0762d18b6234;"><g transform="translate(128,128)"><g transform="matrix(0.8102 -0.5862 0.5862 0.8102 10.3558 116.5189) translate(185.074,42.271) scale(0.3916444444444444)"><g data-icon="" transform="scale(0.9)">  <use xlink:href="#id-0.2161595673906922" x="-50" y="-50"></use>
</g></g></g></g><g data-idx="12" data-dup="" dx="-128" dy="128" style="transform-origin: 96.7127px 321.415px; animation: 1s linear 0s infinite normal forwards running beat-989c5ca1-95d9-4341-a064-0762d18b6234;"><g transform="translate(-128,128)"><g transform="matrix(0.7153 0.6988 -0.6988 0.7153 199.1367 -101.9661) translate(224.712,193.41799999999998) scale(0.3647555555555556)"><g data-icon="" transform="scale(0.9)">  <use xlink:href="#id-0.2161595673906922" x="-50" y="-50"></use>
</g></g></g></g><g data-idx="12" data-dup="" dx="128" dy="128" style="transform-origin: 352.713px 321.415px; animation: 1s linear 0s infinite normal forwards running beat-989c5ca1-95d9-4341-a064-0762d18b6234;"><g transform="translate(128,128)"><g transform="matrix(0.7153 0.6988 -0.6988 0.7153 199.1367 -101.9661) translate(224.712,193.41799999999998) scale(0.3647555555555556)"><g data-icon="" transform="scale(0.9)">  <use xlink:href="#id-0.2161595673906922" x="-50" y="-50"></use>
</g></g></g></g><g data-idx="13" data-dup="" dx="-128" dy="128" style="transform-origin: -81.3936px 234.721px; animation: 1s linear 0s infinite normal forwards running beat-989c5ca1-95d9-4341-a064-0762d18b6234;"><g transform="translate(-128,128)"><g transform="matrix(0.7812 0.6242 -0.6242 0.7812 76.8196 -5.7423) translate(46.602000000000004,106.7265) scale(0.3879111111111111)"><g data-icon="" transform="scale(0.9)">  <use xlink:href="#id-0.2161595673906922" x="-50" y="-50"></use>
</g></g></g></g><g data-idx="13" data-dup="" dx="128" dy="128" style="transform-origin: 174.606px 234.721px; animation: 1s linear 0s infinite normal forwards running beat-989c5ca1-95d9-4341-a064-0762d18b6234;"><g transform="translate(128,128)"><g transform="matrix(0.7812 0.6242 -0.6242 0.7812 76.8196 -5.7423) translate(46.602000000000004,106.7265) scale(0.3879111111111111)"><g data-icon="" transform="scale(0.9)">  <use xlink:href="#id-0.2161595673906922" x="-50" y="-50"></use>
</g></g></g></g><g data-idx="14" data-dup="" dx="-128" dy="128" style="transform-origin: -58.7991px 357.633px; animation: 1s linear 0s infinite normal forwards running beat-989c5ca1-95d9-4341-a064-0762d18b6234;"><g transform="translate(-128,128)"><g transform="matrix(0.7381 -0.6747 0.6747 0.7381 -136.8065 106.8361) translate(69.2025,229.6265) scale(0.5011777777777778)"><g data-icon="" transform="scale(0.9)">  <use xlink:href="#id-0.2161595673906922" x="-50" y="-50"></use>
</g></g></g></g><g data-idx="14" data-dup="" dx="128" dy="128" style="transform-origin: 197.201px 357.633px; animation: 1s linear 0s infinite normal forwards running beat-989c5ca1-95d9-4341-a064-0762d18b6234;"><g transform="translate(128,128)"><g transform="matrix(0.7381 -0.6747 0.6747 0.7381 -136.8065 106.8361) translate(69.2025,229.6265) scale(0.5011777777777778)"><g data-icon="" transform="scale(0.9)">  <use xlink:href="#id-0.2161595673906922" x="-50" y="-50"></use>
</g></g></g></g></g><style id="beat-989c5ca1-95d9-4341-a064-0762d18b6234" data-anikit="">@keyframes beat-989c5ca1-95d9-4341-a064-0762d18b6234
{
  0% {
    animation-timing-function: cubic-bezier(0.1028,0.2484,0.1372,0.849);
    transform: scale(1);
  }
  34% {
    animation-timing-function: cubic-bezier(0.7116,0.2095,0.8159,0.6876);
    transform: scale(1.2);
  }
  68% {
    animation-timing-function: cubic-bezier(0.1475,0.2888,0.294,0.883);
    transform: scale(1.0268);
  }
  84% {
    animation-timing-function: cubic-bezier(0.8176,0.2193,0.867,0.6889);
    transform: scale(1.0932);
  }
  100% {
    transform: scale(1);
  }
}</style></svg>