<?xml version="1.0" encoding="utf-8"?>
<svg xmlns="http://www.w3.org/2000/svg" xmlns:xlink="http://www.w3.org/1999/xlink" style="background: rgb(238, 238, 238); display: block; position: relative; shape-rendering: auto;" width="168" height="168" preserveAspectRatio="xMidYMid" viewBox="0 0 168 168"><g transform="scale(0.66)">


<defs><g id="id-0.17097420291841048"><!--Generator: Adobe Illustrator 21.0.0, SVG Export Plug-In . SVG Version: 6.00 Build 0)--><style type="text/css">.st0{fill:#333}.st3{stroke-width:3.5;stroke-miterlimit:10;fill:#e15b64;stroke:#333}.st5{fill:#fff}.st7{fill:#e15b64}.st10{stroke:#333;stroke-miterlimit:10;fill:#e0e0e0;stroke-width:3.5}</style><path class="st3" d="M33.709,62.732l-8.72-38.034c-1.096-4.78,2.025-9.507,6.852-10.377l0,0c4.827-0.87,9.401,2.47,10.043,7.332 l5.108,38.685" data-fill="c1" data-stroke="c2" style="fill: rgb(225, 91, 100); stroke: rgb(51, 51, 51);"></path><path class="st5" d="M35.048,54.221L28.66,24.737c-0.803-3.706,0.838-6.031,3.617-6.532l0,0c2.779-0.501,5.569,1.026,6.111,4.778 l4.308,29.858" data-fill="c3" style="fill: rgb(255, 255, 255);"></path><path class="st3" d="M66.291,62.732l8.72-38.034c1.096-4.78-2.025-9.507-6.852-10.377l0,0c-4.827-0.87-9.401,2.47-10.043,7.332 l-5.108,38.685" data-fill="c1" data-stroke="c2" style="fill: rgb(225, 91, 100); stroke: rgb(51, 51, 51);"></path><path class="st5" d="M64.952,54.221l6.388-29.483c0.803-3.706-0.838-6.031-3.617-6.532l0,0c-2.779-0.501-5.569,1.026-6.111,4.778 l-4.308,29.858" data-fill="c3" style="fill: rgb(255, 255, 255);"></path><path class="st10" d="M54.57,87.183c-3.046,0.882-6.093,0.882-9.139,0c-2.553-0.739-5.16-1.27-7.763-1.803 C27.87,83.375,20.5,74.706,20.5,64.317v0c0-11.874,9.626-21.5,21.5-21.5h16c11.874,0,21.5,9.626,21.5,21.5v0 c0,10.39-7.37,19.058-17.167,21.063C59.729,85.913,57.123,86.444,54.57,87.183z" data-fill="c4" data-stroke="c2" style="fill: rgb(224, 224, 224); stroke: rgb(51, 51, 51);"></path><path class="st0" d="M38.182,68.396L38.182,68.396c2.422,0,4.385-1.963,4.385-4.385v-6.578c0-2.422-1.963-4.385-4.385-4.385h0 c-2.422,0-4.385,1.963-4.385,4.385v6.578C33.797,66.432,35.76,68.396,38.182,68.396z" data-fill="c2" style="fill: rgb(51, 51, 51);"></path><path class="st0" d="M61.818,68.396L61.818,68.396c-2.422,0-4.385-1.963-4.385-4.385v-6.578c0-2.422,1.963-4.385,4.385-4.385h0 c2.422,0,4.385,1.963,4.385,4.385v6.578C66.203,66.432,64.24,68.396,61.818,68.396z" data-fill="c2" style="fill: rgb(51, 51, 51);"></path><ellipse class="st7" cx="50" cy="72.875" rx="6" ry="3.75" data-fill="c1" style="fill: rgb(225, 91, 100);"></ellipse><metadata xmlns:d="https://loading.io/stock/"><d:name>rabbit</d:name><d:tags>rabbit,bunny,carrot,animal</d:tags><d:license>by</d:license><d:slug>nvnkex</d:slug></metadata></g></defs>

<!-- Generator: Adobe Illustrator 21.0.0, SVG Export Plug-In . SVG Version: 6.00 Build 0)  -->



















<g data-idx="0" data-dup="" dx="-128" dy="-128" style="transform-origin: -58.5046px 39.4938px; animation: 1.88679s linear 0s infinite normal forwards running beat-e3a26b3e-4d6f-44e4-84c2-e7f8f0548ee9;"><g transform="translate(-128,-128)"><ellipse transform="matrix(0.7249 -0.6888 0.6888 0.7249 -96.2592 93.9447)" fill="#B3B4B4" cx="69.5" cy="167.5" rx="5.5" ry="5.5" data-fill="c5" style="fill: rgb(60, 226, 226);"></ellipse></g></g><g data-idx="0" data-dup="" dx="128" dy="-128" style="transform-origin: 197.495px 39.4938px; animation: 1.88679s linear 0s infinite normal forwards running beat-e3a26b3e-4d6f-44e4-84c2-e7f8f0548ee9;"><g transform="translate(128,-128)"><ellipse transform="matrix(0.7249 -0.6888 0.6888 0.7249 -96.2592 93.9447)" fill="#B3B4B4" cx="69.5" cy="167.5" rx="5.5" ry="5.5" data-fill="c5" style="fill: rgb(60, 226, 226);"></ellipse></g></g><g data-idx="1" data-dup="" dx="-128" dy="-128" style="transform-origin: 111.489px -55.5005px; animation: 1.88679s linear 0s infinite normal forwards running beat-e3a26b3e-4d6f-44e4-84c2-e7f8f0548ee9;"><g transform="translate(-128,-128)"><ellipse transform="matrix(0.7249 -0.6888 0.6888 0.7249 15.9378 184.9119)" fill="#B3B4B4" cx="239.5" cy="72.5" rx="5.5" ry="5.5" data-fill="c5" style="fill: rgb(60, 226, 226);"></ellipse></g></g><g data-idx="1" data-dup="" dx="128" dy="-128" style="transform-origin: 367.489px -55.5005px; animation: 1.88679s linear 0s infinite normal forwards running beat-e3a26b3e-4d6f-44e4-84c2-e7f8f0548ee9;"><g transform="translate(128,-128)"><ellipse transform="matrix(0.7249 -0.6888 0.6888 0.7249 15.9378 184.9119)" fill="#B3B4B4" cx="239.5" cy="72.5" rx="5.5" ry="5.5" data-fill="c5" style="fill: rgb(60, 226, 226);"></ellipse></g></g><g data-idx="2" data-dup="" dx="-128" dy="-128" style="transform-origin: 73.5px -2.5px; animation: 1.88679s linear 0s infinite normal forwards running beat-e3a26b3e-4d6f-44e4-84c2-e7f8f0548ee9;"><g transform="translate(-128,-128)"><g>
	
		<line fill="none" stroke="#B3B4B5" stroke-width="4" stroke-linecap="round" stroke-linejoin="round" stroke-miterlimit="10" x1="194" y1="125.5" x2="209" y2="125.5" data-stroke="c6" style="stroke: rgb(255, 255, 255);"></line>
	
		<line fill="none" stroke="#B3B4B5" stroke-width="4" stroke-linecap="round" stroke-linejoin="round" stroke-miterlimit="10" x1="201.5" y1="133" x2="201.5" y2="118" data-stroke="c6" style="stroke: rgb(255, 255, 255);"></line>
</g></g></g><g data-idx="2" data-dup="" dx="128" dy="-128" style="transform-origin: 329.5px -2.5px; animation: 1.88679s linear 0s infinite normal forwards running beat-e3a26b3e-4d6f-44e4-84c2-e7f8f0548ee9;"><g transform="translate(128,-128)"><g>
	
		<line fill="none" stroke="#B3B4B5" stroke-width="4" stroke-linecap="round" stroke-linejoin="round" stroke-miterlimit="10" x1="194" y1="125.5" x2="209" y2="125.5" data-stroke="c6" style="stroke: rgb(255, 255, 255);"></line>
	
		<line fill="none" stroke="#B3B4B5" stroke-width="4" stroke-linecap="round" stroke-linejoin="round" stroke-miterlimit="10" x1="201.5" y1="133" x2="201.5" y2="118" data-stroke="c6" style="stroke: rgb(255, 255, 255);"></line>
</g></g></g><g data-idx="3" data-dup="" dx="-128" dy="-128" style="transform-origin: 64px 116px; animation: 1.88679s linear 0s infinite normal forwards running beat-e3a26b3e-4d6f-44e4-84c2-e7f8f0548ee9;"><g transform="translate(-128,-128)"><g>
	
		<line fill="none" stroke="#B3B4B5" stroke-width="4" stroke-linecap="round" stroke-linejoin="round" stroke-miterlimit="10" x1="186" y1="244" x2="198" y2="244" data-stroke="c6" style="stroke: rgb(255, 255, 255);"></line>
	
		<line fill="none" stroke="#B3B4B5" stroke-width="4" stroke-linecap="round" stroke-linejoin="round" stroke-miterlimit="10" x1="192" y1="250" x2="192" y2="238" data-stroke="c6" style="stroke: rgb(255, 255, 255);"></line>
</g></g></g><g data-idx="3" data-dup="" dx="128" dy="-128" style="transform-origin: 320px 116px; animation: 1.88679s linear 0s infinite normal forwards running beat-e3a26b3e-4d6f-44e4-84c2-e7f8f0548ee9;"><g transform="translate(128,-128)"><g>
	
		<line fill="none" stroke="#B3B4B5" stroke-width="4" stroke-linecap="round" stroke-linejoin="round" stroke-miterlimit="10" x1="186" y1="244" x2="198" y2="244" data-stroke="c6" style="stroke: rgb(255, 255, 255);"></line>
	
		<line fill="none" stroke="#B3B4B5" stroke-width="4" stroke-linecap="round" stroke-linejoin="round" stroke-miterlimit="10" x1="192" y1="250" x2="192" y2="238" data-stroke="c6" style="stroke: rgb(255, 255, 255);"></line>
</g></g></g><g data-idx="4" data-dup="" dx="-128" dy="-128" style="transform-origin: -107.5px -81.5px; animation: 1.88679s linear 0s infinite normal forwards running beat-e3a26b3e-4d6f-44e4-84c2-e7f8f0548ee9;"><g transform="translate(-128,-128)"><g>
	
		<line fill="none" stroke="#B3B4B5" stroke-width="4" stroke-linecap="round" stroke-linejoin="round" stroke-miterlimit="10" x1="12" y1="46.5" x2="29" y2="46.5" data-stroke="c6" style="stroke: rgb(255, 255, 255);"></line>
	
		<line fill="none" stroke="#B3B4B5" stroke-width="4" stroke-linecap="round" stroke-linejoin="round" stroke-miterlimit="10" x1="20.5" y1="55" x2="20.5" y2="38" data-stroke="c6" style="stroke: rgb(255, 255, 255);"></line>
</g></g></g><g data-idx="4" data-dup="" dx="128" dy="-128" style="transform-origin: 148.5px -81.5px; animation: 1.88679s linear 0s infinite normal forwards running beat-e3a26b3e-4d6f-44e4-84c2-e7f8f0548ee9;"><g transform="translate(128,-128)"><g>
	
		<line fill="none" stroke="#B3B4B5" stroke-width="4" stroke-linecap="round" stroke-linejoin="round" stroke-miterlimit="10" x1="12" y1="46.5" x2="29" y2="46.5" data-stroke="c6" style="stroke: rgb(255, 255, 255);"></line>
	
		<line fill="none" stroke="#B3B4B5" stroke-width="4" stroke-linecap="round" stroke-linejoin="round" stroke-miterlimit="10" x1="20.5" y1="55" x2="20.5" y2="38" data-stroke="c6" style="stroke: rgb(255, 255, 255);"></line>
</g></g></g><g data-idx="5" data-dup="" dx="-128" dy="-128" style="transform-origin: 9.52531px -55.8315px; animation: 1.88679s linear 0s infinite normal forwards running beat-e3a26b3e-4d6f-44e4-84c2-e7f8f0548ee9;"><g transform="translate(-128,-128)"><ellipse transform="matrix(0.4903 -0.8715 0.8715 0.4903 7.2038 156.6452)" fill="#B3B4B4" cx="137.531" cy="72.163" rx="6.525" ry="6.525" data-fill="c5" style="fill: rgb(60, 226, 226);"></ellipse></g></g><g data-idx="5" data-dup="" dx="128" dy="-128" style="transform-origin: 265.525px -55.8315px; animation: 1.88679s linear 0s infinite normal forwards running beat-e3a26b3e-4d6f-44e4-84c2-e7f8f0548ee9;"><g transform="translate(128,-128)"><ellipse transform="matrix(0.4903 -0.8715 0.8715 0.4903 7.2038 156.6452)" fill="#B3B4B4" cx="137.531" cy="72.163" rx="6.525" ry="6.525" data-fill="c5" style="fill: rgb(60, 226, 226);"></ellipse></g></g><g data-idx="6" data-dup="" dx="-128" dy="-128" style="transform-origin: 15.4917px 88.4925px; animation: 1.88679s linear 0s infinite normal forwards running beat-e3a26b3e-4d6f-44e4-84c2-e7f8f0548ee9;"><g transform="translate(-128,-128)"><ellipse transform="matrix(0.7249 -0.6888 0.6888 0.7249 -109.6566 158.3945)" fill="#B3B4B4" cx="143.5" cy="216.5" rx="5.5" ry="5.5" data-fill="c5" style="fill: rgb(60, 226, 226);"></ellipse></g></g><g data-idx="6" data-dup="" dx="128" dy="-128" style="transform-origin: 271.492px 88.4925px; animation: 1.88679s linear 0s infinite normal forwards running beat-e3a26b3e-4d6f-44e4-84c2-e7f8f0548ee9;"><g transform="translate(128,-128)"><ellipse transform="matrix(0.7249 -0.6888 0.6888 0.7249 -109.6566 158.3945)" fill="#B3B4B4" cx="143.5" cy="216.5" rx="5.5" ry="5.5" data-fill="c5" style="fill: rgb(60, 226, 226);"></ellipse></g></g><g data-idx="7" data-dup="" dx="-128" dy="-128" style="transform-origin: -37.0041px -92.0005px; animation: 1.88679s linear 0s infinite normal forwards running beat-e3a26b3e-4d6f-44e4-84c2-e7f8f0548ee9;"><g transform="translate(-128,-128)"><ellipse transform="matrix(0.7249 -0.6888 0.6888 0.7249 0.2332 72.5839)" fill="#B3B4B4" cx="91" cy="36" rx="4" ry="4" data-fill="c5" style="fill: rgb(60, 226, 226);"></ellipse></g></g><g data-idx="7" data-dup="" dx="128" dy="-128" style="transform-origin: 218.996px -92.0005px; animation: 1.88679s linear 0s infinite normal forwards running beat-e3a26b3e-4d6f-44e4-84c2-e7f8f0548ee9;"><g transform="translate(128,-128)"><ellipse transform="matrix(0.7249 -0.6888 0.6888 0.7249 0.2332 72.5839)" fill="#B3B4B4" cx="91" cy="36" rx="4" ry="4" data-fill="c5" style="fill: rgb(60, 226, 226);"></ellipse></g></g><g data-idx="8" data-dup="" dx="-128" dy="-128" style="transform-origin: 120.988px 20.9965px; animation: 1.88679s linear 0s infinite normal forwards running beat-e3a26b3e-4d6f-44e4-84c2-e7f8f0548ee9;"><g transform="translate(-128,-128)"><ellipse transform="matrix(0.7249 -0.6888 0.6888 0.7249 -34.1432 212.4976)" fill="#B3B4B4" cx="249" cy="149" rx="4" ry="4" data-fill="c5" style="fill: rgb(60, 226, 226);"></ellipse></g></g><g data-idx="8" data-dup="" dx="128" dy="-128" style="transform-origin: 376.988px 20.9965px; animation: 1.88679s linear 0s infinite normal forwards running beat-e3a26b3e-4d6f-44e4-84c2-e7f8f0548ee9;"><g transform="translate(128,-128)"><ellipse transform="matrix(0.7249 -0.6888 0.6888 0.7249 -34.1432 212.4976)" fill="#B3B4B4" cx="249" cy="149" rx="4" ry="4" data-fill="c5" style="fill: rgb(60, 226, 226);"></ellipse></g></g><g data-idx="9" data-dup="" dx="-128" dy="-128" style="transform-origin: -121.003px 111.99px; animation: 1.88679s linear 0s infinite normal forwards running beat-e3a26b3e-4d6f-44e4-84c2-e7f8f0548ee9;"><g transform="translate(-128,-128)"><ellipse transform="matrix(0.7249 -0.6888 0.6888 0.7249 -163.3891 70.8358)" fill="#B3B4B4" cx="7" cy="240" rx="4" ry="4" data-fill="c5" style="fill: rgb(60, 226, 226);"></ellipse></g></g><g data-idx="9" data-dup="" dx="128" dy="-128" style="transform-origin: 134.997px 111.99px; animation: 1.88679s linear 0s infinite normal forwards running beat-e3a26b3e-4d6f-44e4-84c2-e7f8f0548ee9;"><g transform="translate(128,-128)"><ellipse transform="matrix(0.7249 -0.6888 0.6888 0.7249 -163.3891 70.8358)" fill="#B3B4B4" cx="7" cy="240" rx="4" ry="4" data-fill="c5" style="fill: rgb(60, 226, 226);"></ellipse></g></g><g data-idx="10" data-dup="" dx="-128" dy="-128" style="transform-origin: 4.93155px 11.5613px; animation: 1.88679s linear 0s infinite normal forwards running beat-e3a26b3e-4d6f-44e4-84c2-e7f8f0548ee9;"><g transform="translate(-128,-128)"><g transform="matrix(0.9912 0.1325 -0.1325 0.9912 19.5946 -16.4002) translate(133,138.9995) scale(0.6222222222222222)"><g data-icon="" transform="scale(0.9)">  <use xlink:href="#id-0.17097420291841048" x="-50" y="-50"></use>
</g></g></g></g><g data-idx="10" data-dup="" dx="128" dy="-128" style="transform-origin: 260.932px 11.5613px; animation: 1.88679s linear 0s infinite normal forwards running beat-e3a26b3e-4d6f-44e4-84c2-e7f8f0548ee9;"><g transform="translate(128,-128)"><g transform="matrix(0.9912 0.1325 -0.1325 0.9912 19.5946 -16.4002) translate(133,138.9995) scale(0.6222222222222222)"><g data-icon="" transform="scale(0.9)">  <use xlink:href="#id-0.17097420291841048" x="-50" y="-50"></use>
</g></g></g></g><g data-idx="11" data-dup="" dx="-128" dy="-128" style="transform-origin: 57.2915px -85.434px; animation: 1.88679s linear 0s infinite normal forwards running beat-e3a26b3e-4d6f-44e4-84c2-e7f8f0548ee9;"><g transform="translate(-128,-128)"><g transform="matrix(0.8102 -0.5862 0.5862 0.8102 10.3558 116.5189) translate(185.074,42.271) scale(0.3916444444444444)"><g data-icon="" transform="scale(0.9)">  <use xlink:href="#id-0.17097420291841048" x="-50" y="-50"></use>
</g></g></g></g><g data-idx="11" data-dup="" dx="128" dy="-128" style="transform-origin: 313.291px -85.434px; animation: 1.88679s linear 0s infinite normal forwards running beat-e3a26b3e-4d6f-44e4-84c2-e7f8f0548ee9;"><g transform="translate(128,-128)"><g transform="matrix(0.8102 -0.5862 0.5862 0.8102 10.3558 116.5189) translate(185.074,42.271) scale(0.3916444444444444)"><g data-icon="" transform="scale(0.9)">  <use xlink:href="#id-0.17097420291841048" x="-50" y="-50"></use>
</g></g></g></g><g data-idx="12" data-dup="" dx="-128" dy="-128" style="transform-origin: 96.4801px 65.6526px; animation: 1.88679s linear 0s infinite normal forwards running beat-e3a26b3e-4d6f-44e4-84c2-e7f8f0548ee9;"><g transform="translate(-128,-128)"><g transform="matrix(0.7153 0.6988 -0.6988 0.7153 199.1367 -101.9661) translate(224.712,193.41799999999998) scale(0.3647555555555556)"><g data-icon="" transform="scale(0.9)">  <use xlink:href="#id-0.17097420291841048" x="-50" y="-50"></use>
</g></g></g></g><g data-idx="12" data-dup="" dx="128" dy="-128" style="transform-origin: 352.48px 65.6526px; animation: 1.88679s linear 0s infinite normal forwards running beat-e3a26b3e-4d6f-44e4-84c2-e7f8f0548ee9;"><g transform="translate(128,-128)"><g transform="matrix(0.7153 0.6988 -0.6988 0.7153 199.1367 -101.9661) translate(224.712,193.41799999999998) scale(0.3647555555555556)"><g data-icon="" transform="scale(0.9)">  <use xlink:href="#id-0.17097420291841048" x="-50" y="-50"></use>
</g></g></g></g><g data-idx="13" data-dup="" dx="-128" dy="-128" style="transform-origin: -81.6145px -21.0021px; animation: 1.88679s linear 0s infinite normal forwards running beat-e3a26b3e-4d6f-44e4-84c2-e7f8f0548ee9;"><g transform="translate(-128,-128)"><g transform="matrix(0.7812 0.6242 -0.6242 0.7812 76.8196 -5.7423) translate(46.602000000000004,106.7265) scale(0.3879111111111111)"><g data-icon="" transform="scale(0.9)">  <use xlink:href="#id-0.17097420291841048" x="-50" y="-50"></use>
</g></g></g></g><g data-idx="13" data-dup="" dx="128" dy="-128" style="transform-origin: 174.385px -21.0021px; animation: 1.88679s linear 0s infinite normal forwards running beat-e3a26b3e-4d6f-44e4-84c2-e7f8f0548ee9;"><g transform="translate(128,-128)"><g transform="matrix(0.7812 0.6242 -0.6242 0.7812 76.8196 -5.7423) translate(46.602000000000004,106.7265) scale(0.3879111111111111)"><g data-icon="" transform="scale(0.9)">  <use xlink:href="#id-0.17097420291841048" x="-50" y="-50"></use>
</g></g></g></g><g data-idx="14" data-dup="" dx="-128" dy="-128" style="transform-origin: -58.4906px 101.97px; animation: 1.88679s linear 0s infinite normal forwards running beat-e3a26b3e-4d6f-44e4-84c2-e7f8f0548ee9;"><g transform="translate(-128,-128)"><g transform="matrix(0.7381 -0.6747 0.6747 0.7381 -136.8065 106.8361) translate(69.2025,229.6265) scale(0.5011777777777778)"><g data-icon="" transform="scale(0.9)">  <use xlink:href="#id-0.17097420291841048" x="-50" y="-50"></use>
</g></g></g></g><g data-idx="14" data-dup="" dx="128" dy="-128" style="transform-origin: 197.509px 101.97px; animation: 1.88679s linear 0s infinite normal forwards running beat-e3a26b3e-4d6f-44e4-84c2-e7f8f0548ee9;"><g transform="translate(128,-128)"><g transform="matrix(0.7381 -0.6747 0.6747 0.7381 -136.8065 106.8361) translate(69.2025,229.6265) scale(0.5011777777777778)"><g data-icon="" transform="scale(0.9)">  <use xlink:href="#id-0.17097420291841048" x="-50" y="-50"></use>
</g></g></g></g><g data-idx="0" data-dup="" dx="-128" dy="128" style="transform-origin: -58.5046px 295.494px; animation: 1.88679s linear 0s infinite normal forwards running beat-e3a26b3e-4d6f-44e4-84c2-e7f8f0548ee9;"><g transform="translate(-128,128)"><ellipse transform="matrix(0.7249 -0.6888 0.6888 0.7249 -96.2592 93.9447)" fill="#B3B4B4" cx="69.5" cy="167.5" rx="5.5" ry="5.5" data-fill="c5" style="fill: rgb(60, 226, 226);"></ellipse></g></g><g data-idx="0" data-dup="" dx="128" dy="128" style="transform-origin: 197.495px 295.494px; animation: 1.88679s linear 0s infinite normal forwards running beat-e3a26b3e-4d6f-44e4-84c2-e7f8f0548ee9;"><g transform="translate(128,128)"><ellipse transform="matrix(0.7249 -0.6888 0.6888 0.7249 -96.2592 93.9447)" fill="#B3B4B4" cx="69.5" cy="167.5" rx="5.5" ry="5.5" data-fill="c5" style="fill: rgb(60, 226, 226);"></ellipse></g></g><g data-idx="1" data-dup="" dx="-128" dy="128" style="transform-origin: 111.489px 200.5px; animation: 1.88679s linear 0s infinite normal forwards running beat-e3a26b3e-4d6f-44e4-84c2-e7f8f0548ee9;"><g transform="translate(-128,128)"><ellipse transform="matrix(0.7249 -0.6888 0.6888 0.7249 15.9378 184.9119)" fill="#B3B4B4" cx="239.5" cy="72.5" rx="5.5" ry="5.5" data-fill="c5" style="fill: rgb(60, 226, 226);"></ellipse></g></g><g data-idx="1" data-dup="" dx="128" dy="128" style="transform-origin: 367.489px 200.5px; animation: 1.88679s linear 0s infinite normal forwards running beat-e3a26b3e-4d6f-44e4-84c2-e7f8f0548ee9;"><g transform="translate(128,128)"><ellipse transform="matrix(0.7249 -0.6888 0.6888 0.7249 15.9378 184.9119)" fill="#B3B4B4" cx="239.5" cy="72.5" rx="5.5" ry="5.5" data-fill="c5" style="fill: rgb(60, 226, 226);"></ellipse></g></g><g data-idx="2" data-dup="" dx="-128" dy="128" style="transform-origin: 73.5px 253.5px; animation: 1.88679s linear 0s infinite normal forwards running beat-e3a26b3e-4d6f-44e4-84c2-e7f8f0548ee9;"><g transform="translate(-128,128)"><g>
	
		<line fill="none" stroke="#B3B4B5" stroke-width="4" stroke-linecap="round" stroke-linejoin="round" stroke-miterlimit="10" x1="194" y1="125.5" x2="209" y2="125.5" data-stroke="c6" style="stroke: rgb(255, 255, 255);"></line>
	
		<line fill="none" stroke="#B3B4B5" stroke-width="4" stroke-linecap="round" stroke-linejoin="round" stroke-miterlimit="10" x1="201.5" y1="133" x2="201.5" y2="118" data-stroke="c6" style="stroke: rgb(255, 255, 255);"></line>
</g></g></g><g data-idx="2" data-dup="" dx="128" dy="128" style="transform-origin: 329.5px 253.5px; animation: 1.88679s linear 0s infinite normal forwards running beat-e3a26b3e-4d6f-44e4-84c2-e7f8f0548ee9;"><g transform="translate(128,128)"><g>
	
		<line fill="none" stroke="#B3B4B5" stroke-width="4" stroke-linecap="round" stroke-linejoin="round" stroke-miterlimit="10" x1="194" y1="125.5" x2="209" y2="125.5" data-stroke="c6" style="stroke: rgb(255, 255, 255);"></line>
	
		<line fill="none" stroke="#B3B4B5" stroke-width="4" stroke-linecap="round" stroke-linejoin="round" stroke-miterlimit="10" x1="201.5" y1="133" x2="201.5" y2="118" data-stroke="c6" style="stroke: rgb(255, 255, 255);"></line>
</g></g></g><g data-idx="3" data-dup="" dx="-128" dy="128" style="transform-origin: 64px 372px; animation: 1.88679s linear 0s infinite normal forwards running beat-e3a26b3e-4d6f-44e4-84c2-e7f8f0548ee9;"><g transform="translate(-128,128)"><g>
	
		<line fill="none" stroke="#B3B4B5" stroke-width="4" stroke-linecap="round" stroke-linejoin="round" stroke-miterlimit="10" x1="186" y1="244" x2="198" y2="244" data-stroke="c6" style="stroke: rgb(255, 255, 255);"></line>
	
		<line fill="none" stroke="#B3B4B5" stroke-width="4" stroke-linecap="round" stroke-linejoin="round" stroke-miterlimit="10" x1="192" y1="250" x2="192" y2="238" data-stroke="c6" style="stroke: rgb(255, 255, 255);"></line>
</g></g></g><g data-idx="3" data-dup="" dx="128" dy="128" style="transform-origin: 320px 372px; animation: 1.88679s linear 0s infinite normal forwards running beat-e3a26b3e-4d6f-44e4-84c2-e7f8f0548ee9;"><g transform="translate(128,128)"><g>
	
		<line fill="none" stroke="#B3B4B5" stroke-width="4" stroke-linecap="round" stroke-linejoin="round" stroke-miterlimit="10" x1="186" y1="244" x2="198" y2="244" data-stroke="c6" style="stroke: rgb(255, 255, 255);"></line>
	
		<line fill="none" stroke="#B3B4B5" stroke-width="4" stroke-linecap="round" stroke-linejoin="round" stroke-miterlimit="10" x1="192" y1="250" x2="192" y2="238" data-stroke="c6" style="stroke: rgb(255, 255, 255);"></line>
</g></g></g><g data-idx="4" data-dup="" dx="-128" dy="128" style="transform-origin: -107.5px 174.5px; animation: 1.88679s linear 0s infinite normal forwards running beat-e3a26b3e-4d6f-44e4-84c2-e7f8f0548ee9;"><g transform="translate(-128,128)"><g>
	
		<line fill="none" stroke="#B3B4B5" stroke-width="4" stroke-linecap="round" stroke-linejoin="round" stroke-miterlimit="10" x1="12" y1="46.5" x2="29" y2="46.5" data-stroke="c6" style="stroke: rgb(255, 255, 255);"></line>
	
		<line fill="none" stroke="#B3B4B5" stroke-width="4" stroke-linecap="round" stroke-linejoin="round" stroke-miterlimit="10" x1="20.5" y1="55" x2="20.5" y2="38" data-stroke="c6" style="stroke: rgb(255, 255, 255);"></line>
</g></g></g><g data-idx="4" data-dup="" dx="128" dy="128" style="transform-origin: 148.5px 174.5px; animation: 1.88679s linear 0s infinite normal forwards running beat-e3a26b3e-4d6f-44e4-84c2-e7f8f0548ee9;"><g transform="translate(128,128)"><g>
	
		<line fill="none" stroke="#B3B4B5" stroke-width="4" stroke-linecap="round" stroke-linejoin="round" stroke-miterlimit="10" x1="12" y1="46.5" x2="29" y2="46.5" data-stroke="c6" style="stroke: rgb(255, 255, 255);"></line>
	
		<line fill="none" stroke="#B3B4B5" stroke-width="4" stroke-linecap="round" stroke-linejoin="round" stroke-miterlimit="10" x1="20.5" y1="55" x2="20.5" y2="38" data-stroke="c6" style="stroke: rgb(255, 255, 255);"></line>
</g></g></g><g data-idx="5" data-dup="" dx="-128" dy="128" style="transform-origin: 9.52531px 200.168px; animation: 1.88679s linear 0s infinite normal forwards running beat-e3a26b3e-4d6f-44e4-84c2-e7f8f0548ee9;"><g transform="translate(-128,128)"><ellipse transform="matrix(0.4903 -0.8715 0.8715 0.4903 7.2038 156.6452)" fill="#B3B4B4" cx="137.531" cy="72.163" rx="6.525" ry="6.525" data-fill="c5" style="fill: rgb(60, 226, 226);"></ellipse></g></g><g data-idx="5" data-dup="" dx="128" dy="128" style="transform-origin: 265.525px 200.168px; animation: 1.88679s linear 0s infinite normal forwards running beat-e3a26b3e-4d6f-44e4-84c2-e7f8f0548ee9;"><g transform="translate(128,128)"><ellipse transform="matrix(0.4903 -0.8715 0.8715 0.4903 7.2038 156.6452)" fill="#B3B4B4" cx="137.531" cy="72.163" rx="6.525" ry="6.525" data-fill="c5" style="fill: rgb(60, 226, 226);"></ellipse></g></g><g data-idx="6" data-dup="" dx="-128" dy="128" style="transform-origin: 15.4917px 344.493px; animation: 1.88679s linear 0s infinite normal forwards running beat-e3a26b3e-4d6f-44e4-84c2-e7f8f0548ee9;"><g transform="translate(-128,128)"><ellipse transform="matrix(0.7249 -0.6888 0.6888 0.7249 -109.6566 158.3945)" fill="#B3B4B4" cx="143.5" cy="216.5" rx="5.5" ry="5.5" data-fill="c5" style="fill: rgb(60, 226, 226);"></ellipse></g></g><g data-idx="6" data-dup="" dx="128" dy="128" style="transform-origin: 271.492px 344.493px; animation: 1.88679s linear 0s infinite normal forwards running beat-e3a26b3e-4d6f-44e4-84c2-e7f8f0548ee9;"><g transform="translate(128,128)"><ellipse transform="matrix(0.7249 -0.6888 0.6888 0.7249 -109.6566 158.3945)" fill="#B3B4B4" cx="143.5" cy="216.5" rx="5.5" ry="5.5" data-fill="c5" style="fill: rgb(60, 226, 226);"></ellipse></g></g><g data-idx="7" data-dup="" dx="-128" dy="128" style="transform-origin: -37.0041px 163.999px; animation: 1.88679s linear 0s infinite normal forwards running beat-e3a26b3e-4d6f-44e4-84c2-e7f8f0548ee9;"><g transform="translate(-128,128)"><ellipse transform="matrix(0.7249 -0.6888 0.6888 0.7249 0.2332 72.5839)" fill="#B3B4B4" cx="91" cy="36" rx="4" ry="4" data-fill="c5" style="fill: rgb(60, 226, 226);"></ellipse></g></g><g data-idx="7" data-dup="" dx="128" dy="128" style="transform-origin: 218.996px 163.999px; animation: 1.88679s linear 0s infinite normal forwards running beat-e3a26b3e-4d6f-44e4-84c2-e7f8f0548ee9;"><g transform="translate(128,128)"><ellipse transform="matrix(0.7249 -0.6888 0.6888 0.7249 0.2332 72.5839)" fill="#B3B4B4" cx="91" cy="36" rx="4" ry="4" data-fill="c5" style="fill: rgb(60, 226, 226);"></ellipse></g></g><g data-idx="8" data-dup="" dx="-128" dy="128" style="transform-origin: 120.988px 276.996px; animation: 1.88679s linear 0s infinite normal forwards running beat-e3a26b3e-4d6f-44e4-84c2-e7f8f0548ee9;"><g transform="translate(-128,128)"><ellipse transform="matrix(0.7249 -0.6888 0.6888 0.7249 -34.1432 212.4976)" fill="#B3B4B4" cx="249" cy="149" rx="4" ry="4" data-fill="c5" style="fill: rgb(60, 226, 226);"></ellipse></g></g><g data-idx="8" data-dup="" dx="128" dy="128" style="transform-origin: 376.988px 276.996px; animation: 1.88679s linear 0s infinite normal forwards running beat-e3a26b3e-4d6f-44e4-84c2-e7f8f0548ee9;"><g transform="translate(128,128)"><ellipse transform="matrix(0.7249 -0.6888 0.6888 0.7249 -34.1432 212.4976)" fill="#B3B4B4" cx="249" cy="149" rx="4" ry="4" data-fill="c5" style="fill: rgb(60, 226, 226);"></ellipse></g></g><g data-idx="9" data-dup="" dx="-128" dy="128" style="transform-origin: -121.003px 367.99px; animation: 1.88679s linear 0s infinite normal forwards running beat-e3a26b3e-4d6f-44e4-84c2-e7f8f0548ee9;"><g transform="translate(-128,128)"><ellipse transform="matrix(0.7249 -0.6888 0.6888 0.7249 -163.3891 70.8358)" fill="#B3B4B4" cx="7" cy="240" rx="4" ry="4" data-fill="c5" style="fill: rgb(60, 226, 226);"></ellipse></g></g><g data-idx="9" data-dup="" dx="128" dy="128" style="transform-origin: 134.997px 367.99px; animation: 1.88679s linear 0s infinite normal forwards running beat-e3a26b3e-4d6f-44e4-84c2-e7f8f0548ee9;"><g transform="translate(128,128)"><ellipse transform="matrix(0.7249 -0.6888 0.6888 0.7249 -163.3891 70.8358)" fill="#B3B4B4" cx="7" cy="240" rx="4" ry="4" data-fill="c5" style="fill: rgb(60, 226, 226);"></ellipse></g></g><g data-idx="10" data-dup="" dx="-128" dy="128" style="transform-origin: 4.93155px 267.561px; animation: 1.88679s linear 0s infinite normal forwards running beat-e3a26b3e-4d6f-44e4-84c2-e7f8f0548ee9;"><g transform="translate(-128,128)"><g transform="matrix(0.9912 0.1325 -0.1325 0.9912 19.5946 -16.4002) translate(133,138.9995) scale(0.6222222222222222)"><g data-icon="" transform="scale(0.9)">  <use xlink:href="#id-0.17097420291841048" x="-50" y="-50"></use>
</g></g></g></g><g data-idx="10" data-dup="" dx="128" dy="128" style="transform-origin: 260.932px 267.561px; animation: 1.88679s linear 0s infinite normal forwards running beat-e3a26b3e-4d6f-44e4-84c2-e7f8f0548ee9;"><g transform="translate(128,128)"><g transform="matrix(0.9912 0.1325 -0.1325 0.9912 19.5946 -16.4002) translate(133,138.9995) scale(0.6222222222222222)"><g data-icon="" transform="scale(0.9)">  <use xlink:href="#id-0.17097420291841048" x="-50" y="-50"></use>
</g></g></g></g><g data-idx="11" data-dup="" dx="-128" dy="128" style="transform-origin: 57.2915px 170.566px; animation: 1.88679s linear 0s infinite normal forwards running beat-e3a26b3e-4d6f-44e4-84c2-e7f8f0548ee9;"><g transform="translate(-128,128)"><g transform="matrix(0.8102 -0.5862 0.5862 0.8102 10.3558 116.5189) translate(185.074,42.271) scale(0.3916444444444444)"><g data-icon="" transform="scale(0.9)">  <use xlink:href="#id-0.17097420291841048" x="-50" y="-50"></use>
</g></g></g></g><g data-idx="11" data-dup="" dx="128" dy="128" style="transform-origin: 313.291px 170.566px; animation: 1.88679s linear 0s infinite normal forwards running beat-e3a26b3e-4d6f-44e4-84c2-e7f8f0548ee9;"><g transform="translate(128,128)"><g transform="matrix(0.8102 -0.5862 0.5862 0.8102 10.3558 116.5189) translate(185.074,42.271) scale(0.3916444444444444)"><g data-icon="" transform="scale(0.9)">  <use xlink:href="#id-0.17097420291841048" x="-50" y="-50"></use>
</g></g></g></g><g data-idx="12" data-dup="" dx="-128" dy="128" style="transform-origin: 96.4801px 321.653px; animation: 1.88679s linear 0s infinite normal forwards running beat-e3a26b3e-4d6f-44e4-84c2-e7f8f0548ee9;"><g transform="translate(-128,128)"><g transform="matrix(0.7153 0.6988 -0.6988 0.7153 199.1367 -101.9661) translate(224.712,193.41799999999998) scale(0.3647555555555556)"><g data-icon="" transform="scale(0.9)">  <use xlink:href="#id-0.17097420291841048" x="-50" y="-50"></use>
</g></g></g></g><g data-idx="12" data-dup="" dx="128" dy="128" style="transform-origin: 352.48px 321.653px; animation: 1.88679s linear 0s infinite normal forwards running beat-e3a26b3e-4d6f-44e4-84c2-e7f8f0548ee9;"><g transform="translate(128,128)"><g transform="matrix(0.7153 0.6988 -0.6988 0.7153 199.1367 -101.9661) translate(224.712,193.41799999999998) scale(0.3647555555555556)"><g data-icon="" transform="scale(0.9)">  <use xlink:href="#id-0.17097420291841048" x="-50" y="-50"></use>
</g></g></g></g><g data-idx="13" data-dup="" dx="-128" dy="128" style="transform-origin: -81.6145px 234.998px; animation: 1.88679s linear 0s infinite normal forwards running beat-e3a26b3e-4d6f-44e4-84c2-e7f8f0548ee9;"><g transform="translate(-128,128)"><g transform="matrix(0.7812 0.6242 -0.6242 0.7812 76.8196 -5.7423) translate(46.602000000000004,106.7265) scale(0.3879111111111111)"><g data-icon="" transform="scale(0.9)">  <use xlink:href="#id-0.17097420291841048" x="-50" y="-50"></use>
</g></g></g></g><g data-idx="13" data-dup="" dx="128" dy="128" style="transform-origin: 174.385px 234.998px; animation: 1.88679s linear 0s infinite normal forwards running beat-e3a26b3e-4d6f-44e4-84c2-e7f8f0548ee9;"><g transform="translate(128,128)"><g transform="matrix(0.7812 0.6242 -0.6242 0.7812 76.8196 -5.7423) translate(46.602000000000004,106.7265) scale(0.3879111111111111)"><g data-icon="" transform="scale(0.9)">  <use xlink:href="#id-0.17097420291841048" x="-50" y="-50"></use>
</g></g></g></g><g data-idx="14" data-dup="" dx="-128" dy="128" style="transform-origin: -58.4906px 357.97px; animation: 1.88679s linear 0s infinite normal forwards running beat-e3a26b3e-4d6f-44e4-84c2-e7f8f0548ee9;"><g transform="translate(-128,128)"><g transform="matrix(0.7381 -0.6747 0.6747 0.7381 -136.8065 106.8361) translate(69.2025,229.6265) scale(0.5011777777777778)"><g data-icon="" transform="scale(0.9)">  <use xlink:href="#id-0.17097420291841048" x="-50" y="-50"></use>
</g></g></g></g><g data-idx="14" data-dup="" dx="128" dy="128" style="transform-origin: 197.509px 357.97px; animation: 1.88679s linear 0s infinite normal forwards running beat-e3a26b3e-4d6f-44e4-84c2-e7f8f0548ee9;"><g transform="translate(128,128)"><g transform="matrix(0.7381 -0.6747 0.6747 0.7381 -136.8065 106.8361) translate(69.2025,229.6265) scale(0.5011777777777778)"><g data-icon="" transform="scale(0.9)">  <use xlink:href="#id-0.17097420291841048" x="-50" y="-50"></use>
</g></g></g></g></g><style id="beat-e3a26b3e-4d6f-44e4-84c2-e7f8f0548ee9" data-anikit="">@keyframes beat-e3a26b3e-4d6f-44e4-84c2-e7f8f0548ee9
{
  0% {
    animation-timing-function: cubic-bezier(0.1028,0.2484,0.1372,0.849);
    transform: scale(1);
  }
  34% {
    animation-timing-function: cubic-bezier(0.7116,0.2095,0.8159,0.6876);
    transform: scale(1.2);
  }
  68% {
    animation-timing-function: cubic-bezier(0.1475,0.2888,0.294,0.883);
    transform: scale(1.0268);
  }
  84% {
    animation-timing-function: cubic-bezier(0.8176,0.2193,0.867,0.6889);
    transform: scale(1.0932);
  }
  100% {
    transform: scale(1);
  }
}</style></svg>